<svg width="140" height="142" viewBox="0 0 140 142" fill="none" xmlns="http://www.w3.org/2000/svg">
<mask id="mask0_1_603" style="mask-type:luminance" maskUnits="userSpaceOnUse" x="0" y="0" width="140" height="142">
<path fill-rule="evenodd" clip-rule="evenodd" d="M0 0H139.669V142H0V0Z" fill="white"/>
</mask>
<g mask="url(#mask0_1_603)">
<path fill-rule="evenodd" clip-rule="evenodd" d="M69.8316 123.069C41.0765 123.069 17.7632 99.7532 17.7632 71.0003C17.7632 42.2429 41.0765 18.9319 69.8316 18.9319C98.5867 18.9319 121.9 42.2429 121.9 71.0003C121.9 99.7532 98.5867 123.069 69.8316 123.069ZM138.031 83.2032L134.758 82.1382C133.668 81.7809 132.985 80.6885 133.148 79.5524C133.924 73.8724 133.924 68.1191 133.148 62.4482C132.985 61.3122 133.668 60.2197 134.758 59.8624L138.031 58.7974C139.275 58.3943 139.957 57.0614 139.552 55.8177L135.159 42.3093C134.758 41.0657 133.425 40.3832 132.191 40.7886L128.899 41.8513C127.814 42.2017 126.625 41.7161 126.096 40.7061C123.377 35.6582 119.985 31.0088 116.032 26.8656C115.226 26.0434 115.128 24.7722 115.799 23.8424L117.839 21.0436C118.6 19.9877 118.366 18.5013 117.31 17.7318L105.822 9.39495C104.759 8.6254 103.282 8.85672 102.515 9.91256L100.492 12.7022C99.8098 13.6344 98.5593 13.9298 97.5401 13.4191C92.3776 10.9318 86.9129 9.15217 81.2764 8.13297C80.1381 7.94517 79.3159 6.96032 79.3067 5.81516V2.37966C79.3067 1.74523 79.0548 1.14517 78.6173 0.698552C78.1707 0.249646 77.5615 0 76.9362 0H62.727C61.4215 0 60.3656 1.05584 60.3656 2.35904V5.79454C60.3565 6.95116 59.5251 7.92684 58.3983 8.11465C52.7617 9.14301 47.2947 10.9249 42.1323 13.4099C41.1039 13.9206 39.8603 13.6137 39.1801 12.6862L37.1485 9.91256C36.3813 8.85672 34.904 8.6254 33.839 9.39495L22.353 17.7318C21.2971 18.5013 21.0635 19.9786 21.8331 21.0436L23.8646 23.8309C24.5357 24.7722 24.4372 26.0434 23.631 26.8656C19.6779 31.0088 16.295 35.6582 13.5764 40.7061C13.0382 41.7161 11.8587 42.2017 10.7662 41.8513L7.48184 40.7886C6.23819 40.3832 4.90522 41.0657 4.50441 42.3002L0.11155 55.8177C-0.282388 57.0614 0.397841 58.3852 1.63233 58.7974L4.91438 59.8624C6.00687 60.2197 6.67794 61.3122 6.51532 62.4482C5.7389 68.1191 5.7389 73.8724 6.51532 79.5433C6.67794 80.6885 6.00687 81.7809 4.91438 82.1382L1.63233 83.2032C0.397841 83.6063 -0.282388 84.9393 0.11155 86.183L4.50441 99.6914C4.90522 100.935 6.23819 101.615 7.48184 101.212L10.7662 100.147C11.8587 99.799 13.0382 100.282 13.5764 101.292C16.295 106.329 19.6779 110.992 23.631 115.133C24.4372 115.948 24.5357 117.226 23.8646 118.156L21.8331 120.957C21.0635 122.013 21.2971 123.49 22.353 124.26L33.839 132.606C34.904 133.375 36.3813 133.142 37.1485 132.088L39.1709 129.296C39.8511 128.366 41.1039 128.071 42.1231 128.579C47.2856 131.067 52.7526 132.849 58.3891 133.868C59.5251 134.056 60.3473 135.04 60.3565 136.186V139.621C60.3565 140.255 60.6084 140.856 61.0459 141.302C61.4925 141.749 62.1017 142.001 62.727 142.001H76.9362C78.2417 142.001 79.2975 140.945 79.2975 139.637V136.202C79.3067 135.047 80.1381 134.074 81.2672 133.886C86.9037 132.855 92.3662 131.076 97.5309 128.588C98.5593 128.08 99.8006 128.382 100.483 129.315L102.505 132.095C103.275 133.16 104.759 133.394 105.813 132.624L117.303 124.276C118.359 123.506 118.593 122.031 117.823 120.966L115.789 118.174C115.118 117.244 115.217 115.964 116.023 115.142C119.978 110.999 123.368 106.347 126.087 101.301C126.616 100.291 127.805 99.8082 128.89 100.156L132.181 101.221C133.416 101.624 134.749 100.944 135.152 99.7097L139.545 86.1898C139.739 85.6012 139.687 84.9462 139.41 84.3828C139.123 83.8285 138.633 83.4002 138.031 83.2032Z" fill="#6B8199"/>
</g>
<path fill-rule="evenodd" clip-rule="evenodd" d="M101.629 53.5537C101.629 48.499 97.8889 44.2389 92.8776 43.5862C87.8778 42.9335 83.1621 46.1101 81.884 50.9863C80.6037 55.8716 83.1437 60.9423 87.8229 62.841V70.4266L83.8079 74.4347L87.816 78.452L83.8079 82.4692L87.816 86.4773V91.1748L91.5905 96.1929L95.3581 91.1748V62.841C99.1417 61.3111 101.62 57.6328 101.629 53.5537Z" fill="#5AB3A0"/>
<path fill-rule="evenodd" clip-rule="evenodd" d="M49.2185 57.2577C49.2185 52.1937 53.3159 48.0963 58.3799 48.0963C63.4438 48.0963 67.5412 52.1937 67.5412 57.2577V66.419H49.2185V57.2577ZM74.4122 66.419H72.1219V57.2577C72.1219 49.6721 65.9655 43.5157 58.3799 43.5157C50.7943 43.5157 44.6379 49.6721 44.6379 57.2577V66.419H42.3475C41.0856 66.419 40.0572 67.4473 40.0572 68.7093V93.903C40.0572 95.165 41.0856 96.1933 42.3475 96.1933H74.4122C75.6742 96.1933 76.7025 95.165 76.7025 93.903V68.7093C76.7025 67.4473 75.6742 66.419 74.4122 66.419Z" fill="#D9777D"/>
<mask id="mask1_1_603" style="mask-type:luminance" maskUnits="userSpaceOnUse" x="0" y="-1" width="140" height="143">
<path fill-rule="evenodd" clip-rule="evenodd" d="M0 142H139.669V-0.000686649H0V142Z" fill="white"/>
</mask>
<g mask="url(#mask1_1_603)">
<path fill-rule="evenodd" clip-rule="evenodd" d="M56.0902 84.7417H60.6709V77.8707H56.0902V84.7417Z" fill="#F5F5F5"/>
<path fill-rule="evenodd" clip-rule="evenodd" d="M94.4538 50.9592C94.4538 52.5419 93.1712 53.8222 91.5909 53.8222C90.0083 53.8222 88.728 52.5419 88.728 50.9592C88.728 49.3766 90.0083 48.0963 91.5909 48.0963C93.1712 48.0963 94.4538 49.3766 94.4538 50.9592Z" fill="#F5F5F5"/>
</g>
</svg>
