<svg width="28" height="23" viewBox="0 0 28 23" fill="none" xmlns="http://www.w3.org/2000/svg">
<path fill-rule="evenodd" clip-rule="evenodd" d="M1.64197 12.9684H22.3942L15.3452 19.939C14.7229 20.5739 14.7361 21.5887 15.3649 22.2155C15.9987 22.8374 17.025 22.8504 17.667 22.235L27.5188 12.4926C27.8275 12.189 27.9999 11.7766 27.9999 11.3511V11.3446C27.9999 11.1352 27.9556 10.9192 27.8718 10.7228C27.7881 10.5263 27.6666 10.3493 27.5188 10.1967L17.667 0.454317C17.0184 -0.161075 15.9987 -0.148085 15.3649 0.473802C14.7295 1.10056 14.7229 2.11539 15.3452 2.75026L22.3942 9.72092H1.64197C0.737244 9.72092 0 10.45 0 11.3446C0 12.2393 0.737244 12.9684 1.64197 12.9684Z" fill="white"/>
</svg>
