<svg width="108" height="71" viewBox="0 0 108 71" fill="none" xmlns="http://www.w3.org/2000/svg">
<mask id="mask0_1_396" style="mask-type:luminance" maskUnits="userSpaceOnUse" x="0" y="0" width="108" height="71">
<path fill-rule="evenodd" clip-rule="evenodd" d="M0 0H108V70.9148H0V0Z" fill="white"/>
</mask>
<g mask="url(#mask0_1_396)">
<path fill-rule="evenodd" clip-rule="evenodd" d="M108 48.9204C77.9634 78.523 29.6323 78.205 0 48.2079C1.82182 43.1714 5.35452 38.9336 9.98671 36.2564C13.1077 33.9465 16.4876 32.0211 20.0597 30.5074C14.6288 11.8258 29.4005 2.64768 35.0533 0C35.0533 8.62836 43.132 2.89913 53.1581 3.015C61.4019 3.10128 77.7243 11.4116 77.7243 0.453605C86.7939 3.14072 96.6944 20.4344 89.8854 31.067C92.6686 32.4254 95.3089 34.0894 97.7544 36.0173C102.52 39.0495 106.121 43.5954 108 48.9302V48.9204Z" fill="#677079"/>
</g>
</svg>
