<svg width="17" height="20" viewBox="0 0 17 20" fill="none" xmlns="http://www.w3.org/2000/svg">
<mask id="mask0_1_37" style="mask-type:luminance" maskUnits="userSpaceOnUse" x="0" y="0" width="17" height="20">
<path fill-rule="evenodd" clip-rule="evenodd" d="M0 0H16.2841V20H0V0Z" fill="white"/>
</mask>
<g mask="url(#mask0_1_37)">
<path fill-rule="evenodd" clip-rule="evenodd" d="M13.6043 10.628C13.6163 9.06909 14.4322 7.63216 15.7642 6.81919C14.9242 5.61225 13.5693 4.87028 12.1043 4.81928C10.5414 4.65929 9.10446 5.72924 8.2725 5.72924C7.44453 5.72924 6.27258 4.83928 4.97164 4.85828C3.24572 4.91728 1.67479 5.87824 0.834825 7.39017C-0.926097 10.448 0.381846 14.9988 2.14377 17.4677C2.94473 18.6787 3.94469 20.0496 5.26463 19.9986C6.58457 19.9476 7.01455 19.1786 8.54248 19.1786C10.0734 19.1786 10.5414 19.9986 11.8423 19.9676C13.1433 19.9406 14.0652 18.7297 14.9052 17.5187C15.4992 16.6398 15.9632 15.6788 16.2841 14.6708C14.6632 13.9799 13.6083 12.3899 13.6043 10.628ZM11.0844 3.19036C11.8463 2.30839 12.2293 1.15945 12.1433 -0.000503518C10.9834 0.0934923 9.90542 0.640468 9.14346 1.51943C8.40549 2.37039 8.04551 3.48734 8.1435 4.60829C9.29245 4.62029 10.3774 4.09332 11.0844 3.19036Z" fill="#1D1D1B"/>
</g>
</svg>
