<svg width="17" height="20" viewBox="0 0 17 20" fill="none" xmlns="http://www.w3.org/2000/svg">
<mask id="mask0_1_198" style="mask-type:luminance" maskUnits="userSpaceOnUse" x="0" y="0" width="17" height="20">
<path fill-rule="evenodd" clip-rule="evenodd" d="M0 0H16.2841V20H0V0Z" fill="white"/>
</mask>
<g mask="url(#mask0_1_198)">
<path fill-rule="evenodd" clip-rule="evenodd" d="M13.6041 10.628C13.6161 9.06911 14.4321 7.63217 15.764 6.81921C14.9241 5.61226 13.5691 4.8703 12.1042 4.8193C10.5413 4.65931 9.10434 5.72926 8.27237 5.72926C7.44441 5.72926 6.27246 4.8393 4.97152 4.8583C3.2456 4.91729 1.67467 5.87825 0.834703 7.39018C-0.926219 10.448 0.381724 14.9988 2.14365 17.4677C2.94461 18.6787 3.94457 20.0496 5.26451 19.9986C6.58445 19.9476 7.01443 19.1787 8.54236 19.1787C10.0733 19.1787 10.5413 19.9986 11.8422 19.9676C13.1432 19.9406 14.0651 18.7297 14.9051 17.5187C15.4991 16.6398 15.963 15.6788 16.284 14.6709C14.6631 13.9799 13.6081 12.39 13.6041 10.628ZM11.0842 3.19037C11.8462 2.30841 12.2292 1.15946 12.1432 -0.00048826C10.9833 0.0935076 9.9053 0.640483 9.14334 1.51944C8.40537 2.37041 8.04538 3.48736 8.14338 4.60831C9.29233 4.62031 10.3773 4.09333 11.0842 3.19037Z" fill="#1D1D1B"/>
</g>
</svg>
