<svg width="24" height="16" viewBox="0 0 24 16" fill="none" xmlns="http://www.w3.org/2000/svg">
<path fill-rule="evenodd" clip-rule="evenodd" d="M0 16H23.9998V0H0V16Z" fill="#F3F3F3"/>
<path fill-rule="evenodd" clip-rule="evenodd" d="M0 3.99953H23.9998V1.99967H0V3.99953ZM0 7.99963H23.9998V5.99995H0V7.99963ZM0 11.9993H23.9998V9.99948H0V11.9993ZM0 15.9994H23.9998V13.9995H0V15.9994Z" fill="#D80027"/>
<path fill-rule="evenodd" clip-rule="evenodd" d="M0 8.61537H11.9999V0H0V8.61537Z" fill="#2E52B2"/>
<path fill-rule="evenodd" clip-rule="evenodd" d="M9.96306 1.38374L9.7697 1.97826H9.14477L9.6505 2.34557L9.45714 2.94012L9.96306 2.57281L10.4686 2.94012L10.2752 2.34557L10.7812 1.97826H10.156L9.96306 1.38374ZM7.32106 1.38374L7.12785 1.97826H6.50277L7.0085 2.34557L6.81533 2.94012L7.32106 2.57281L7.82661 2.94012L7.63344 2.34557L8.13917 1.97826H7.51405L7.32106 1.38374ZM9.96306 3.52934L9.7697 4.1239H9.14477L9.6505 4.49121L9.45714 5.08553L9.96306 4.71841L10.4686 5.08553L10.2752 4.49121L10.7812 4.1239H10.156L9.96306 3.52934ZM10.156 6.2693L9.96306 5.67493L9.7697 6.2693H9.14477L9.6505 6.63661L9.45714 7.23117L9.96306 6.86386L10.4686 7.23117L10.2752 6.63661L10.7812 6.2693H10.156ZM7.51405 6.2693L7.32106 5.67493L7.12785 6.2693H6.50277L7.0085 6.63661L6.81533 7.23117L7.32106 6.86386L7.82661 7.23117L7.63344 6.63661L8.13917 6.2693H7.51405ZM7.32106 3.52934L7.12785 4.1239H6.50277L7.0085 4.49121L6.81533 5.08553L7.32106 4.71841L7.82661 5.08553L7.63344 4.49121L8.13917 4.1239H7.51405L7.32106 3.52934ZM2.03721 1.38374L1.84386 1.97826H1.21874L1.72465 2.34557L1.5313 2.94012L2.03721 2.57281L2.54276 2.94012L2.3494 2.34557L2.85513 1.97826H2.2302L2.03721 1.38374ZM4.67902 1.38374L4.48585 1.97826H3.86073L4.36646 2.34557L4.17329 2.94012L4.67902 2.57281L5.18457 2.94012L4.99139 2.34557L5.49713 1.97826H4.87205L4.67902 1.38374ZM2.03721 3.52934L1.84386 4.1239H1.21874L1.72465 4.49121L1.5313 5.08553L2.03721 4.71841L2.54276 5.08553L2.3494 4.49121L2.85513 4.1239H2.2302L2.03721 3.52934ZM2.2302 6.2693L2.03721 5.67493L1.84386 6.2693H1.21874L1.72465 6.63661L1.5313 7.23117L2.03721 6.86386L2.54276 7.23117L2.3494 6.63661L2.85513 6.2693H2.2302ZM4.87205 6.2693L4.67902 5.67493L4.48585 6.2693H3.86073L4.36646 6.63661L4.17329 7.23117L4.67902 6.86386L5.18457 7.23117L4.99139 6.63661L5.49713 6.2693H4.87205ZM4.67902 3.52934L4.48585 4.1239H3.86073L4.36646 4.49121L4.17329 5.08553L4.67902 4.71841L5.18457 5.08553L4.99139 4.49121L5.49713 4.1239H4.87205L4.67902 3.52934Z" fill="#F3F3F3"/>
</svg>
