<svg width="17" height="13" viewBox="0 0 17 13" fill="none" xmlns="http://www.w3.org/2000/svg">
<path d="M10.6761 8.62958C11.0536 8.22643 11.0328 7.59361 10.6296 7.21613C10.2265 6.83865 9.59365 6.85946 9.21617 7.26261L10.6761 8.62958ZM7.94364 8.53177L8.19346 7.56347L8.18896 7.56233L7.94364 8.53177ZM6.46818 7.05632L7.43763 6.81099L7.43647 6.8065L6.46818 7.05632ZM7.73735 5.78378C8.1405 5.4063 8.16131 4.77348 7.78383 4.37033C7.40635 3.96719 6.77352 3.94638 6.37038 4.32386L7.73735 5.78378ZM6.84155 0.233387C6.30346 0.3578 5.96811 0.894865 6.09252 1.43295C6.21694 1.97104 6.754 2.30639 7.29209 2.18198L6.84155 0.233387ZM16 6.49996L16.8828 6.9697C17.0349 6.68394 17.0392 6.34226 16.8944 6.05274L16 6.49996ZM13.7602 8.03332C13.4054 8.45661 13.461 9.08733 13.8843 9.44208C14.3076 9.79682 14.9383 9.74125 15.293 9.31796L13.7602 8.03332ZM13.156 11.3467C13.5956 11.0124 13.681 10.385 13.3467 9.94537C13.0124 9.50574 12.385 9.42034 11.9454 9.75462L13.156 11.3467ZM8.5 11.9545V12.9545C8.50543 12.9545 8.51086 12.9545 8.51629 12.9544L8.5 11.9545ZM1 6.49996L0.118724 6.02735C-0.0347945 6.31362 -0.0396985 6.65663 0.105573 6.94717L1 6.49996ZM5.05647 3.24386C5.49531 2.90854 5.57922 2.28096 5.2439 1.84212C4.90858 1.40328 4.281 1.31937 3.84216 1.65469L5.05647 3.24386ZM9.21617 7.26261C8.95229 7.54443 8.55996 7.65804 8.19346 7.56348L7.69381 9.50007C8.77549 9.77914 9.91726 9.44002 10.6761 8.62958L9.21617 7.26261ZM8.18896 7.56233C7.82021 7.46902 7.53094 7.17974 7.43762 6.811L5.49874 7.30164C5.77224 8.38244 6.61751 9.22771 7.69831 9.50121L8.18896 7.56233ZM7.43647 6.8065C7.34191 6.43999 7.45552 6.04767 7.73735 5.78378L6.37038 4.32386C5.55993 5.0827 5.22081 6.22446 5.49989 7.30614L7.43647 6.8065ZM7.29209 2.18198C7.68818 2.0904 8.09185 2.04541 8.5 2.04541V0.0454102C7.94406 0.0454102 7.38909 0.106786 6.84155 0.233387L7.29209 2.18198ZM8.5 2.04541C10.4869 2.04541 12.1158 3.18261 13.3102 4.45662C13.8983 5.08391 14.3523 5.71501 14.6593 6.19021C14.8121 6.42685 14.9268 6.62229 15.0019 6.75584C15.0394 6.82255 15.067 6.87361 15.0843 6.90642C15.093 6.92281 15.0991 6.93463 15.1027 6.94153C15.1045 6.94499 15.1056 6.94721 15.1061 6.94816C15.1063 6.94864 15.1064 6.9488 15.1063 6.94864C15.1063 6.94855 15.1062 6.94839 15.1061 6.94815C15.106 6.94802 15.1059 6.94778 15.1058 6.94772C15.1057 6.94745 15.1056 6.94717 16 6.49996C16.8944 6.05274 16.8943 6.05242 16.8941 6.05207C16.894 6.05192 16.8938 6.05155 16.8937 6.05127C16.8934 6.05069 16.8931 6.05003 16.8927 6.04929C16.8919 6.0478 16.891 6.04599 16.8899 6.04384C16.8878 6.03955 16.8849 6.03395 16.8814 6.02708C16.8743 6.01335 16.8645 5.99453 16.8521 5.97098C16.8272 5.92388 16.7914 5.85776 16.7451 5.77532C16.6524 5.61057 16.5168 5.37988 16.3393 5.10516C15.9857 4.55763 15.4596 3.8251 14.7693 3.08874C13.4069 1.63549 11.2859 0.0454102 8.5 0.0454102V2.04541ZM15.1172 6.03021C14.7392 6.74053 14.2826 7.40989 13.7602 8.03332L15.293 9.31796C15.8996 8.59412 16.4358 7.80983 16.8828 6.9697L15.1172 6.03021ZM11.9454 9.75462C10.9478 10.5132 9.73441 10.9343 8.48371 10.9546L8.51629 12.9544C10.1947 12.927 11.8204 12.3622 13.156 11.3467L11.9454 9.75462ZM8.5 10.9545C6.51314 10.9545 4.88416 9.8173 3.68976 8.54329C3.10169 7.91601 2.64765 7.2849 2.34075 6.8097C2.18792 6.57306 2.07321 6.37762 1.99808 6.24407C1.96056 6.17736 1.93303 6.1263 1.91567 6.09349C1.90699 6.0771 1.90087 6.06528 1.89732 6.05838C1.89554 6.05492 1.89441 6.0527 1.89393 6.05175C1.89369 6.05127 1.89361 6.05111 1.89369 6.05128C1.89373 6.05136 1.89382 6.05152 1.89394 6.05176C1.894 6.05189 1.89412 6.05213 1.89415 6.05219C1.89428 6.05246 1.89443 6.05274 1 6.49996C0.105573 6.94717 0.105736 6.9475 0.10591 6.94784C0.105982 6.94799 0.106168 6.94836 0.106312 6.94864C0.106601 6.94922 0.106932 6.94988 0.107306 6.95062C0.108054 6.95211 0.108972 6.95393 0.110059 6.95607C0.112234 6.96036 0.115088 6.96596 0.118619 6.97283C0.12568 6.98656 0.135452 7.00538 0.147916 7.02893C0.172837 7.07603 0.208561 7.14215 0.254934 7.22459C0.347603 7.38934 0.483245 7.62003 0.660671 7.89475C1.01428 8.44228 1.54036 9.17481 2.23069 9.91117C3.59312 11.3644 5.71413 12.9545 8.5 12.9545V10.9545ZM1.88128 6.97256C2.66065 5.51924 3.74463 4.24625 5.05647 3.24386L3.84216 1.65469C2.304 2.83002 1.03299 4.32249 0.118724 6.02735L1.88128 6.97256Z" fill="#545454"/>
</svg>
