<svg width="22" height="20" viewBox="0 0 22 20" fill="none" xmlns="http://www.w3.org/2000/svg">
<path d="M17.6667 1.00001V1.00001C17.9762 1.00001 18.131 1.00001 18.2615 1.01142C19.7118 1.13831 20.8617 2.2882 20.9886 3.73854C21 3.86903 21 4.0238 21 4.33334L21 6.14286C21 6.47698 21 6.64405 20.9234 6.76602C20.8834 6.82962 20.8296 6.8834 20.766 6.92336C20.644 7 20.477 7 20.1429 7L14.3333 7M17.6667 1.00001V1.00001C17.3571 1.00001 17.2024 1.00001 17.0719 1.01142C15.6215 1.13831 14.4716 2.2882 14.3447 3.73854C14.3333 3.86903 14.3333 4.0238 14.3333 4.33334L14.3333 7M17.6667 1.00001L5 1.00001C3.11438 1.00001 2.17157 1.00001 1.58579 1.58579C0.999999 2.17158 0.999999 3.11439 0.999999 5.00001L1 19L4.33333 18L7.66667 19L11 18L14.3333 19L14.3333 7" stroke="white" stroke-width="1.5"/>
</svg>
