<svg width="24" height="24" viewBox="0 0 24 24" fill="none" xmlns="http://www.w3.org/2000/svg">
<path d="M15.6002 14.5215C13.2052 17.0421 7.09606 10.9878 9.50019 8.45753C10.9681 6.91263 9.30988 5.14707 8.39205 3.84934C6.66948 1.41378 2.88796 4.77641 3.0028 6.91544C3.36497 13.6609 10.6618 21.6546 17.7278 20.9574C19.9383 20.7393 22.4781 16.7471 19.9426 15.2882C18.6747 14.5587 16.9345 13.1172 15.6002 14.5215Z" stroke="#0961F5" stroke-width="1.5" stroke-linecap="round" stroke-linejoin="round"/>
<path d="M14 3C15.8565 3 17.637 3.7375 18.9497 5.05025C20.2625 6.36301 21 8.14348 21 10" stroke="#0961F5" stroke-width="1.5" stroke-linecap="round" stroke-linejoin="round"/>
<path d="M14 7C14.7956 7 15.5587 7.31607 16.1213 7.87868C16.6839 8.44129 17 9.20435 17 10" stroke="#0961F5" stroke-width="1.5" stroke-linecap="round" stroke-linejoin="round"/>
</svg>
