<svg width="9" height="16" viewBox="0 0 9 16" fill="none" xmlns="http://www.w3.org/2000/svg">
<path fill-rule="evenodd" clip-rule="evenodd" d="M8.02542 13.7581H4.02542C2.72842 13.7541 1.67742 12.7071 1.66942 11.4101V3.45305C1.66942 3.01905 1.86542 2.60905 2.19742 2.33205L2.90442 1.80805C3.16242 1.53505 3.18542 1.11705 2.96642 0.812054C2.74442 0.508054 2.33742 0.406054 1.99842 0.566054L1.27942 1.10505C0.548424 1.66805 0.119424 2.53105 0.103424 3.45305V11.4181C0.107424 13.5821 1.86142 15.3361 4.02542 15.3401H8.02542C8.45842 15.3401 8.80642 14.9881 8.80642 14.5591C8.80642 14.1251 8.45842 13.7741 8.02542 13.7741V13.7581Z" fill="white"/>
</svg>
