<svg width="15" height="21" viewBox="0 0 15 21" fill="none" xmlns="http://www.w3.org/2000/svg">
<path fill-rule="evenodd" clip-rule="evenodd" d="M14.8966 8.43425C14.8846 7.52325 14.4666 6.66025 13.7556 6.08625L7.7486 1.29725C6.4276 0.23425 4.5446 0.23425 3.2246 1.29725L1.3226 2.68025C0.962597 2.93725 0.880597 3.43425 1.1386 3.79325C1.3966 4.14825 1.8926 4.23025 2.2516 3.97325L4.1816 2.53125C4.9396 1.90625 6.0336 1.90625 6.7916 2.53125L12.7986 7.32025C13.1466 7.59825 13.3496 8.01225 13.3576 8.45325V16.4183C13.3576 17.7153 12.3026 18.7663 11.0096 18.7663H9.2246C9.0416 18.7663 8.8966 18.6172 8.8966 18.4342V14.8442C8.8966 13.6992 7.9706 12.7692 6.8266 12.7662H4.2166C3.6656 12.7662 3.1386 12.9842 2.7486 13.3752C2.3576 13.7662 2.1386 14.2932 2.1386 14.8442V16.2192C2.1386 16.6482 2.4906 17.0002 2.9196 17.0002C3.3536 17.0002 3.7056 16.6482 3.7056 16.2192V14.8442C3.7016 14.7072 3.7516 14.5783 3.8496 14.4803C3.9436 14.3873 4.0726 14.3322 4.2086 14.3322H6.8186C7.0956 14.3322 7.3226 14.5593 7.3226 14.8363V18.4342C7.3266 19.4842 8.1776 20.3323 9.2246 20.3323H10.9626C13.1306 20.3323 14.8846 18.5742 14.8846 16.4102L14.8966 8.43425Z" fill="white"/>
</svg>
