<svg width="24" height="24" viewBox="0 0 24 24" fill="none" xmlns="http://www.w3.org/2000/svg">
<path d="M20.839 10.38H12.183V13.71H17.2477C17.1556 14.52 16.6031 15.78 15.406 16.59C14.6693 17.13 13.5643 17.49 12.183 17.49C9.10409 17.49 6.65793 14.918 6.65793 11.91C6.65793 8.98727 9.243 6.42 12.183 6.42C13.9326 6.42 15.0376 7.14 15.7743 7.77L18.3527 5.25C16.7873 3.9 14.6693 3 12.183 3C8.59171 3 5.46083 4.98 3.98747 7.95C2.67084 10.5236 2.67084 13.4764 3.98747 16.05C5.46083 19.02 8.59171 21 12.183 21C14.6693 21 16.7873 20.19 18.2606 18.84C20.6615 16.7405 21.3561 13.4127 20.839 10.38Z" stroke="#0961F5" stroke-width="1.5" stroke-miterlimit="10" stroke-linecap="round" stroke-linejoin="round"/>
</svg>
