<svg width="16" height="19" viewBox="0 0 16 19" fill="none" xmlns="http://www.w3.org/2000/svg">
<path fill-rule="evenodd" clip-rule="evenodd" d="M7.96759 0.0724755C10.8305 0.0724755 14.0412 2.0905 14.404 5.33295V7.02272C14.528 7.63073 14.8162 8.19959 15.2312 8.66213C15.2563 8.69104 15.2797 8.71995 15.2964 8.75352C15.676 9.32517 15.8942 9.98447 15.9268 10.6652L15.9017 10.8368C15.9306 11.7694 15.621 12.6833 15.0232 13.405C14.266 14.2247 13.2281 14.7386 12.1127 14.844C9.36267 15.1424 6.58649 15.1424 3.84016 14.844C2.73975 14.7311 1.72049 14.2173 0.977249 13.405C0.372028 12.6944 0.0521661 11.7843 0.0736146 10.8555V10.7389C0.121174 10.0395 0.35431 9.36153 0.754371 8.7787L0.820581 8.69477C1.23556 8.22849 1.51999 7.66431 1.64775 7.05536V5.36559L1.69064 5.27047C1.83332 5.02987 2.10283 4.89186 2.38632 4.92077C2.70339 4.95713 2.96263 5.19773 3.01299 5.51106V7.20177V7.29222C2.8386 8.14084 2.44507 8.9279 1.86969 9.57322C1.64775 9.92572 1.52372 10.3267 1.50507 10.7389V10.9207C1.48735 11.4999 1.68039 12.0678 2.05154 12.5201C2.56537 13.0479 3.25359 13.3724 3.98936 13.4377C6.64897 13.7258 9.3347 13.7258 11.9962 13.4377C12.7543 13.3687 13.4584 13.0302 13.9741 12.48C14.3275 12.0389 14.5103 11.4887 14.4954 10.9282V10.7389C14.4767 10.323 14.3574 9.92292 14.1382 9.56576C13.5414 8.92417 13.1218 8.13711 12.9324 7.28476C12.9287 7.25585 12.9287 7.22321 12.9324 7.1943V5.49614C12.6919 3.01931 10.201 1.48248 8.03287 1.48248C7.11152 1.48248 6.20415 1.71562 5.4031 2.16324L5.30425 2.21453C5.10095 2.29473 4.87155 2.2798 4.67851 2.1707C4.45563 2.03921 4.31762 1.79954 4.32508 1.54403C4.33161 1.28571 4.47801 1.05258 4.70742 0.93601C5.70151 0.374619 6.82336 0.0799358 7.96759 0.0724755ZM9.53053 16.4573C9.78885 16.2241 10.1861 16.2101 10.4631 16.4395C10.7652 16.6867 10.809 17.1352 10.5573 17.4336C9.93805 18.2384 8.98126 18.7121 7.96013 18.7233L7.7559 18.7159C6.8159 18.6469 5.94584 18.1843 5.37046 17.4336L5.30798 17.3497C5.12986 17.055 5.18768 16.6652 5.46464 16.4395C5.76679 16.1877 6.21907 16.2316 6.46993 16.5337C6.57997 16.6801 6.71052 16.807 6.85973 16.9161C7.25326 17.2079 7.74844 17.332 8.23336 17.2592C8.72202 17.1865 9.15845 16.9273 9.45127 16.5337H9.45779L9.53053 16.4573Z" fill="#0961F5"/>
<path d="M14.404 5.33295H14.477L14.4761 5.32489L14.404 5.33295ZM14.404 7.02272H14.33L14.3329 7.03721L14.404 7.02272ZM15.2312 8.66213L15.2859 8.61449L15.2852 8.61369L15.2312 8.66213ZM15.2964 8.75352L15.2311 8.7862L15.236 8.79364L15.2964 8.75352ZM15.9268 10.6652L16 10.676L15.9993 10.6618L15.9268 10.6652ZM15.9017 10.8368L15.8288 10.8261L15.8292 10.8391L15.9017 10.8368ZM15.0232 13.405L15.0766 13.4543L15.0791 13.4513L15.0232 13.405ZM12.1127 14.844L12.1059 14.7717L12.1049 14.7718L12.1127 14.844ZM3.84016 14.844L3.84799 14.7718L3.84755 14.7718L3.84016 14.844ZM0.977249 13.405L0.921996 13.4521L0.923739 13.454L0.977249 13.405ZM0.0736146 10.8555L0.146146 10.8571V10.8555H0.0736146ZM0.0736146 10.7389L0.00108347 10.734V10.7389H0.0736146ZM0.754371 8.7787L0.6973 8.73367L0.694571 8.73765L0.754371 8.7787ZM0.820581 8.69477L0.766305 8.64646L0.763637 8.64984L0.820581 8.69477ZM1.64775 7.05536L1.71873 7.07025L1.72028 7.06288V7.05536H1.64775ZM1.64775 5.36559L1.58163 5.33577L1.57522 5.34999V5.36559H1.64775ZM1.69064 5.27047L1.62787 5.23324L1.62453 5.24065L1.69064 5.27047ZM2.38632 4.92077L2.39459 4.8487L2.39368 4.84861L2.38632 4.92077ZM3.01299 5.51106H3.08645L3.0846 5.49956L3.01299 5.51106ZM3.01299 7.29222L3.08404 7.30682L3.08552 7.2996V7.29222H3.01299ZM1.86969 9.57322L1.8148 9.52428L1.80831 9.53458L1.86969 9.57322ZM1.50507 10.7389L1.43254 10.7356V10.7389H1.50507ZM1.50507 10.9207L1.5776 10.923V10.9207H1.50507ZM2.05154 12.5201L1.99527 12.5662L1.99957 12.5707L2.05154 12.5201ZM3.98936 13.4377L3.99718 13.3656L3.99577 13.3654L3.98936 13.4377ZM11.9962 13.4377L11.9896 13.3654L11.9884 13.3656L11.9962 13.4377ZM13.9741 12.48L14.0272 12.5297L14.0307 12.5253L13.9741 12.48ZM14.4954 10.9282H14.4228L14.4229 10.9301L14.4954 10.9282ZM14.4954 10.7389H14.568L14.5678 10.7357L14.4954 10.7389ZM14.1382 9.56576L14.2013 9.52707L14.1913 9.51636L14.1382 9.56576ZM12.9324 7.28476L12.8602 7.29408L12.8616 7.30049L12.9324 7.28476ZM12.9324 7.1943L13.005 7.20366V7.1943H12.9324ZM12.9324 5.49614H13.0053L13.0046 5.48913L12.9324 5.49614ZM5.4031 2.16324L5.43652 2.22765L5.43848 2.22655L5.4031 2.16324ZM5.30425 2.21453L5.33101 2.28236L5.33765 2.27891L5.30425 2.21453ZM4.67851 2.1707L4.64165 2.23318L4.64282 2.23384L4.67851 2.1707ZM4.32508 1.54403L4.39758 1.54614L4.39759 1.54586L4.32508 1.54403ZM4.70742 0.93601L4.74031 1.00073L4.74309 0.999166L4.70742 0.93601ZM9.53053 16.4573L9.48179 16.4033L9.47798 16.4073L9.53053 16.4573ZM10.4631 16.4395L10.4168 16.4954L10.4172 16.4957L10.4631 16.4395ZM10.5573 17.4336L10.5018 17.3868L10.4998 17.3894L10.5573 17.4336ZM7.96013 18.7233L7.95748 18.7959L7.96092 18.7959L7.96013 18.7233ZM7.7559 18.7159L7.75059 18.7883L7.75325 18.7884L7.7559 18.7159ZM5.37046 17.4336L5.31227 17.4769L5.31289 17.4777L5.37046 17.4336ZM5.30798 17.3497L5.24562 17.3874L5.2498 17.393L5.30798 17.3497ZM5.46464 16.4395L5.51046 16.4958L5.51108 16.4953L5.46464 16.4395ZM6.46993 16.5337L6.52797 16.4901L6.52573 16.4874L6.46993 16.5337ZM6.85973 16.9161L6.90294 16.8578L6.90254 16.8575L6.85973 16.9161ZM8.23336 17.2592L8.22269 17.1875L8.2226 17.1875L8.23336 17.2592ZM9.45127 16.5337V16.4612H9.41483L9.39308 16.4904L9.45127 16.5337ZM9.45779 16.5337V16.6063H9.4889L9.51035 16.5837L9.45779 16.5337ZM7.96759 0.145007C10.8049 0.145007 13.9744 2.1455 14.3319 5.34101L14.4761 5.32489C14.1081 2.03549 10.8561 -5.56534e-05 7.96759 -5.56534e-05V0.145007ZM14.3315 5.33295V7.02272H14.4765V5.33295H14.3315ZM14.3329 7.03721C14.4596 7.658 14.7537 8.23854 15.1772 8.71056L15.2852 8.61369C14.8787 8.16063 14.5965 7.60347 14.4751 7.00822L14.3329 7.03721ZM15.1765 8.70976C15.201 8.73791 15.2191 8.76107 15.2316 8.78595L15.3613 8.72108C15.3402 8.67882 15.3117 8.64416 15.2859 8.61449L15.1765 8.70976ZM15.236 8.79364C15.6084 9.35453 15.8224 10.0012 15.8544 10.6687L15.9993 10.6618C15.966 9.96774 15.7436 9.2958 15.3569 8.7134L15.236 8.79364ZM15.8551 10.6547L15.8299 10.8263L15.9734 10.8473L15.9986 10.6758L15.8551 10.6547ZM15.8292 10.8391C15.8575 11.7541 15.5537 12.6507 14.9673 13.3588L15.0791 13.4513C15.6882 12.7158 16.0036 11.7846 15.9742 10.8346L15.8292 10.8391ZM14.9699 13.3558C14.2249 14.1624 13.2035 14.668 12.1059 14.7717L12.1196 14.9162C13.2526 14.8091 14.3071 14.2871 15.0765 13.4543L14.9699 13.3558ZM12.1049 14.7718C9.36005 15.0697 6.58912 15.0697 3.84799 14.7718L3.83232 14.9161C6.58387 15.215 9.3653 15.215 12.1206 14.9161L12.1049 14.7718ZM3.84755 14.7718C2.76486 14.6608 1.76199 14.1552 1.03076 13.3561L0.923739 13.454C1.67898 14.2794 2.71465 14.8015 3.83276 14.9161L3.84755 14.7718ZM1.03247 13.358C0.438882 12.6611 0.125086 11.7683 0.146126 10.8571L0.0011028 10.8538C-0.0207538 11.8003 0.305175 12.7278 0.922031 13.4521L1.03247 13.358ZM0.146146 10.8555V10.7389H0.00108347V10.8555H0.146146ZM0.145979 10.7438C0.192666 10.0572 0.421525 9.39178 0.81417 8.81974L0.694571 8.73765C0.287095 9.33129 0.0496823 10.0217 0.00125058 10.734L0.145979 10.7438ZM0.811316 8.82362L0.877526 8.73969L0.763637 8.64984L0.697426 8.73377L0.811316 8.82362ZM0.874762 8.74299C1.29815 8.26727 1.58837 7.6916 1.71873 7.07025L1.57676 7.04046C1.4516 7.63701 1.17298 8.18971 0.766401 8.64654L0.874762 8.74299ZM1.72028 7.05536V5.36559H1.57522V7.05536H1.72028ZM1.71387 5.39541L1.75676 5.30029L1.62453 5.24065L1.58163 5.33577L1.71387 5.39541ZM1.75303 5.30747C1.88135 5.09108 2.12369 4.96689 2.37896 4.99292L2.39368 4.84861C2.08197 4.81682 1.7853 4.96866 1.62826 5.23347L1.75303 5.30747ZM2.37806 4.99282C2.66397 5.02562 2.89636 5.24247 2.94138 5.52257L3.0846 5.49956C3.0289 5.153 2.7428 4.88865 2.39459 4.84871L2.37806 4.99282ZM2.94046 5.51106V7.20177H3.08552V5.51106H2.94046ZM2.94046 7.20177V7.29222H3.08552V7.20177H2.94046ZM2.94194 7.27762C2.77011 8.11382 2.38236 8.88925 1.81556 9.52495L1.92383 9.62149C2.50778 8.96656 2.9071 8.16785 3.08404 7.30682L2.94194 7.27762ZM1.80831 9.53458C1.57961 9.89781 1.45182 10.311 1.43261 10.7356L1.57752 10.7422C1.59561 10.3424 1.71588 9.95363 1.93107 9.61187L1.80831 9.53458ZM1.43254 10.7389V10.9207H1.5776V10.7389H1.43254ZM1.43257 10.9185C1.41431 11.5152 1.61322 12.1003 1.99547 12.5661L2.10761 12.474C1.74755 12.0353 1.56038 11.4845 1.57756 10.923L1.43257 10.9185ZM1.99957 12.5707C2.52564 13.111 3.23008 13.4431 3.98295 13.5099L3.99577 13.3654C3.2771 13.3017 2.6051 12.9847 2.10351 12.4695L1.99957 12.5707ZM3.98155 13.5098C6.64636 13.7985 9.33732 13.7985 12.004 13.5098L11.9884 13.3656C9.33208 13.6532 6.65159 13.6532 3.99717 13.3656L3.98155 13.5098ZM12.0027 13.5099C12.7782 13.4393 13.4989 13.093 14.027 12.5296L13.9212 12.4304C13.4179 12.9673 12.7305 13.298 11.9896 13.3654L12.0027 13.5099ZM14.0307 12.5253C14.3949 12.0707 14.5833 11.5038 14.5679 10.9263L14.4229 10.9301C14.4374 11.4736 14.2601 12.007 13.9175 12.4346L14.0307 12.5253ZM14.5679 10.9282V10.7389H14.4229V10.9282H14.5679ZM14.5678 10.7357C14.5487 10.3078 14.4258 9.89576 14.2 9.52783L14.0764 9.60369C14.2889 9.95009 14.4048 10.3382 14.4229 10.7421L14.5678 10.7357ZM14.1913 9.51636C13.6031 8.88398 13.1897 8.10846 13.0033 7.26904L12.8616 7.30049C13.0538 8.16575 13.4797 8.96437 14.0851 9.61516L14.1913 9.51636ZM13.0044 7.27548C13.0014 7.25273 13.0014 7.22633 13.0044 7.20359L12.8605 7.18502C12.856 7.22009 12.856 7.25897 12.8605 7.29404L13.0044 7.27548ZM13.005 7.1943V5.49614H12.8599V7.1943H13.005ZM13.0046 5.48913C12.7593 2.9637 10.2256 1.40995 8.03287 1.40995V1.55501C10.1764 1.55501 12.6244 3.07492 12.8603 5.50316L13.0046 5.48913ZM8.03287 1.40995C7.09932 1.40995 6.17975 1.64616 5.36772 2.09992L5.43848 2.22655C6.22855 1.78507 7.12371 1.55501 8.03287 1.55501V1.40995ZM5.36969 2.09886L5.27084 2.15015L5.33765 2.27891L5.4365 2.22762L5.36969 2.09886ZM5.27763 2.14706C5.09462 2.21925 4.88811 2.20585 4.7142 2.10755L4.64282 2.23384C4.85498 2.35376 5.10729 2.3702 5.33086 2.282L5.27763 2.14706ZM4.71537 2.10823C4.5141 1.98949 4.39093 1.77395 4.39758 1.54614L4.25258 1.54191C4.24431 1.82514 4.39716 2.08893 4.64166 2.23317L4.71537 2.10823ZM4.39759 1.54586C4.40345 1.31398 4.5348 1.10508 4.74028 1.00067L4.67456 0.871348C4.42122 1.00008 4.25976 1.25745 4.25257 1.5422L4.39759 1.54586ZM4.74309 0.999166C5.72627 0.443935 6.83598 0.152386 7.96806 0.145005L7.96712 -5.41094e-05C6.81074 0.00748543 5.67675 0.305303 4.67175 0.872854L4.74309 0.999166ZM9.57913 16.5111C9.81095 16.3019 10.1678 16.2892 10.4168 16.4954L10.5093 16.3837C10.2044 16.1311 9.76674 16.1464 9.48194 16.4034L9.57913 16.5111ZM10.4172 16.4957C10.6883 16.7174 10.7272 17.1197 10.5018 17.3869L10.6127 17.4804C10.8909 17.1507 10.8421 16.6559 10.509 16.3834L10.4172 16.4957ZM10.4998 17.3894C9.89428 18.1764 8.95849 18.6399 7.95933 18.6508L7.96092 18.7959C9.00404 18.7844 9.98182 18.3005 10.6147 17.4779L10.4998 17.3894ZM7.96278 18.6508L7.75855 18.6434L7.75325 18.7884L7.95748 18.7958L7.96278 18.6508ZM7.76121 18.6435C6.84153 18.576 5.99061 18.1235 5.42802 17.3895L5.31289 17.4777C5.90106 18.2451 6.79027 18.7177 7.75059 18.7882L7.76121 18.6435ZM5.42864 17.3903L5.36616 17.3064L5.2498 17.393L5.31228 17.4769L5.42864 17.3903ZM5.37005 17.3122C5.21009 17.0475 5.26233 16.6979 5.51046 16.4958L5.41883 16.3833C5.11303 16.6325 5.04964 17.0625 5.2459 17.3872L5.37005 17.3122ZM5.51108 16.4953C5.78211 16.2694 6.18864 16.3085 6.41412 16.5801L6.52573 16.4874C6.2495 16.1547 5.75147 16.1061 5.41821 16.3838L5.51108 16.4953ZM6.41195 16.5773C6.52653 16.7297 6.66229 16.8615 6.81692 16.9746L6.90254 16.8575C6.75876 16.7524 6.63341 16.6305 6.52791 16.4901L6.41195 16.5773ZM6.81652 16.9743C7.22551 17.2777 7.7401 17.4066 8.24412 17.331L8.2226 17.1875C7.75678 17.2574 7.28101 17.1382 6.90294 16.8578L6.81652 16.9743ZM8.24404 17.331C8.75141 17.2555 9.20503 16.9862 9.50945 16.577L9.39308 16.4904C9.11186 16.8684 8.69262 17.1175 8.22269 17.1875L8.24404 17.331ZM9.45127 16.6063H9.45779V16.4612H9.45127V16.6063ZM9.51035 16.5837L9.58308 16.5072L9.47798 16.4073L9.40524 16.4837L9.51035 16.5837Z" fill="#0961F5"/>
</svg>
