<svg width="24" height="16" viewBox="0 0 24 16" fill="none" xmlns="http://www.w3.org/2000/svg">
<path fill-rule="evenodd" clip-rule="evenodd" d="M0 15.9999H23.9997V0H0V15.9999Z" fill="#F3F3F3"/>
<path fill-rule="evenodd" clip-rule="evenodd" d="M0 3.99958H23.9997V1.99972H0V3.99958ZM0 7.99966H23.9997V5.99999H0V7.99966ZM0 11.9994H23.9997V9.99951H0V11.9994ZM0 15.9994H23.9997V13.9995H0V15.9994Z" fill="#D80027"/>
<path fill-rule="evenodd" clip-rule="evenodd" d="M0 8.61534H11.9999V0H0V8.61534Z" fill="#2E52B2"/>
<path fill-rule="evenodd" clip-rule="evenodd" d="M9.96296 1.38379L9.7696 1.97829H9.14467L9.6504 2.3456L9.45704 2.94016L9.96296 2.57285L10.4685 2.94016L10.2751 2.3456L10.7811 1.97829H10.1559L9.96296 1.38379ZM7.32098 1.38379L7.12776 1.97829H6.50269L7.00842 2.3456L6.81525 2.94016L7.32098 2.57285L7.82652 2.94016L7.63335 2.3456L8.13908 1.97829H7.51396L7.32098 1.38379ZM9.96296 3.52937L9.7696 4.12393H9.14467L9.6504 4.49123L9.45704 5.08555L9.96296 4.71843L10.4685 5.08555L10.2751 4.49123L10.7811 4.12393H10.1559L9.96296 3.52937ZM10.1559 6.26932L9.96296 5.67495L9.7696 6.26932H9.14467L9.6504 6.63663L9.45704 7.23119L9.96296 6.86388L10.4685 7.23119L10.2751 6.63663L10.7811 6.26932H10.1559ZM7.51396 6.26932L7.32098 5.67495L7.12776 6.26932H6.50269L7.00842 6.63663L6.81525 7.23119L7.32098 6.86388L7.82652 7.23119L7.63335 6.63663L8.13908 6.26932H7.51396ZM7.32098 3.52937L7.12776 4.12393H6.50269L7.00842 4.49123L6.81525 5.08555L7.32098 4.71843L7.82652 5.08555L7.63335 4.49123L8.13908 4.12393H7.51396L7.32098 3.52937ZM2.03715 1.38379L1.84379 1.97829H1.21867L1.72459 2.3456L1.53123 2.94016L2.03715 2.57285L2.54269 2.94016L2.34933 2.3456L2.85506 1.97829H2.23013L2.03715 1.38379ZM4.67894 1.38379L4.48577 1.97829H3.86066L4.36638 2.3456L4.17321 2.94016L4.67894 2.57285L5.18448 2.94016L4.99131 2.3456L5.49704 1.97829H4.87197L4.67894 1.38379ZM2.03715 3.52937L1.84379 4.12393H1.21867L1.72459 4.49123L1.53123 5.08555L2.03715 4.71843L2.54269 5.08555L2.34933 4.49123L2.85506 4.12393H2.23013L2.03715 3.52937ZM2.23013 6.26932L2.03715 5.67495L1.84379 6.26932H1.21867L1.72459 6.63663L1.53123 7.23119L2.03715 6.86388L2.54269 7.23119L2.34933 6.63663L2.85506 6.26932H2.23013ZM4.87197 6.26932L4.67894 5.67495L4.48577 6.26932H3.86066L4.36638 6.63663L4.17321 7.23119L4.67894 6.86388L5.18448 7.23119L4.99131 6.63663L5.49704 6.26932H4.87197ZM4.67894 3.52937L4.48577 4.12393H3.86066L4.36638 4.49123L4.17321 5.08555L4.67894 4.71843L5.18448 5.08555L4.99131 4.49123L5.49704 4.12393H4.87197L4.67894 3.52937Z" fill="#F3F3F3"/>
</svg>
