<svg width="18" height="23" viewBox="0 0 18 23" fill="none" xmlns="http://www.w3.org/2000/svg">
<path fill-rule="evenodd" clip-rule="evenodd" d="M12.9679 0H5.20762C2.00812 0 0 2.232 0 5.8185V20.6145C0 21.6562 0.82575 22.5 1.84162 22.5C2.14875 22.5 2.4525 22.4212 2.72475 22.2716L9.03938 18.765L16.3913 22.293C16.5893 22.3774 16.8131 22.3774 17.0156 22.293C17.2125 22.2097 17.3711 22.0478 17.4544 21.8452C17.5781 21.4673 17.4285 21.0544 17.0989 20.8519L9.79537 17.3587C9.315 17.0865 8.74125 17.0865 8.262 17.3587L1.93837 20.8519C1.8675 20.8912 1.77975 20.8912 1.7055 20.8519C1.63912 20.808 1.59975 20.7292 1.59975 20.6415V5.8185C1.60875 3.168 2.90925 1.65712 5.23687 1.65712H12.9938C15.9829 1.65712 16.4171 4.14 16.4171 5.6295V6.30562H8.02013C7.80863 6.31462 7.60725 6.40688 7.45763 6.5655C7.3125 6.7275 7.23825 6.939 7.24612 7.15837C7.254 7.59375 7.59825 7.94137 8.02013 7.95375H16.3913V16.6421C16.3913 17.0944 16.7513 17.4634 17.1956 17.4634C17.6344 17.4634 17.9955 17.1034 18 16.6511V5.6295C18 2.15325 16.0796 0 12.9679 0Z" fill="#0961F5"/>
</svg>
