<svg width="19" height="22" viewBox="0 0 19 22" fill="none" xmlns="http://www.w3.org/2000/svg">
<path d="M5.10375 11.2355H14.3553M5.10375 17.3489H12.1677M5.10375 14.287H10.5255M1.85291 0.767442C1.5625 0.774271 1.28642 0.887567 1.08362 1.08315C0.880817 1.27873 0.767351 1.5411 0.767442 1.81425V20.1857C0.767351 20.4589 0.880817 20.7213 1.08362 20.9169C1.28642 21.1124 1.5625 21.2257 1.85291 21.2326H17.0495C17.3448 21.2326 17.6279 21.1223 17.8367 20.926C18.0455 20.7296 18.1628 20.4634 18.1628 20.1857V1.78808C18.1555 1.51501 18.035 1.25543 17.827 1.06474C17.619 0.874046 17.34 0.767357 17.0495 0.767442H15.9362V5.38387L13.7875 3.33736L11.6277 5.38387V0.767442H1.85291Z" stroke="black" stroke-width="1.5" stroke-linecap="round" stroke-linejoin="round"/>
</svg>
