<svg width="19" height="24" viewBox="0 0 19 24" fill="none" xmlns="http://www.w3.org/2000/svg">
<path fill-rule="evenodd" clip-rule="evenodd" d="M9.49127 1.81855C8.28946 1.8138 7.13991 2.29238 6.2908 3.14505C5.4417 3.99891 4.9643 5.15915 4.9643 6.36452C4.95955 8.20643 6.05923 9.87139 7.7515 10.5815C9.44021 11.287 11.389 10.9022 12.687 9.59825C13.9814 8.29906 14.371 6.33721 13.6715 4.63425C12.9708 2.93248 11.3189 1.81855 9.49127 1.81855ZM7.08409 0.482542C9.44496 -0.500758 12.168 0.0467073 13.9719 1.86961C15.7818 3.68777 16.3197 6.42984 15.3364 8.80496C14.3579 11.1848 12.0469 12.7346 9.49128 12.7298C6.00341 12.7203 3.17821 9.87614 3.17821 6.36453L3.18771 6.09139C3.28984 3.62482 4.80635 1.43378 7.08409 0.482542ZM6.98671 15.1608C8.69324 15.0171 10.4104 15.0171 12.117 15.1608C13.0492 15.2261 13.9767 15.3603 14.8864 15.5693C16.8577 15.9683 18.1474 16.7521 18.6854 17.9017C19.1164 18.8529 19.1034 19.9526 18.6533 20.8991C18.1058 22.0498 16.8161 22.8336 14.8115 23.2421C13.9078 23.4452 12.9839 23.5758 12.0517 23.6364C11.0268 23.7516 10.1551 23.7516 9.34283 23.7516H9.02338C8.56379 23.7005 8.21584 23.311 8.21584 22.8479C8.21584 22.3835 8.56379 21.994 9.02338 21.9429H9.73235C10.4425 21.9334 11.161 21.9014 11.8759 21.8408C12.7202 21.785 13.5599 21.6639 14.39 21.4833C15.8091 21.1722 16.7045 20.7221 16.9836 20.1248C17.2009 19.6699 17.2009 19.1403 16.9836 18.6866C16.7045 18.0786 15.8091 17.6095 14.4173 17.3269C13.5777 17.1369 12.725 17.011 11.8664 16.9599C10.262 16.8115 8.64692 16.8115 7.04253 16.9599C6.19342 17.0157 5.34907 17.1321 4.51896 17.3126C3.09389 17.6285 2.21272 18.0786 1.92533 18.6724C1.81845 18.8992 1.76739 19.145 1.76739 19.3956C1.76739 19.6462 1.81845 19.8968 1.92533 20.1248C2.41698 20.8064 3.16871 21.247 3.99881 21.3492L4.11994 21.3812C4.39308 21.4738 4.60684 21.6971 4.68997 21.9845C4.78735 22.304 4.69472 22.6567 4.45365 22.8942C4.21257 23.1305 3.85987 23.2089 3.54398 23.102C2.20322 22.8847 1.02991 22.0819 0.334001 20.9086C-0.111334 19.9621 -0.111334 18.8577 0.334001 17.9112C0.886217 16.7284 2.17116 15.9683 4.15676 15.5598C5.08899 15.3555 6.03548 15.2261 6.98671 15.1608Z" fill="#202244"/>
</svg>
