<svg width="18" height="20" viewBox="0 0 18 20" fill="none" xmlns="http://www.w3.org/2000/svg">
<path fill-rule="evenodd" clip-rule="evenodd" d="M5.23781 0.105639C5.5938 0.105639 5.89078 0.379629 5.92978 0.734616V1.69958H9.85964C10.2416 1.69958 10.5466 2.01257 10.5466 2.39855C10.5466 2.78554 10.2416 3.09853 9.85964 3.09853H5.91378V3.7975C5.91378 3.9805 5.83979 4.16049 5.70679 4.29349C5.5778 4.42648 5.4018 4.49648 5.21881 4.49648L5.11681 4.48448C4.78882 4.42648 4.54283 4.13349 4.54683 3.7855V0.734616L4.56583 0.62962C4.64783 0.324631 4.92182 0.105639 5.23781 0.105639ZM4.84782 10.6133L4.95682 10.6213C5.14781 10.6453 5.3278 10.7342 5.4648 10.8712C5.62879 11.0392 5.72279 11.2622 5.72279 11.5002C5.72279 11.9882 5.3318 12.3832 4.85182 12.3832C4.37084 12.3832 3.98385 11.9882 3.98385 11.5002C3.98385 11.0122 4.37084 10.6133 4.85182 10.6133H4.84782ZM9.01567 10.6133L9.12467 10.6213C9.55465 10.6763 9.88664 11.0472 9.88664 11.5002C9.88664 11.9882 9.49565 12.3832 9.01567 12.3832C8.53869 12.3832 8.1477 11.9882 8.1477 11.5002C8.1477 11.0122 8.53869 10.6133 9.01567 10.6133ZM13.1875 10.6133L13.2965 10.6213C13.4875 10.6453 13.6635 10.7342 13.8045 10.8712C13.9685 11.0392 14.0625 11.2622 14.0625 11.5002C14.0625 11.9882 13.6715 12.3832 13.1915 12.3832C12.7105 12.3832 12.3205 11.9882 12.3205 11.5002C12.3205 11.0122 12.7105 10.6133 13.1915 10.6133H13.1875ZM4.84782 14.1951L4.95682 14.2031C5.14781 14.2271 5.3278 14.3161 5.4648 14.4531C5.62879 14.6211 5.72279 14.8481 5.72279 15.0821C5.72279 15.5701 5.3318 15.9651 4.85182 15.9651C4.37084 15.9651 3.98385 15.5701 3.98385 15.0821C3.98385 14.5941 4.37084 14.1991 4.85182 14.1991L4.84782 14.1951ZM9.01567 14.1991L9.12467 14.2031C9.55465 14.2581 9.88664 14.6331 9.88664 15.0821C9.88664 15.5701 9.49565 15.9651 9.01567 15.9651C8.53869 15.9651 8.1477 15.5701 8.1477 15.0821C8.1477 14.5941 8.53869 14.1991 9.01567 14.1991ZM13.1875 14.1951L13.2965 14.2031C13.4875 14.2271 13.6635 14.3161 13.8045 14.4531C13.9685 14.6211 14.0625 14.8481 14.0625 15.0821C14.0625 15.5701 13.6715 15.9651 13.1915 15.9651C12.7105 15.9651 12.3205 15.5701 12.3205 15.0821C12.3205 14.5941 12.7105 14.1991 13.1915 14.1991L13.1875 14.1951ZM12.7925 0.000642579C13.1715 0.0236417 13.4605 0.34863 13.4525 0.734616V1.77058C16.4604 2.06257 17.9993 3.72751 17.9993 6.7154V14.9841C17.9993 18.313 16.1054 19.9999 12.3745 19.9999H5.62479C1.89493 19.9999 0 18.313 0 14.9841V6.7154C0 4.72347 0.679975 3.30152 2.06992 2.46955L2.16792 2.41455C2.36691 2.32056 2.6049 2.32856 2.8009 2.44155C3.03089 2.57455 3.16788 2.82854 3.15188 3.09853C3.13688 3.36352 2.97289 3.60251 2.7299 3.70751C1.80893 4.25449 1.37495 5.21145 1.37495 6.7154V6.98039H14.0625C14.4415 6.98039 14.7455 7.29338 14.7455 7.68036C14.7455 8.06635 14.4415 8.37934 14.0625 8.37934H1.37495V14.9841C1.37495 17.523 2.6089 18.574 5.62479 18.594H12.3745C15.3474 18.594 16.6164 17.516 16.6164 14.9771V6.7074C16.6164 4.49648 15.6524 3.42652 13.4525 3.16853V3.8405C13.4025 4.19949 13.0935 4.46148 12.7375 4.44548C12.3825 4.43448 12.0936 4.14849 12.0706 3.7855V0.672618L12.0816 0.562622C12.1096 0.418627 12.1836 0.285632 12.2926 0.184636C12.4295 0.0596404 12.6095 -0.00735713 12.7925 0.000642579Z" fill="#545454"/>
</svg>
