<svg width="53" height="60" viewBox="0 0 53 60" fill="none" xmlns="http://www.w3.org/2000/svg">
<path fill-rule="evenodd" clip-rule="evenodd" d="M0 40.0003H3.53328V0H0V40.0003Z" fill="#41EAD4"/>
<path fill-rule="evenodd" clip-rule="evenodd" d="M7.06654 40.0003H10.5998V10.0008H7.06654V40.0003Z" fill="#FF9F1C"/>
<path fill-rule="evenodd" clip-rule="evenodd" d="M14.1331 40.0003H17.6663V6.00088H14.1331V40.0003Z" fill="#1B98E0"/>
<path fill-rule="evenodd" clip-rule="evenodd" d="M21.1996 40.0003H24.7329V22.0006H21.1996V40.0003Z" fill="#F71735"/>
<path fill-rule="evenodd" clip-rule="evenodd" d="M28.2662 42.0003H0V40.0003H27.3829V20.0007C27.3829 19.4497 27.7795 19.0007 28.2662 19.0007C28.7529 19.0007 29.1495 19.4497 29.1495 20.0007V41.0003C29.1495 41.5513 28.7529 42.0003 28.2662 42.0003Z" fill="#4F5D75"/>
<path fill-rule="evenodd" clip-rule="evenodd" d="M13.1809 51.9101C8.63618 51.0661 7.89154 50.2232 7.14602 45.0782C7.13895 45.0312 7.10804 45.0002 7.06652 45.0002C7.025 45.0002 6.99409 45.0312 6.98702 45.0782C6.2415 50.2232 5.49686 51.0661 0.952185 51.9101C0.910669 51.9181 0.883286 51.9531 0.883286 52.0001C0.883286 52.0471 0.910669 52.0821 0.952185 52.0901C5.49686 52.9331 6.2415 53.7771 6.98702 58.922C6.99409 58.969 7.025 59 7.06652 59C7.10804 59 7.13895 58.969 7.14602 58.922C7.89154 53.7771 8.63618 52.9331 13.1809 52.0901C13.2224 52.0821 13.2498 52.0471 13.2498 52.0001C13.2498 51.9531 13.2224 51.9181 13.1809 51.9101ZM52.0469 7.91085C47.5022 7.06686 46.7576 6.22388 46.0121 1.07896C46.005 1.03196 45.9741 1.00096 45.9326 1.00096C45.8911 1.00096 45.8602 1.03196 45.8531 1.07896C45.1085 6.22388 44.3629 7.06686 39.8183 7.91085C39.7767 7.91885 39.7494 7.95385 39.7494 8.00085C39.7494 8.04785 39.7767 8.08285 39.8183 8.09085C44.3629 8.93483 45.1085 9.77782 45.8531 14.9227C45.8602 14.9697 45.8911 15.0007 45.9326 15.0007C45.9741 15.0007 46.005 14.9697 46.0121 14.9227C46.7576 9.77782 47.5022 8.93483 52.0469 8.09085C52.0884 8.08285 52.1158 8.04785 52.1158 8.00085C52.1158 7.95385 52.0884 7.91885 52.0469 7.91085Z" fill="#1B98E0"/>
<path fill-rule="evenodd" clip-rule="evenodd" d="M38.6107 42.0003H44.4212C49.1585 42.0003 52.9991 46.3482 52.9991 51.7111V60H30.0328V51.7111C30.0328 46.3482 33.8735 42.0003 38.6107 42.0003Z" fill="#2D3142"/>
<path fill-rule="evenodd" clip-rule="evenodd" d="M44.2627 52.0001L41.5164 47.7152L38.7693 52.0001L37.9831 42.0003H45.0497L44.2627 52.0001Z" fill="#247BA0"/>
<path fill-rule="evenodd" clip-rule="evenodd" d="M41.516 48.0002L43.2826 42.0003H39.7494L41.516 48.0002Z" fill="#F71735"/>
<path fill-rule="evenodd" clip-rule="evenodd" d="M48.5823 60H46.8157V51.0001C46.8157 50.4492 47.2123 50.0002 47.699 50.0002C48.1857 50.0002 48.5823 50.4492 48.5823 51.0001V60ZM36.216 60H34.4494V51.0001C34.4494 50.4492 34.846 50.0002 35.3327 50.0002C35.8194 50.0002 36.216 50.4492 36.216 51.0001V60Z" fill="#4F5D75"/>
<path fill-rule="evenodd" clip-rule="evenodd" d="M47.6303 30.8795V31.4305C48.7168 31.5205 49.5383 32.5864 49.4658 33.8204C49.4729 34.4424 49.2795 35.0434 48.9279 35.5204C48.6064 35.9574 48.1303 36.2154 47.6303 36.2194C47.5685 38.5593 46.3539 40.6603 44.483 41.6603L42.8065 42.6493C41.9956 43.1173 41.0363 43.1173 40.2254 42.6493L38.5489 41.6603C37.617 41.1293 36.8238 40.3323 36.2434 39.3523C35.6984 38.4224 35.4087 37.3324 35.4016 36.2194C34.3496 36.0514 33.5661 35.0314 33.5661 33.8244C33.5661 32.6214 34.3496 31.5985 35.4016 31.4305V31.0005L42.9311 29.0005H45.0599L47.6303 30.8795Z" fill="#FFBF69"/>
<path fill-rule="evenodd" clip-rule="evenodd" d="M48.5825 32.0005C47.3229 31.9885 46.126 31.3675 45.2904 30.3015L44.1659 31.0005L44.0864 29.0005C42.492 30.9615 40.2325 32.0515 37.8829 32.0005H34.4494V29.6025C34.4494 25.6216 37.0375 24.0006 40.2325 24.0006H42.7994C45.9944 24.0006 48.5825 25.6256 48.5825 29.6025V32.0005Z" fill="#2D3142"/>
</svg>
