<svg width="62" height="44" viewBox="0 0 62 44" fill="none" xmlns="http://www.w3.org/2000/svg">
<path fill-rule="evenodd" clip-rule="evenodd" d="M8.13681 6.02734H59.6108C60.7758 6.02734 61.7204 6.97196 61.7204 8.13693V41.8904C61.7204 43.0553 60.7758 43.9999 59.6108 43.9999H8.13681C6.97184 43.9999 6.02722 43.0553 6.02722 41.8904V8.13693C6.02722 6.97196 6.97184 6.02734 8.13681 6.02734Z" fill="#8397CC"/>
<path fill-rule="evenodd" clip-rule="evenodd" d="M8.13681 6.02734C6.97232 6.02879 6.02867 6.97244 6.02722 8.13693V40.3835H55.9943C57.1588 40.3821 58.1025 39.4384 58.1039 38.2739V6.02734H8.13681Z" fill="#6D83B5"/>
<path fill-rule="evenodd" clip-rule="evenodd" d="M2.10959 0H53.5836C54.7485 0 55.6931 0.944614 55.6931 2.10959V35.863C55.6931 37.028 54.7485 37.9726 53.5836 37.9726H2.10959C0.944614 37.9726 0 37.028 0 35.863V2.10959C0 0.944614 0.944614 0 2.10959 0Z" fill="#3D58FF"/>
<path fill-rule="evenodd" clip-rule="evenodd" d="M2.41096 4.52055C2.41241 3.35605 3.35605 2.41241 4.52055 2.41096H55.6931V2.10959C55.6917 0.945096 54.7481 0.00144658 53.5836 0H2.10959C0.945096 0.00144658 0.00144658 0.945096 0 2.10959V35.863C0.00144658 37.0275 0.945096 37.9712 2.10959 37.9726H2.41096V4.52055Z" fill="#3146CC"/>
<path fill-rule="evenodd" clip-rule="evenodd" d="M36.7069 27.7261H49.9672C51.1321 27.7261 52.0767 28.6707 52.0767 29.8357V32.2466C52.0767 33.4116 51.1321 34.3562 49.9672 34.3562H36.7069C35.5419 34.3562 34.5973 33.4116 34.5973 32.2466V29.8357C34.5973 28.6707 35.5419 27.7261 36.7069 27.7261Z" fill="#3146CC"/>
<path fill-rule="evenodd" clip-rule="evenodd" d="M35.5014 26.5205H48.7617C49.9267 26.5205 50.8713 27.4651 50.8713 28.6301V31.0411C50.8713 32.206 49.9267 33.1506 48.7617 33.1506H35.5014C34.3365 33.1506 33.3918 32.206 33.3918 31.0411V28.6301C33.3918 27.4651 34.3365 26.5205 35.5014 26.5205Z" fill="#F65D6D"/>
<path fill-rule="evenodd" clip-rule="evenodd" d="M34.5973 32.2465V29.8356C34.5988 28.6711 35.5424 27.7274 36.7069 27.726H49.9672C50.2276 27.7265 50.4852 27.7749 50.7277 27.8696C50.4126 27.0578 49.6324 26.5224 48.7617 26.5205H35.5014C34.3369 26.522 33.3933 27.4656 33.3918 28.6301V31.0411C33.3938 31.9118 33.9291 32.692 34.7409 33.0071C34.6463 32.7645 34.5978 32.5069 34.5973 32.2465Z" fill="#E25065"/>
<path fill-rule="evenodd" clip-rule="evenodd" d="M55.6931 6.0274V2.10959C55.6917 0.945096 54.7481 0.00144658 53.5836 0H2.10959C0.945096 0.00144658 0.00144658 0.945096 0 2.10959V6.0274H55.6931Z" fill="white"/>
<path fill-rule="evenodd" clip-rule="evenodd" d="M2.41096 4.52055C2.41241 3.35605 3.35605 2.41241 4.52055 2.41096H55.6931V2.10959C55.6917 0.945096 54.7481 0.00144658 53.5836 0H2.10959C0.945096 0.00144658 0.00144658 0.945096 0 2.10959V6.0274H2.41096V4.52055Z" fill="#E8EFFF"/>
<path fill-rule="evenodd" clip-rule="evenodd" d="M17.6 23.5068C17.2063 23.5068 16.8579 23.2516 16.7392 22.8763L13.4844 12.6298C13.3762 12.3189 13.4449 11.9737 13.6644 11.7284C13.8838 11.4831 14.2195 11.3767 14.5402 11.4501C14.8608 11.5241 15.1165 11.766 15.2069 12.0825L18.4617 22.3291C18.5498 22.6041 18.5009 22.9041 18.3304 23.1372C18.16 23.3702 17.8888 23.5073 17.6 23.5068ZM8.98689 21.7984C8.73917 21.7994 8.50229 21.6977 8.33232 21.5178L5.07137 18.1039C4.7389 17.7539 4.7389 17.205 5.07137 16.855L8.33232 13.4411C8.6766 13.079 9.24957 13.0644 9.61169 13.409C9.97382 13.7538 9.98841 14.3264 9.64376 14.689L6.97615 17.4794L9.64376 20.2699C9.89377 20.5317 9.96345 20.9175 9.82133 21.2498C9.67908 21.5828 9.35227 21.7984 8.99015 21.7984H8.98689ZM22.958 21.7984C22.5954 21.7999 22.2673 21.5847 22.1246 21.2517C21.9815 20.9183 22.0507 20.5322 22.3012 20.2699L24.9655 17.4794L22.3012 14.689C21.9565 14.3264 21.9711 13.7538 22.3332 13.409C22.6954 13.0644 23.2683 13.079 23.6126 13.4411L26.8736 16.856C27.206 17.2063 27.206 17.7554 26.8736 18.1052L23.6126 21.5178C23.4426 21.6977 23.2058 21.7994 22.958 21.7984Z" fill="#F65D6D"/>
<path fill-rule="evenodd" clip-rule="evenodd" d="M49.9674 22.9047H32.2468C31.7476 22.9047 31.3427 22.4998 31.3427 22.0006C31.3427 21.5014 31.7476 21.0965 32.2468 21.0965H49.9674C50.4665 21.0965 50.8715 21.5014 50.8715 22.0006C50.8715 22.4998 50.4665 22.9047 49.9674 22.9047ZM49.9674 17.4799H32.2468C31.7476 17.4799 31.3427 17.075 31.3427 16.5758C31.3427 16.0766 31.7476 15.6717 32.2468 15.6717H49.9674C50.4665 15.6717 50.8715 16.0766 50.8715 16.5758C50.8715 17.075 50.4665 17.4799 49.9674 17.4799ZM49.9672 12.6578H38.0932C37.594 12.6578 37.1891 12.2529 37.1891 11.7537C37.1891 11.2545 37.594 10.8496 38.0932 10.8496H49.9672C50.4664 10.8496 50.8713 11.2545 50.8713 11.7537C50.8713 12.2529 50.4664 12.6578 49.9672 12.6578ZM6.56997 28.3289H5.72613C5.22694 28.3289 4.82202 27.924 4.82202 27.4248C4.82202 26.9256 5.22694 26.5207 5.72613 26.5207H6.56997C7.06916 26.5207 7.47408 26.9256 7.47408 27.4248C7.47408 27.924 7.06916 28.3289 6.56997 28.3289ZM29.4742 28.3289H11.2112C10.712 28.3289 10.3071 27.924 10.3071 27.4248C10.3071 26.9256 10.712 26.5207 11.2112 26.5207H29.4742C29.9734 26.5207 30.3783 26.9256 30.3783 27.4248C30.3783 27.924 29.9734 28.3289 29.4742 28.3289ZM29.4741 33.1509H5.72613C5.22694 33.1509 4.82202 32.746 4.82202 32.2468C4.82202 31.7476 5.22694 31.3427 5.72613 31.3427H29.4741C29.9733 31.3427 30.3782 31.7476 30.3782 32.2468C30.3782 32.746 29.9733 33.1509 29.4741 33.1509ZM33.8742 12.6578H32.2468C31.7476 12.6578 31.3427 12.2529 31.3427 11.7537C31.3427 11.2545 31.7476 10.8496 32.2468 10.8496H33.8742C34.3734 10.8496 34.7783 11.2545 34.7783 11.7537C34.7783 12.2529 34.3734 12.6578 33.8742 12.6578Z" fill="white"/>
<path fill-rule="evenodd" clip-rule="evenodd" d="M51.1726 4.30986H49.9671C49.4679 4.30986 49.063 3.81721 49.063 3.20986C49.063 2.60252 49.4679 2.10986 49.9671 2.10986H51.1726C51.6718 2.10986 52.0767 2.60252 52.0767 3.20986C52.0767 3.81721 51.6718 4.30986 51.1726 4.30986ZM46.3507 4.31008H45.1452C44.646 4.31008 44.2411 3.81743 44.2411 3.21008C44.2411 2.60273 44.646 2.11008 45.1452 2.11008H46.3507C46.8499 2.11008 47.2548 2.60273 47.2548 3.21008C47.2548 3.81743 46.8499 4.31008 46.3507 4.31008Z" fill="#8397CC"/>
</svg>
