<svg width="16" height="20" viewBox="0 0 16 20" fill="none" xmlns="http://www.w3.org/2000/svg">
<path fill-rule="evenodd" clip-rule="evenodd" d="M7.99215 1.53131C6.98017 1.52731 6.01218 1.93031 5.29719 2.6483C4.58219 3.36729 4.1802 4.34428 4.1802 5.35926C4.1762 6.91025 5.10219 8.31223 6.52717 8.91022C7.94915 9.50421 9.59013 9.18022 10.6831 8.08223C11.7731 6.98825 12.1011 5.33627 11.5121 3.90228C10.9221 2.4693 9.53113 1.53131 7.99215 1.53131ZM5.96518 0.406325C7.95315 -0.421664 10.2461 0.03933 11.7651 1.57431C13.2891 3.10529 13.7421 5.41426 12.9141 7.41424C12.0901 9.41822 10.1441 10.7232 7.99215 10.7192C5.05519 10.7112 2.67622 8.31623 2.67622 5.35927L2.68422 5.12927C2.77022 3.05229 4.0472 1.20732 5.96518 0.406325ZM5.88318 12.7662C7.32016 12.6452 8.76614 12.6452 10.2031 12.7662C10.9881 12.8212 11.7691 12.9342 12.5351 13.1102C14.1951 13.4462 15.2811 14.1062 15.7341 15.0741C16.0971 15.8751 16.0861 16.8011 15.7071 17.5981C15.2461 18.5671 14.1601 19.2271 12.4721 19.5711C11.7111 19.7421 10.9331 19.8521 10.1481 19.9031C9.28514 20.0001 8.55115 20.0001 7.86715 20.0001H7.59816C7.21116 19.9571 6.91817 19.6291 6.91817 19.2391C6.91817 18.8481 7.21116 18.5201 7.59816 18.4771H8.19515C8.79314 18.4691 9.39813 18.4421 10.0001 18.3911C10.7111 18.3441 11.4181 18.2421 12.1171 18.0901C13.3121 17.8281 14.0661 17.4491 14.3011 16.9461C14.4841 16.5631 14.4841 16.1171 14.3011 15.7351C14.0661 15.2231 13.3121 14.8281 12.1401 14.5902C11.4331 14.4302 10.7151 14.3242 9.99213 14.2812C8.64115 14.1562 7.28116 14.1562 5.93018 14.2812C5.21519 14.3282 4.5042 14.4262 3.8052 14.5782C2.60522 14.8441 1.86323 15.2231 1.62123 15.7231C1.53123 15.9141 1.48823 16.1211 1.48823 16.3321C1.48823 16.5431 1.53123 16.7541 1.62123 16.9461C2.03523 17.5201 2.66822 17.8911 3.36721 17.9771L3.46921 18.0041C3.6992 18.0821 3.8792 18.2701 3.9492 18.5121C4.0312 18.7811 3.9532 19.0781 3.7502 19.2781C3.54721 19.4771 3.25021 19.5431 2.98421 19.4531C1.85523 19.2701 0.867239 18.5941 0.281247 17.6061C-0.0937489 16.8091 -0.0937489 15.8791 0.281247 15.0821C0.746241 14.0862 1.82823 13.4462 3.50021 13.1022C4.2852 12.9302 5.08219 12.8212 5.88318 12.7662Z" fill="#0961F5"/>
</svg>
