<svg width="12" height="12" viewBox="0 0 12 12" fill="none" xmlns="http://www.w3.org/2000/svg">
<path fill-rule="evenodd" clip-rule="evenodd" d="M6.58815 0.372791L7.92432 3.05654C8.02272 3.25094 8.20992 3.38713 8.42771 3.41953L11.4259 3.85573C11.6011 3.88153 11.7607 3.97272 11.8662 4.11312C11.9742 4.25412 12.0186 4.42992 11.9928 4.60331C11.9718 4.74611 11.9034 4.87991 11.8008 4.9807L9.62769 7.08547C9.46869 7.23546 9.3961 7.45086 9.43329 7.66385L9.97028 10.6266C10.0285 10.9806 9.79209 11.3154 9.43329 11.388C9.2881 11.4114 9.1381 11.388 9.0067 11.3202L6.33015 9.92581C6.13096 9.82501 5.89696 9.82501 5.70016 9.92581L3.02361 11.3202C2.69242 11.496 2.28083 11.3742 2.10203 11.0508C2.03483 10.9218 2.01143 10.7742 2.03243 10.6314L2.56822 7.66865C2.60662 7.45806 2.53402 7.23966 2.37443 7.08967L0.201268 4.9873C0.07527 4.86311 0.00207134 4.69451 0.00207134 4.51871C0.00207134 4.34292 0.07527 4.17432 0.201268 4.05012C0.304466 3.94692 0.440063 3.87913 0.58826 3.86053L3.5864 3.42433C3.8036 3.39133 3.9908 3.25814 4.08739 3.06134L5.37857 0.372791C5.49077 0.145396 5.72776 0.000198288 5.98816 0.0049982H6.06796C6.29295 0.0331977 6.48975 0.171195 6.58815 0.372791Z" fill="#FCCB40"/>
<path fill-rule="evenodd" clip-rule="evenodd" d="M6.00454 9.84612C5.88694 9.84612 5.77714 9.88572 5.67154 9.93732L3.00459 11.3275C2.6836 11.4889 2.27801 11.3599 2.10221 11.0509C2.03441 10.9243 2.00861 10.7791 2.03201 10.6357L2.5684 7.68077C2.6038 7.46477 2.5312 7.24937 2.37401 7.09698L0.196646 4.99222C-0.0655488 4.73482 -0.0655488 4.31483 0.196646 4.05503C0.299844 3.95424 0.433642 3.88824 0.576439 3.86724L3.58598 3.42445C3.81518 3.39145 3.98198 3.26305 4.08697 3.06145L5.39495 0.342304C5.49335 0.122108 5.82874 -0.0302895 6.00934 0.00510983C6.00454 0.185706 6.00454 9.72673 6.00454 9.84612Z" fill="#FAC025"/>
</svg>
