<svg width="15" height="19" viewBox="0 0 15 19" fill="none" xmlns="http://www.w3.org/2000/svg">
<path fill-rule="evenodd" clip-rule="evenodd" d="M10.6743 0.300049H4.46615C1.90655 0.300049 0.300049 2.08565 0.300049 4.95485V16.7916C0.300049 17.625 0.960649 18.3 1.77335 18.3C2.01905 18.3 2.26205 18.237 2.47985 18.1173L7.53155 15.312L13.413 18.1344C13.5714 18.2019 13.7505 18.2019 13.9125 18.1344C14.07 18.0678 14.1969 17.9382 14.2635 17.7762C14.3625 17.4738 14.2428 17.1435 13.9791 16.9815L8.13635 14.187C7.75205 13.9692 7.29305 13.9692 6.90965 14.187L1.85075 16.9815C1.79405 17.013 1.72385 17.013 1.66445 16.9815C1.61135 16.9464 1.57985 16.8834 1.57985 16.8132V4.95485C1.58705 2.83445 2.62745 1.62575 4.48955 1.62575H10.695C13.0863 1.62575 13.4337 3.61205 13.4337 4.80365V5.34455H6.71615C6.54695 5.35175 6.38585 5.42555 6.26615 5.55245C6.15005 5.68205 6.09065 5.85125 6.09695 6.02675C6.10325 6.37505 6.37865 6.65315 6.71615 6.66305H13.413V13.6137C13.413 13.9755 13.701 14.2707 14.0565 14.2707C14.4075 14.2707 14.6964 13.9827 14.7 13.6209V4.80365C14.7 2.02265 13.1637 0.300049 10.6743 0.300049Z" fill="#0961F5" stroke="#0961F5" stroke-width="0.6" stroke-linecap="round" stroke-linejoin="round"/>
</svg>
