<svg width="16" height="21" viewBox="0 0 16 21" fill="none" xmlns="http://www.w3.org/2000/svg">
<path fill-rule="evenodd" clip-rule="evenodd" d="M7.99225 2.03133C6.98025 2.02733 6.01225 2.43033 5.29725 3.14833C4.58225 3.86733 4.18025 4.84433 4.18025 5.85933C4.17625 7.41033 5.10225 8.81233 6.52725 9.41033C7.94925 10.0043 9.59025 9.68033 10.6833 8.58233C11.7733 7.48833 12.1013 5.83633 11.5123 4.40233C10.9223 2.96933 9.53125 2.03133 7.99225 2.03133ZM5.96525 0.90633C7.95325 0.0783304 10.2463 0.53933 11.7652 2.07433C13.2892 3.60533 13.7422 5.91433 12.9142 7.91433C12.0903 9.91833 10.1442 11.2233 7.99225 11.2193C5.05525 11.2113 2.67625 8.81633 2.67625 5.85933L2.68425 5.62933C2.77025 3.55233 4.04725 1.70733 5.96525 0.90633ZM5.88325 13.2663C7.32025 13.1453 8.76625 13.1453 10.2032 13.2663C10.9882 13.3213 11.7692 13.4343 12.5352 13.6103C14.1952 13.9463 15.2812 14.6063 15.7343 15.5743C16.0972 16.3753 16.0863 17.3013 15.7072 18.0983C15.2462 19.0673 14.1602 19.7273 12.4722 20.0713C11.7113 20.2423 10.9332 20.3523 10.1482 20.4033C9.28525 20.5003 8.55125 20.5003 7.86725 20.5003H7.59825C7.21125 20.4573 6.91825 20.1293 6.91825 19.7393C6.91825 19.3483 7.21125 19.0203 7.59825 18.9773H8.19525C8.79325 18.9693 9.39825 18.9423 10.0002 18.8913C10.7113 18.8443 11.4183 18.7423 12.1173 18.5903C13.3123 18.3283 14.0663 17.9493 14.3013 17.4463C14.4843 17.0633 14.4843 16.6173 14.3013 16.2353C14.0663 15.7233 13.3123 15.3283 12.1403 15.0903C11.4333 14.9303 10.7153 14.8243 9.99225 14.7813C8.64125 14.6563 7.28125 14.6563 5.93025 14.7813C5.21525 14.8283 4.50425 14.9263 3.80525 15.0783C2.60525 15.3443 1.86325 15.7233 1.62125 16.2233C1.53125 16.4143 1.48825 16.6213 1.48825 16.8323C1.48825 17.0433 1.53125 17.2543 1.62125 17.4463C2.03525 18.0203 2.66825 18.3913 3.36725 18.4773L3.46925 18.5043C3.69925 18.5823 3.87925 18.7703 3.94925 19.0123C4.03125 19.2813 3.95325 19.5783 3.75025 19.7783C3.54725 19.9773 3.25025 20.0433 2.98425 19.9533C1.85525 19.7703 0.86725 19.0943 0.28125 18.1063C-0.09375 17.3093 -0.09375 16.3793 0.28125 15.5823C0.74625 14.5863 1.82825 13.9463 3.50025 13.6023C4.28525 13.4303 5.08225 13.3213 5.88325 13.2663Z" fill="#0961F5"/>
</svg>
