<svg width="18" height="17" viewBox="0 0 18 17" fill="none" xmlns="http://www.w3.org/2000/svg">
<path fill-rule="evenodd" clip-rule="evenodd" d="M11.6523 6.83237C11.098 6.76607 10.7111 6.1817 10.7892 5.52878C10.8673 4.87586 11.3811 4.39924 11.9354 4.46555C12.4898 4.53185 12.8767 5.11622 12.7986 5.76914C12.7205 6.42206 12.2066 6.89868 11.6523 6.83237ZM12.0574 3.44519C11.0181 3.32087 10.0299 4.23745 9.8835 5.46167C9.73706 6.68589 10.4465 7.80553 11.5205 7.934C12.5599 8.05832 13.548 7.14174 13.6945 5.91752C13.8409 4.6933 13.0968 3.56952 12.0574 3.44519ZM15.9648 11.9094L13.8188 9.28518L11.0146 11.4001L6.40394 4.87998L1.4295 9.1567L2.33106 1.61959C2.37011 1.29313 2.60727 1.07315 2.88443 1.1063L16.5692 2.74323C16.8464 2.77638 17.025 3.04609 16.9859 3.37255L15.9648 11.9094ZM15.6094 14.8803C15.5703 15.2067 15.3332 15.4267 15.056 15.3936L13.7291 15.2348L11.6103 12.2371L13.6528 10.6727L15.8027 13.2643L15.6094 14.8803ZM1.37119 13.7566C1.09403 13.7235 0.915442 13.4538 0.954492 13.1273L1.25518 10.6136L6.22815 6.3491L12.4056 15.0765L1.37119 13.7566ZM16.7357 1.64554L3.05086 0.00861306C2.25403 -0.0867016 1.50303 0.6099 1.39076 1.54847L0.014252 13.0561C-0.0980162 13.9947 0.467497 14.8488 1.26433 14.9441L14.9491 16.581C15.746 16.6763 16.497 15.9797 16.6092 15.0412L17.9857 3.5335C18.098 2.59493 17.5325 1.74085 16.7357 1.64554Z" fill="#167F71"/>
</svg>
