<svg width="19" height="15" viewBox="0 0 19 15" fill="none" xmlns="http://www.w3.org/2000/svg">
<path fill-rule="evenodd" clip-rule="evenodd" d="M18.8015 1.98334L18.0486 1.22848L11.0665 8.21061C10.1942 9.08249 8.72696 9.08249 7.85231 8.21061L0.872555 1.26894L0.117301 2.02181L5.31483 7.21895L0.117301 12.4161L0.872555 13.169L6.06731 7.97182L7.09983 9.00395C7.73529 9.63941 8.56671 9.99561 9.43898 9.99561C10.3136 9.99561 11.145 9.63941 11.7809 9.00395L12.8106 7.97182L18.0082 13.169L18.7607 12.4161L13.5659 7.21895L18.8015 1.98334Z" fill="#545454"/>
<path fill-rule="evenodd" clip-rule="evenodd" d="M1.62515 1.0706C1.30741 1.0706 1.071 1.3094 1.071 1.62515V12.8127C1.071 13.1285 1.30741 13.3673 1.62515 13.3673H17.2935C17.6116 13.3673 17.85 13.1285 17.85 12.8127V1.62515C17.85 1.3094 17.6116 1.0706 17.2935 1.0706H1.62515ZM17.3344 14.5168H1.666C0.752874 14.5168 0 13.764 0 12.8512V1.66561C0 0.752874 0.752874 0 1.666 0H17.3344C18.2467 0 19 0.752874 19 1.66561V12.8512C19 13.764 18.2467 14.5168 17.3344 14.5168Z" fill="#545454"/>
</svg>
