<svg width="20" height="19" viewBox="0 0 20 19" fill="none" xmlns="http://www.w3.org/2000/svg">
<path fill-rule="evenodd" clip-rule="evenodd" d="M15.7622 8.63462C16.1252 8.63462 16.4189 8.93627 16.4189 9.3111C16.4189 9.68198 16.1252 9.98263 15.7622 9.98263H15.4606C15.0976 9.98263 14.7999 9.68198 14.7999 9.3111C14.7999 8.93627 15.0976 8.63462 15.4606 8.63462H15.7622ZM14.163 0.104496C17.3189 0.104496 19.8844 2.73128 19.8844 5.9574V13.0426C19.8844 16.2687 17.3189 18.8955 14.163 18.8955C13.8 18.8955 13.5024 18.5939 13.5024 18.219C13.5024 17.8482 13.8 17.5475 14.163 17.5475C16.589 17.5475 18.567 15.527 18.567 13.0426V7.38651H15.3182C14.252 7.39046 13.3827 8.27957 13.3827 9.36846C13.3827 10.4623 14.252 11.3504 15.3182 11.3504H16.6662C17.0331 11.3504 17.3268 11.656 17.3268 12.0269C17.3268 12.3978 17.0331 12.7024 16.6662 12.7024H15.3182C13.5251 12.6984 12.0653 11.208 12.0614 9.36846C12.0653 7.53387 13.5251 6.0385 15.3182 6.0385H18.567V5.9574C18.567 3.47303 16.589 1.4525 14.163 1.4525H5.82574C3.86752 1.4525 2.22577 2.77381 1.65314 4.5817H10.3455C10.7094 4.5817 11.0032 4.88335 11.0032 5.25818C11.0032 5.62905 10.7094 5.9307 10.3455 5.9307H1.42567L1.42172 5.9574V13.0426C1.42172 15.527 3.39576 17.5475 5.82574 17.5475H10.0211C10.385 17.5475 10.6778 17.8482 10.6778 18.219C10.6778 18.5939 10.385 18.8955 10.0211 18.8955H5.82574C2.66984 18.8955 0.104369 16.2687 0.104369 13.0426V5.9574C0.104369 2.73128 2.66984 0.104496 5.82574 0.104496H14.163Z" fill="white"/>
<path d="M18.567 7.38651H18.6714V7.28211H18.567V7.38651ZM15.3182 7.38651V7.28211L15.3178 7.28211L15.3182 7.38651ZM15.3182 12.7024L15.3179 12.8068H15.3182V12.7024ZM12.0614 9.36846L11.957 9.36824L11.957 9.36869L12.0614 9.36846ZM18.567 6.0385V6.14289H18.6714V6.0385H18.567ZM1.65314 4.5817L1.55362 4.55018L1.51057 4.6861H1.65314V4.5817ZM1.42567 5.9307V5.8263H1.33561L1.32241 5.9154L1.42567 5.9307ZM1.42172 5.9574L1.31845 5.9421L1.31732 5.94971V5.9574H1.42172ZM15.7622 8.73902C16.0647 8.73902 16.3145 8.99108 16.3145 9.3111H16.5233C16.5233 8.88146 16.1856 8.53023 15.7622 8.53023V8.73902ZM16.3145 9.3111C16.3145 9.62656 16.0653 9.87824 15.7622 9.87824V10.087C16.1851 10.087 16.5233 9.73739 16.5233 9.3111H16.3145ZM15.7622 9.87824H15.4606V10.087H15.7622V9.87824ZM15.4606 9.87824C15.1567 9.87824 14.9043 9.62574 14.9043 9.3111H14.6955C14.6955 9.73822 15.0386 10.087 15.4606 10.087V9.87824ZM14.9043 9.3111C14.9043 8.99191 15.1573 8.73902 15.4606 8.73902V8.53023C15.038 8.53023 14.6955 8.88064 14.6955 9.3111H14.9043ZM15.4606 8.73902H15.7622V8.53023H15.4606V8.73902ZM14.163 0.208891C17.259 0.208891 19.78 2.78666 19.78 5.9574H19.9888C19.9888 2.6759 17.3788 0.000101946 14.163 0.000101946V0.208891ZM19.78 5.9574V13.0426H19.9888V5.9574H19.78ZM19.78 13.0426C19.78 16.2133 17.259 18.7911 14.163 18.7911V18.9999C17.3788 18.9999 19.9888 16.3241 19.9888 13.0426H19.78ZM14.163 18.7911C13.8597 18.7911 13.6068 18.5382 13.6068 18.219H13.398C13.398 18.6495 13.7404 18.9999 14.163 18.9999V18.7911ZM13.6068 18.219C13.6068 17.9044 13.8591 17.6519 14.163 17.6519V17.4431C13.741 17.4431 13.398 17.7919 13.398 18.219H13.6068ZM14.163 17.6519C16.6489 17.6519 18.6714 15.5824 18.6714 13.0426H18.4626C18.4626 15.4715 16.5292 17.4431 14.163 17.4431V17.6519ZM18.6714 13.0426V7.38651H18.4626V13.0426H18.6714ZM18.567 7.28211H15.3182V7.4909H18.567V7.28211ZM15.3178 7.28211C14.1922 7.28629 13.2783 8.22401 13.2783 9.36846H13.4871C13.4871 8.33514 14.3118 7.49464 15.3185 7.4909L15.3178 7.28211ZM13.2783 9.36846C13.2783 10.5177 14.1921 11.4548 15.3182 11.4548V11.246C14.3119 11.246 13.4871 10.4069 13.4871 9.36846H13.2783ZM15.3182 11.4548H16.6662V11.246H15.3182V11.4548ZM16.6662 11.4548C16.9726 11.4548 17.2224 11.7108 17.2224 12.0269H17.4312C17.4312 11.6012 17.0935 11.246 16.6662 11.246V11.4548ZM17.2224 12.0269C17.2224 12.3427 16.9728 12.598 16.6662 12.598V12.8068C17.0933 12.8068 17.4312 12.4528 17.4312 12.0269H17.2224ZM16.6662 12.598H15.3182V12.8068H16.6662V12.598ZM15.3184 12.598C13.585 12.5942 12.1696 11.1525 12.1658 9.36824L11.957 9.36869C11.9611 11.2635 13.4652 12.8027 15.3179 12.8068L15.3184 12.598ZM12.1658 9.36869C12.1696 7.58919 13.5851 6.14289 15.3182 6.14289V5.9341C13.4651 5.9341 11.9611 7.47854 11.957 9.36824L12.1658 9.36869ZM15.3182 6.14289H18.567V5.9341H15.3182V6.14289ZM18.6714 6.0385V5.9574H18.4626V6.0385H18.6714ZM18.6714 5.9574C18.6714 3.41758 16.6489 1.34811 14.163 1.34811V1.5569C16.5292 1.5569 18.4626 3.52849 18.4626 5.9574H18.6714ZM14.163 1.34811H5.82574V1.5569H14.163V1.34811ZM5.82574 1.34811C3.81839 1.34811 2.13887 2.70245 1.55362 4.55018L1.75267 4.61322C2.31268 2.84517 3.91665 1.5569 5.82574 1.5569V1.34811ZM1.65314 4.6861H10.3455V4.47731H1.65314V4.6861ZM10.3455 4.6861C10.6491 4.6861 10.8988 4.93826 10.8988 5.25818H11.1075C11.1075 4.82843 10.7698 4.47731 10.3455 4.47731V4.6861ZM10.8988 5.25818C10.8988 5.57374 10.6495 5.8263 10.3455 5.8263V6.03509C10.7694 6.03509 11.1075 5.68437 11.1075 5.25818H10.8988ZM10.3455 5.8263H1.42567V6.03509H10.3455V5.8263ZM1.32241 5.9154L1.31845 5.9421L1.52498 5.9727L1.52894 5.946L1.32241 5.9154ZM1.31732 5.9574V13.0426H1.52611V5.9574H1.31732ZM1.31732 13.0426C1.31732 15.5824 3.33587 17.6519 5.82574 17.6519V17.4431C3.45565 17.4431 1.52611 15.4716 1.52611 13.0426H1.31732ZM5.82574 17.6519H10.0211V17.4431H5.82574V17.6519ZM10.0211 17.6519C10.3251 17.6519 10.5734 17.9035 10.5734 18.219H10.7822C10.7822 17.7928 10.445 17.4431 10.0211 17.4431V17.6519ZM10.5734 18.219C10.5734 18.5392 10.3245 18.7911 10.0211 18.7911V18.9999C10.4456 18.9999 10.7822 18.6486 10.7822 18.219H10.5734ZM10.0211 18.7911H5.82574V18.9999H10.0211V18.7911ZM5.82574 18.7911C2.72974 18.7911 0.208763 16.2133 0.208763 13.0426H-2.54885e-05C-2.54885e-05 16.3241 2.60993 18.9999 5.82574 18.9999V18.7911ZM0.208763 13.0426V5.9574H-2.54885e-05V13.0426H0.208763ZM0.208763 5.9574C0.208763 2.78666 2.72974 0.208891 5.82574 0.208891V0.000101946C2.60993 0.000101946 -2.54885e-05 2.6759 -2.54885e-05 5.9574H0.208763ZM5.82574 0.208891H14.163V0.000101946H5.82574V0.208891Z" fill="white"/>
</svg>
