<svg width="20" height="24" viewBox="0 0 20 24" fill="none" xmlns="http://www.w3.org/2000/svg">
<path fill-rule="evenodd" clip-rule="evenodd" d="M9.95947 0C13.571 0 17.6213 2.54572 18.079 6.63605V8.76768C18.2354 9.53469 18.5989 10.2523 19.1224 10.8358C19.1542 10.8723 19.1836 10.9087 19.2048 10.9511C19.6836 11.6722 19.9588 12.5039 20 13.3627L19.9683 13.5791C20.0047 14.7555 19.6142 15.9084 18.8601 16.8189C17.9049 17.853 16.5955 18.5012 15.1886 18.6341C11.7194 19.0106 8.21723 19.0106 4.75274 18.6341C3.36459 18.4918 2.07879 17.8436 1.14121 16.8189C0.377724 15.9225 -0.0257797 14.7744 0.00127743 13.6027V13.4556C0.0612736 12.5733 0.355373 11.7181 0.860047 10.9828L0.943571 10.877C1.46707 10.2888 1.82587 9.57704 1.98703 8.80886V6.67723L2.04115 6.55723C2.22114 6.25372 2.56112 6.07962 2.91874 6.11608C3.31872 6.16196 3.64575 6.46547 3.70928 6.86074V8.99355V9.10766C3.48929 10.1782 2.99285 11.1711 2.26702 11.9851C1.98703 12.4298 1.83057 12.9357 1.80705 13.4556V13.685C1.78469 14.4156 2.02821 15.132 2.49641 15.7025C3.14461 16.3684 4.01279 16.7778 4.94097 16.8601C8.29605 17.2236 11.6841 17.2236 15.0415 16.8601C15.9979 16.7731 16.8861 16.346 17.5366 15.652C17.9825 15.0955 18.2131 14.4014 18.1942 13.6944V13.4556C18.1707 12.9309 18.0201 12.4263 17.7437 11.9757C16.9908 11.1664 16.4614 10.1735 16.2226 9.09825C16.2179 9.06178 16.2179 9.02061 16.2226 8.98414V6.84192C15.9191 3.71741 12.7769 1.77871 10.0418 1.77871C8.87954 1.77871 7.73491 2.07281 6.72438 2.63748L6.59968 2.70218C6.34323 2.80335 6.05384 2.78453 5.81032 2.64689C5.52916 2.48102 5.35506 2.17869 5.36447 1.85635C5.3727 1.53049 5.5574 1.23639 5.84679 1.08934C7.10083 0.381152 8.51603 0.00941117 9.95947 0ZM11.9311 20.6693C12.257 20.3752 12.7581 20.3575 13.1075 20.6469C13.4887 20.9587 13.544 21.5245 13.2263 21.901C12.4452 22.9162 11.2382 23.5138 9.95006 23.5279L9.69243 23.5185C8.50662 23.4315 7.40905 22.848 6.68321 21.901L6.60439 21.7951C6.3797 21.4234 6.45264 20.9316 6.80203 20.6469C7.18318 20.3293 7.75373 20.3846 8.07018 20.7657C8.209 20.9504 8.37369 21.1104 8.56191 21.2481C9.05835 21.6163 9.68302 21.7727 10.2947 21.681C10.9112 21.5892 11.4617 21.2622 11.8311 20.7657H11.8394L11.9311 20.6693Z" fill="#202244"/>
</svg>
