<svg width="19" height="20" viewBox="0 0 19 20" fill="none" xmlns="http://www.w3.org/2000/svg">
<path fill-rule="evenodd" clip-rule="evenodd" d="M7.98575 18.4052H3.95356C2.64613 18.4012 1.58667 17.3458 1.5786 16.0383V8.0173C1.5786 7.57981 1.77618 7.16651 2.11085 6.88728L2.82354 6.35906C3.08362 6.08387 3.1068 5.6625 2.88604 5.35505C2.66225 5.0486 2.25198 4.94578 1.91025 5.10707L1.18546 5.65041C0.448581 6.21794 0.0161288 7.08788 0 8.0173V16.0464C0.00403219 18.2278 1.77215 19.9959 3.95356 20H7.98575C8.42224 20 8.77304 19.6451 8.77304 19.2127C8.77304 18.7752 8.42224 18.4214 7.98575 18.4214V18.4052Z" fill="#0961F5"/>
<path fill-rule="evenodd" clip-rule="evenodd" d="M18.9444 7.9981C18.9323 7.07977 18.511 6.20983 17.7942 5.63121L11.7389 0.803666C10.4073 -0.267889 8.5091 -0.267889 7.17848 0.803666L5.26118 2.1978C4.89828 2.45686 4.81562 2.95786 5.07569 3.31975C5.33577 3.67761 5.83576 3.76027 6.19765 3.5012L8.14318 2.0476C8.90728 1.41757 10.0101 1.41757 10.7742 2.0476L16.8295 6.87514C17.1803 7.15537 17.385 7.57271 17.393 8.01725V16.0464C17.393 17.3538 16.3295 18.4133 15.0261 18.4133H13.2268C13.0423 18.4133 12.8961 18.2631 12.8961 18.0786V14.4597C12.8961 13.3055 11.9627 12.368 10.8095 12.365H8.17847C7.62303 12.365 7.09179 12.5847 6.69865 12.9789C6.3045 13.373 6.08374 13.9043 6.08374 14.4597V15.8458C6.08374 16.2782 6.43857 16.633 6.87103 16.633C7.30852 16.633 7.66335 16.2782 7.66335 15.8458V14.4597C7.65932 14.3216 7.70972 14.1915 7.80851 14.0928C7.90327 13.999 8.03331 13.9436 8.1704 13.9436H10.8014C11.0806 13.9436 11.3095 14.1724 11.3095 14.4516V18.0786C11.3135 19.137 12.1713 19.9919 13.2268 19.9919H14.9788C17.1642 19.9919 18.9323 18.2197 18.9323 16.0383L18.9444 7.9981Z" fill="#0961F5"/>
</svg>
