<svg width="27" height="27" viewBox="0 0 27 27" fill="none" xmlns="http://www.w3.org/2000/svg">
<path fill-rule="evenodd" clip-rule="evenodd" d="M10.8198 26.7256C10.3516 26.6336 10.0522 26.179 10.1441 25.7142C10.2361 25.246 10.6908 24.9465 11.1547 25.0385C17.1955 26.2178 23.13 22.5609 24.7943 16.6357C26.4553 10.7071 23.2852 4.4993 17.5085 2.36761C11.7359 0.238445 5.29362 2.89821 2.70724 8.48346C0.116648 14.0687 2.25509 20.7051 7.61342 23.7301C8.01834 23.9646 8.15752 24.4817 7.92639 24.8866C7.69272 25.2924 7.17477 25.4307 6.76986 25.1996C0.673402 21.6903 -1.70967 14.089 1.2968 7.72847C4.30496 1.3722 11.6895 -1.61318 18.2702 0.874494C24.85 3.3588 28.4191 10.4844 26.468 17.2422C24.5177 24.0009 17.7033 28.1259 10.8097 26.7256H10.8198Z" fill="#202244"/>
<path fill-rule="evenodd" clip-rule="evenodd" d="M13.5181 5.06305C8.85905 5.06305 5.0824 8.83969 5.0824 13.4987C5.0824 18.1577 8.85905 21.9344 13.5181 21.9344C18.1771 21.9344 21.9537 18.1577 21.9537 13.4987C21.9537 8.83969 18.1771 5.06305 13.5181 5.06305ZM13.5181 23.6215C7.92607 23.6215 3.39527 19.0907 3.39527 13.4987C3.39527 7.90671 7.92607 3.37592 13.5181 3.37592C19.1101 3.37592 23.6409 7.90671 23.6409 13.4987C23.6409 19.0907 19.1101 23.6215 13.5181 23.6215Z" fill="#202244"/>
<path fill-rule="evenodd" clip-rule="evenodd" d="M13.5181 20.2473C13.0533 20.2473 12.6745 19.8685 12.6745 19.4037C12.6745 18.9389 13.0533 18.5602 13.5181 18.5602C13.9829 18.5602 14.3616 18.9389 14.3616 19.4037C14.3616 19.8685 13.9829 20.2473 13.5181 20.2473ZM13.5181 16.873C13.0533 16.873 12.6745 16.4943 12.6745 16.0295C12.6745 14.84 13.3898 13.7653 14.4865 13.3047C15.7518 12.8037 16.3946 11.3898 15.9399 10.1076C15.4853 8.82286 14.0976 8.13114 12.7993 8.53605C11.5011 8.94518 10.7571 10.3059 11.1122 11.6176C11.2312 12.0689 10.9578 12.5303 10.5065 12.6451C10.0552 12.764 9.59379 12.4907 9.47823 12.0394C8.91472 9.85792 10.1666 7.61994 12.3185 6.95774C14.4705 6.29217 16.7641 7.4352 17.5284 9.55424C18.2927 11.6733 17.2584 14.0192 15.179 14.883C14.6974 15.061 14.3718 15.5157 14.3616 16.0295C14.3616 16.4943 13.9829 16.873 13.5181 16.873Z" fill="#202244"/>
</svg>
