<svg width="19" height="22" viewBox="0 0 19 22" fill="none" xmlns="http://www.w3.org/2000/svg">
<path fill-rule="evenodd" clip-rule="evenodd" d="M10.8843 9.43493C10.8781 9.85728 10.657 10.2515 10.2839 10.4841V12.504C10.2839 12.9145 9.93428 13.2449 9.50001 13.2449C9.06574 13.2449 8.71613 12.9145 8.71613 12.504V10.4841C8.34301 10.2515 8.12195 9.85728 8.11568 9.43493C8.11568 8.71176 8.73495 8.12641 9.50001 8.12641C10.2651 8.12641 10.8843 8.71176 10.8843 9.43493ZM17.1867 12.2313C16.7023 15.3744 12.9601 18.1471 10.7793 19.5252C10.0017 20.0172 8.99833 20.0172 8.22072 19.5252C6.03997 18.1471 2.29773 15.3744 1.82113 12.3187L1.56872 5.02033C1.55774 4.68838 1.77723 4.39348 2.1143 4.28975C4.53335 3.62289 6.86618 2.72041 9.08299 1.5912C9.3401 1.4356 9.65992 1.4356 9.91704 1.5912C12.1338 2.72041 14.4729 3.62289 16.892 4.28975C17.2228 4.39348 17.4439 4.68838 17.4313 5.02033L17.1867 12.2313ZM17.3576 2.87601C15.0609 2.2462 12.844 1.38966 10.7307 0.330095C9.97818 -0.110032 9.02185 -0.110032 8.26932 0.330095C6.15598 1.38966 3.93917 2.2462 1.6424 2.87601C0.639036 3.17832 -0.02883 4.07487 0.00095742 5.07072L0.25807 12.4462C0.841277 16.1569 4.95037 19.2481 7.35689 20.7582C8.65499 21.5806 10.345 21.5806 11.6431 20.7582C14.0512 19.2481 18.1603 16.1569 18.7482 12.3647L18.9991 5.07072C19.0289 4.07487 18.3626 3.17832 17.3576 2.87601Z" fill="#202244"/>
</svg>
