<svg width="40" height="40" viewBox="0 0 40 40" fill="none" xmlns="http://www.w3.org/2000/svg">
<circle cx="20" cy="20" r="19" stroke="#0961F5" stroke-width="2"/>
<path fill-rule="evenodd" clip-rule="evenodd" d="M19.6195 11C22.3825 11 25.4812 12.9476 25.8313 16.0769V17.7077C25.951 18.2945 26.2291 18.8435 26.6296 19.2899C26.6539 19.3178 26.6764 19.3457 26.6926 19.3781C27.0589 19.9298 27.2695 20.5661 27.301 21.2231L27.2767 21.3887C27.3046 22.2887 27.0058 23.1707 26.4289 23.8673C25.6981 24.6584 24.6964 25.1543 23.62 25.256C20.9659 25.544 18.2866 25.544 15.6361 25.256C14.5741 25.1471 13.5904 24.6512 12.8731 23.8673C12.289 23.1815 11.9803 22.3031 12.001 21.4067V21.2942C12.0469 20.6192 12.2719 19.9649 12.658 19.4024L12.7219 19.3214C13.1224 18.8714 13.3969 18.3269 13.5202 17.7392V16.1084L13.5616 16.0166C13.6993 15.7844 13.9594 15.6512 14.233 15.6791C14.539 15.7142 14.7892 15.9464 14.8378 16.2488V17.8805V17.9678C14.6695 18.7868 14.2897 19.5464 13.7344 20.1692C13.5202 20.5094 13.4005 20.8964 13.3825 21.2942V21.4697C13.3654 22.0286 13.5517 22.5767 13.9099 23.0132C14.4058 23.5226 15.07 23.8358 15.7801 23.8988C18.3469 24.1769 20.9389 24.1769 23.5075 23.8988C24.2392 23.8322 24.9187 23.5055 25.4164 22.9745C25.7575 22.5488 25.9339 22.0178 25.9195 21.4769V21.2942C25.9015 20.8928 25.7863 20.5067 25.5748 20.162C24.9988 19.5428 24.5938 18.7832 24.4111 17.9606C24.4075 17.9327 24.4075 17.9012 24.4111 17.8733V16.2344C24.1789 13.844 21.775 12.3608 19.6825 12.3608C18.7933 12.3608 17.9176 12.5858 17.1445 13.0178L17.0491 13.0673C16.8529 13.1447 16.6315 13.1303 16.4452 13.025C16.2301 12.8981 16.0969 12.6668 16.1041 12.4202C16.1104 12.1709 16.2517 11.9459 16.4731 11.8334C17.4325 11.2916 18.5152 11.0072 19.6195 11ZM21.1279 26.813C21.3772 26.588 21.7606 26.5745 22.0279 26.7959C22.3195 27.0344 22.3618 27.4673 22.1188 27.7553C21.5212 28.532 20.5978 28.9892 19.6123 29L19.4152 28.9928C18.508 28.9262 17.6683 28.4798 17.113 27.7553L17.0527 27.6743C16.8808 27.3899 16.9366 27.0137 17.2039 26.7959C17.4955 26.5529 17.932 26.5952 18.1741 26.8868C18.2803 27.0281 18.4063 27.1505 18.5503 27.2558C18.9301 27.5375 19.408 27.6572 19.876 27.587C20.3476 27.5168 20.7688 27.2666 21.0514 26.8868H21.0577L21.1279 26.813Z" fill="#0961F5"/>
<path d="M25.8313 16.0769H25.9017L25.9008 16.0691L25.8313 16.0769ZM25.8313 17.7077H25.7598L25.7627 17.7217L25.8313 17.7077ZM26.6296 19.2899L26.6824 19.2439L26.6817 19.2432L26.6296 19.2899ZM26.6926 19.3781L26.6295 19.4096L26.6343 19.4168L26.6926 19.3781ZM27.301 21.2231L27.3716 21.2335L27.3709 21.2197L27.301 21.2231ZM27.2767 21.3887L27.2063 21.3784L27.2067 21.3909L27.2767 21.3887ZM26.4289 23.8673L26.4804 23.9149L26.4828 23.9119L26.4289 23.8673ZM23.62 25.256L23.6134 25.1863L23.6124 25.1864L23.62 25.256ZM15.6361 25.256L15.6436 25.1864L15.6432 25.1864L15.6361 25.256ZM12.8731 23.8673L12.8198 23.9127L12.8214 23.9146L12.8731 23.8673ZM12.001 21.4067L12.071 21.4083V21.4067H12.001ZM12.001 21.2942L11.931 21.2894V21.2942H12.001ZM12.658 19.4024L12.6029 19.3589L12.6003 19.3628L12.658 19.4024ZM12.7219 19.3214L12.6695 19.2748L12.6669 19.278L12.7219 19.3214ZM13.5202 17.7392L13.5887 17.7536L13.5902 17.7465V17.7392H13.5202ZM13.5202 16.1084L13.4564 16.0796L13.4502 16.0933V16.1084H13.5202ZM13.5616 16.0166L13.501 15.9807L13.4978 15.9878L13.5616 16.0166ZM14.233 15.6791L14.241 15.6096L14.2401 15.6095L14.233 15.6791ZM14.8378 16.2488H14.9087L14.9069 16.2377L14.8378 16.2488ZM14.8378 17.9678L14.9063 17.9819L14.9078 17.9749V17.9678H14.8378ZM13.7344 20.1692L13.6814 20.122L13.6751 20.1319L13.7344 20.1692ZM13.3825 21.2942L13.3125 21.291V21.2942H13.3825ZM13.3825 21.4697L13.4525 21.4718V21.4697H13.3825ZM13.9099 23.0132L13.8556 23.0578L13.8597 23.062L13.9099 23.0132ZM15.7801 23.8988L15.7876 23.8292L15.7863 23.8291L15.7801 23.8988ZM23.5075 23.8988L23.5011 23.8291L23.4999 23.8292L23.5075 23.8988ZM25.4164 22.9745L25.4676 23.0225L25.471 23.0183L25.4164 22.9745ZM25.9195 21.4769H25.8495L25.8495 21.4788L25.9195 21.4769ZM25.9195 21.2942H25.9895L25.9894 21.2911L25.9195 21.2942ZM25.5748 20.162L25.6356 20.1247L25.626 20.1143L25.5748 20.162ZM24.4111 17.9606L24.3414 17.9696L24.3427 17.9758L24.4111 17.9606ZM24.4111 17.8733L24.4811 17.8823V17.8733H24.4111ZM24.4111 16.2344H24.4814L24.4807 16.2276L24.4111 16.2344ZM17.1445 13.0178L17.1767 13.08L17.1786 13.0789L17.1445 13.0178ZM17.0491 13.0673L17.0749 13.1328L17.0813 13.1294L17.0491 13.0673ZM16.4452 13.025L16.4096 13.0853L16.4107 13.0859L16.4452 13.025ZM16.1041 12.4202L16.174 12.4222L16.1741 12.422L16.1041 12.4202ZM16.4731 11.8334L16.5048 11.8959L16.5075 11.8944L16.4731 11.8334ZM21.1279 26.813L21.0808 26.7609L21.0772 26.7648L21.1279 26.813ZM22.0279 26.7959L21.9832 26.8498L21.9836 26.8501L22.0279 26.7959ZM22.1188 27.7553L22.0652 27.7101L22.0633 27.7126L22.1188 27.7553ZM19.6123 29L19.6097 29.07L19.613 29.07L19.6123 29ZM19.4152 28.9928L19.41 29.0627L19.4126 29.0628L19.4152 28.9928ZM17.113 27.7553L17.0568 27.7971L17.0574 27.7979L17.113 27.7553ZM17.0527 27.6743L16.9925 27.7107L16.9965 27.7161L17.0527 27.6743ZM17.2039 26.7959L17.2481 26.8502L17.2487 26.8497L17.2039 26.7959ZM18.1741 26.8868L18.2301 26.8447L18.2279 26.8421L18.1741 26.8868ZM18.5503 27.2558L18.592 27.1996L18.5916 27.1993L18.5503 27.2558ZM19.876 27.587L19.8657 27.5178L19.8656 27.5178L19.876 27.587ZM21.0514 26.8868V26.8168H21.0162L20.9952 26.845L21.0514 26.8868ZM21.0577 26.8868V26.9568H21.0877L21.1084 26.935L21.0577 26.8868ZM19.6195 11.07C22.3577 11.07 25.4167 13.0007 25.7617 16.0847L25.9008 16.0691C25.5457 12.8945 22.4072 10.93 19.6195 10.93V11.07ZM25.7613 16.0769V17.7077H25.9013V16.0769H25.7613ZM25.7627 17.7217C25.8849 18.3208 26.1688 18.8811 26.5775 19.3366L26.6817 19.2432C26.2894 18.8059 26.017 18.2682 25.8999 17.6937L25.7627 17.7217ZM26.5768 19.3359C26.6005 19.363 26.618 19.3854 26.63 19.4094L26.7552 19.3468C26.7348 19.306 26.7073 19.2726 26.6824 19.2439L26.5768 19.3359ZM26.6343 19.4168C26.9937 19.9581 27.2002 20.5822 27.2311 21.2265L27.3709 21.2197C27.3388 20.55 27.1241 19.9015 26.7509 19.3394L26.6343 19.4168ZM27.2317 21.2129L27.2074 21.3785L27.3459 21.3989L27.3702 21.2333L27.2317 21.2129ZM27.2067 21.3909C27.2341 22.274 26.9409 23.1393 26.375 23.8227L26.4828 23.9119C27.0707 23.2021 27.3751 22.3034 27.3466 21.3865L27.2067 21.3909ZM26.3775 23.8198C25.6584 24.5982 24.6727 25.0862 23.6134 25.1863L23.6266 25.3257C24.7201 25.2224 25.7378 24.7186 26.4803 23.9148L26.3775 23.8198ZM23.6124 25.1864C20.9633 25.4739 18.2891 25.4739 15.6436 25.1864L15.6285 25.3256C18.284 25.6141 20.9684 25.6141 23.6275 25.3256L23.6124 25.1864ZM15.6432 25.1864C14.5983 25.0792 13.6304 24.5913 12.9247 23.82L12.8214 23.9146C13.5503 24.7111 14.5499 25.215 15.6289 25.3256L15.6432 25.1864ZM12.9264 23.8219C12.3535 23.1493 12.0507 22.2877 12.071 21.4083L11.931 21.4051C11.9099 22.3185 12.2245 23.2137 12.8198 23.9127L12.9264 23.8219ZM12.071 21.4067V21.2942H11.931V21.4067H12.071ZM12.0708 21.2989C12.1159 20.6363 12.3367 19.9941 12.7157 19.442L12.6003 19.3628C12.207 19.9357 11.9779 20.6021 11.9311 21.2895L12.0708 21.2989ZM12.7129 19.4458L12.7768 19.3648L12.6669 19.278L12.603 19.359L12.7129 19.4458ZM12.7742 19.3679C13.1828 18.9088 13.4629 18.3532 13.5887 17.7536L13.4517 17.7248C13.3309 18.3006 13.062 18.834 12.6696 19.2749L12.7742 19.3679ZM13.5902 17.7392V16.1084H13.4502V17.7392H13.5902ZM13.584 16.1372L13.6254 16.0454L13.4978 15.9878L13.4564 16.0796L13.584 16.1372ZM13.6218 16.0523C13.7456 15.8435 13.9795 15.7236 14.2259 15.7487L14.2401 15.6095C13.9392 15.5788 13.6529 15.7253 13.5014 15.9809L13.6218 16.0523ZM14.225 15.7486C14.5009 15.7803 14.7252 15.9896 14.7687 16.2599L14.9069 16.2377C14.8531 15.9032 14.577 15.6481 14.241 15.6096L14.225 15.7486ZM14.7678 16.2488V17.8805H14.9078V16.2488H14.7678ZM14.7678 17.8805V17.9678H14.9078V17.8805H14.7678ZM14.7692 17.9537C14.6034 18.7607 14.2292 19.5091 13.6821 20.1226L13.7866 20.2158C14.3502 19.5837 14.7356 18.8129 14.9063 17.9819L14.7692 17.9537ZM13.6751 20.1319C13.4544 20.4825 13.3311 20.8812 13.3125 21.291L13.4524 21.2974C13.4699 20.9116 13.5859 20.5363 13.7936 20.2065L13.6751 20.1319ZM13.3125 21.2942V21.4697H13.4525V21.2942H13.3125ZM13.3125 21.4676C13.2949 22.0434 13.4869 22.6081 13.8558 23.0576L13.964 22.9688C13.6165 22.5453 13.4359 22.0138 13.4524 21.4718L13.3125 21.4676ZM13.8597 23.062C14.3674 23.5836 15.0473 23.9041 15.7739 23.9685L15.7863 23.8291C15.0927 23.7675 14.4441 23.4616 13.96 22.9644L13.8597 23.062ZM15.7725 23.9684C18.3444 24.247 20.9414 24.247 23.515 23.9684L23.4999 23.8292C20.9363 24.1068 18.3494 24.1068 15.7876 23.8292L15.7725 23.9684ZM23.5138 23.9685C24.2622 23.9004 24.9577 23.5662 25.4675 23.0224L25.3653 22.9266C24.8796 23.4448 24.2162 23.764 23.5011 23.8291L23.5138 23.9685ZM25.471 23.0183C25.8225 22.5796 26.0043 22.0324 25.9895 21.475L25.8495 21.4788C25.8635 22.0032 25.6924 22.518 25.3617 22.9307L25.471 23.0183ZM25.9895 21.4769V21.2942H25.8495V21.4769H25.9895ZM25.9894 21.2911C25.9709 20.8782 25.8523 20.4805 25.6344 20.1254L25.5151 20.1986C25.7202 20.5329 25.8321 20.9074 25.8495 21.2973L25.9894 21.2911ZM25.626 20.1143C25.0583 19.504 24.6593 18.7556 24.4794 17.9454L24.3427 17.9758C24.5282 18.8108 24.9393 19.5816 25.5235 20.2097L25.626 20.1143ZM24.4805 17.9516C24.4777 17.9297 24.4777 17.9042 24.4805 17.8823L24.3417 17.8643C24.3373 17.8982 24.3373 17.9357 24.3417 17.9696L24.4805 17.9516ZM24.4811 17.8733V16.2344H24.3411V17.8733H24.4811ZM24.4807 16.2276C24.244 13.7903 21.7987 12.2908 19.6825 12.2908V12.4308C21.7512 12.4308 24.1138 13.8977 24.3414 16.2412L24.4807 16.2276ZM19.6825 12.2908C18.7815 12.2908 17.894 12.5188 17.1103 12.9567L17.1786 13.0789C17.9411 12.6528 18.805 12.4308 19.6825 12.4308V12.2908ZM17.1122 12.9557L17.0168 13.0052L17.0813 13.1294L17.1767 13.0799L17.1122 12.9557ZM17.0234 13.0022C16.8468 13.0719 16.6475 13.0589 16.4796 12.9641L16.4107 13.0859C16.6155 13.2017 16.859 13.2175 17.0748 13.1324L17.0234 13.0022ZM16.4807 12.9647C16.2865 12.8501 16.1676 12.6421 16.174 12.4222L16.0341 12.4182C16.0261 12.6915 16.1736 12.9461 16.4096 13.0853L16.4807 12.9647ZM16.1741 12.422C16.1797 12.1982 16.3065 11.9966 16.5048 11.8958L16.4414 11.771C16.1969 11.8952 16.041 12.1436 16.0341 12.4184L16.1741 12.422ZM16.5075 11.8944C17.4564 11.3585 18.5274 11.0771 19.6199 11.07L19.619 10.93C18.503 10.9373 17.4086 11.2247 16.4387 11.7724L16.5075 11.8944ZM21.1748 26.865C21.3985 26.663 21.7429 26.6508 21.9832 26.8498L22.0725 26.742C21.7782 26.4982 21.3558 26.513 21.081 26.761L21.1748 26.865ZM21.9836 26.8501C22.2452 27.0641 22.2828 27.4524 22.0653 27.7102L22.1723 27.8004C22.4408 27.4823 22.3937 27.0047 22.0722 26.7417L21.9836 26.8501ZM22.0633 27.7126C21.4789 28.4721 20.5758 28.9194 19.6115 28.93L19.613 29.07C20.6198 29.059 21.5634 28.5919 22.1743 27.798L22.0633 27.7126ZM19.6148 28.93L19.4177 28.9228L19.4126 29.0628L19.6097 29.07L19.6148 28.93ZM19.4203 28.923C18.5327 28.8578 17.7115 28.4211 17.1685 27.7127L17.0574 27.7979C17.6251 28.5385 18.4832 28.9946 19.4101 29.0626L19.4203 28.923ZM17.1691 27.7135L17.1088 27.6325L16.9965 27.7161L17.0568 27.7971L17.1691 27.7135ZM17.1126 27.6381C16.9582 27.3827 17.0086 27.0453 17.2481 26.8502L17.1597 26.7416C16.8645 26.9821 16.8034 27.3971 16.9928 27.7105L17.1126 27.6381ZM17.2487 26.8497C17.5103 26.6317 17.9026 26.6694 18.1202 26.9315L18.2279 26.8421C17.9613 26.521 17.4807 26.4741 17.1591 26.7421L17.2487 26.8497ZM18.1181 26.9289C18.2287 27.076 18.3597 27.2032 18.509 27.3123L18.5916 27.1993C18.4528 27.0978 18.3319 26.9802 18.23 26.8447L18.1181 26.9289ZM18.5086 27.312C18.9033 27.6048 19.3999 27.7292 19.8864 27.6562L19.8656 27.5178C19.416 27.5852 18.9569 27.4702 18.592 27.1996L18.5086 27.312ZM19.8863 27.6562C20.3759 27.5833 20.8137 27.3234 21.1075 26.9286L20.9952 26.845C20.7238 27.2098 20.3192 27.4503 19.8657 27.5178L19.8863 27.6562ZM21.0514 26.9568H21.0577V26.8168H21.0514V26.9568ZM21.1084 26.935L21.1786 26.8612L21.0772 26.7648L21.007 26.8386L21.1084 26.935Z" fill="#0961F5"/>
</svg>
