<svg width="24" height="24" viewBox="0 0 24 24" fill="none" xmlns="http://www.w3.org/2000/svg">
<path fill-rule="evenodd" clip-rule="evenodd" d="M17.7991 18.6282C17.6437 18.627 17.4938 18.5648 17.3832 18.4554L15.694 16.7618C15.4811 16.529 15.4891 16.1707 15.7114 15.9471C15.9338 15.7235 16.2934 15.7156 16.5261 15.9276L17.7991 17.2042L20.4041 14.5945C20.5504 14.4331 20.7728 14.3665 20.9837 14.4204C21.1946 14.4735 21.358 14.6384 21.4111 14.8481C21.4642 15.0587 21.3972 15.2823 21.2359 15.4274L18.2162 18.4554C18.1056 18.566 17.9557 18.6282 17.7991 18.6282ZM13.725 18.6952C13.2147 18.9406 12.6802 19.1305 12.1293 19.2618C12.0361 19.2851 11.9393 19.2851 11.8473 19.2618C8.40787 18.4244 6.24765 15.8226 5.23508 11.3096C5.16458 10.9928 5.36515 10.6784 5.68163 10.6091C5.99871 10.5389 6.31342 10.7394 6.38214 11.0565C7.67167 16.8022 10.7813 17.7814 11.9862 18.082C12.4463 17.9725 12.892 17.8147 13.3185 17.6097C13.4105 17.9864 13.5477 18.3507 13.725 18.6952ZM21.8317 12.236C20.9722 11.5243 19.9086 11.1022 18.7946 11.0323C18.9721 10.2012 19.1022 9.36055 19.1827 8.51374C19.2025 8.35211 19.1506 8.19077 19.0411 8.07132C18.9373 7.94655 18.7854 7.87163 18.6229 7.86456C16.0869 7.75867 13.8367 6.70215 12.4472 4.96253C12.3322 4.82774 12.165 4.75046 11.9877 4.75046C11.8113 4.75046 11.6432 4.82774 11.529 4.96253C10.1398 6.70215 7.89052 7.75867 5.35247 7.86456C5.02655 7.87724 4.77289 8.15154 4.78675 8.47776C4.79943 8.80368 5.07374 9.05704 5.39966 9.04436C8.01971 8.93847 10.3805 7.91765 11.9877 6.22522C13.5766 7.83477 15.6917 8.81872 17.9454 8.99717C17.8602 9.70122 17.7392 10.4005 17.5814 11.0919C15.0304 11.5296 13.1663 13.742 13.1651 16.3297C13.1651 16.7606 13.2159 17.1903 13.3185 17.6097C13.4117 17.9864 13.5477 18.3507 13.725 18.6952C14.2332 19.7192 15.0593 20.5513 16.0801 21.0663C14.8186 21.8219 13.4324 22.3452 11.9877 22.6124C4.71655 21.1848 1.14823 14.8549 1.39009 3.79452C1.39363 3.73317 1.43168 3.6789 1.48713 3.65472C1.54229 3.62935 1.60806 3.6385 1.65526 3.67654C2.62535 4.32219 3.76946 4.65608 4.93423 4.63189C7.13132 4.63189 8.9261 3.60517 9.51511 2.01862C9.62926 1.65495 9.95842 1.39982 10.3401 1.38153H13.6432C14.0223 1.40218 14.3485 1.65613 14.4614 2.01862C14.7806 2.83328 15.3796 3.50606 16.1515 3.9187C17.0364 4.40271 18.033 4.64782 19.0411 4.63189C20.2071 4.65608 21.3512 4.32219 22.3213 3.67654C22.349 3.65354 22.3847 3.64085 22.4216 3.64085C22.5092 3.63849 22.5817 3.70663 22.5862 3.79452C22.6912 6.62841 22.4378 9.46496 21.8317 12.236ZM18.8418 20.436C18.7161 20.4522 18.5908 20.4601 18.4639 20.459C18.0422 20.4613 17.6227 20.3956 17.2219 20.2643C16.1309 19.9222 15.2333 19.1364 14.7493 18.0994C14.5685 17.7366 14.4488 17.3458 14.3957 16.9437C14.36 16.7411 14.3414 16.5358 14.3426 16.3297C14.3438 14.5266 15.5132 12.9318 17.2322 12.3894H17.2393C17.6342 12.2638 18.0481 12.2003 18.4628 12.2003H18.517C19.6461 12.2154 20.7185 12.6959 21.4836 13.5276C21.8408 13.9078 22.1187 14.355 22.3018 14.8434C22.4894 15.3168 22.5853 15.8203 22.5853 16.3297C22.5853 18.4601 20.9631 20.2401 18.8418 20.436ZM23.7639 3.76414C23.7489 3.03591 23.1498 2.45456 22.4204 2.46105C22.1405 2.46223 21.8662 2.55101 21.6382 2.71471C20.866 3.21612 19.9617 3.47273 19.0423 3.45209C17.7531 3.44619 16.0686 2.96807 15.5687 1.61189C15.2885 0.782778 14.519 0.218241 13.6432 0.201724H10.3401C9.4635 0.218241 8.69131 0.781303 8.40905 1.61189C7.90792 2.96807 6.22464 3.45209 4.93541 3.45209C4.01604 3.47155 3.11143 3.21465 2.33954 2.71471C2.11154 2.55101 1.83724 2.46223 1.55733 2.46105C0.827917 2.45456 0.228871 3.03591 0.213829 3.76414C-0.0454331 15.5451 3.88243 22.2818 11.8842 23.7922C11.9187 23.7966 11.9544 23.799 11.99 23.7978C12.0269 23.799 12.065 23.7966 12.1018 23.7922C14.0488 23.4545 15.897 22.6885 17.5121 21.55C17.8268 21.6099 18.146 21.6388 18.4663 21.6388C21.394 21.632 23.7639 19.2573 23.7651 16.3297C23.7672 15.2351 23.4274 14.1671 22.7938 13.2743C23.5229 10.5952 23.8456 7.42596 23.7639 3.76414Z" fill="#202244"/>
<path d="M17.3832 18.4554L17.2404 18.5979L17.2413 18.5988L17.3832 18.4554ZM15.694 16.7618L15.5451 16.8981L15.5512 16.9042L15.694 16.7618ZM16.5261 15.9276L16.6691 15.785L16.662 15.7785L16.5261 15.9276ZM17.7991 17.2042L17.6562 17.3467L17.799 17.4899L17.9419 17.3467L17.7991 17.2042ZM20.4041 14.5945L20.5471 14.7372L20.5536 14.73L20.4041 14.5945ZM20.9837 14.4204L20.9337 14.6159L20.9344 14.6161L20.9837 14.4204ZM21.4111 14.8481L21.6067 14.7988L21.6067 14.7986L21.4111 14.8481ZM21.2359 15.4274L21.1008 15.2772L21.093 15.2849L21.2359 15.4274ZM18.2162 18.4554L18.3588 18.598L18.359 18.5978L18.2162 18.4554ZM12.1293 19.2618L12.0825 19.0655L12.0803 19.066L12.1293 19.2618ZM11.8473 19.2618L11.8968 19.0662L11.895 19.0657L11.8473 19.2618ZM5.23508 11.3096L5.03812 11.3534L5.0382 11.3538L5.23508 11.3096ZM5.68163 10.6091L5.7248 10.8062L5.72525 10.8061L5.68163 10.6091ZM6.38214 11.0565L6.18494 11.0993L6.18527 11.1007L6.38214 11.0565ZM11.9862 18.082L11.9374 18.2777L11.9851 18.2896L12.0329 18.2783L11.9862 18.082ZM13.3185 17.6097L13.5145 17.5619L13.4554 17.3201L13.2311 17.4279L13.3185 17.6097ZM18.7946 11.0323L18.5973 10.9902L18.5484 11.2191L18.7819 11.2337L18.7946 11.0323ZM19.1827 8.51374L18.9824 8.48925L18.9819 8.49464L19.1827 8.51374ZM19.0411 8.07132L18.8859 8.20053L18.8924 8.20761L19.0411 8.07132ZM18.6229 7.86456L18.6317 7.66297L18.6313 7.66296L18.6229 7.86456ZM12.4472 4.96253L12.605 4.83654L12.6007 4.83155L12.4472 4.96253ZM11.529 4.96253L11.375 4.83208L11.3714 4.83662L11.529 4.96253ZM5.35247 7.86456L5.36031 8.06618L5.36088 8.06615L5.35247 7.86456ZM4.78675 8.47776L4.98837 8.46991L4.98834 8.46919L4.78675 8.47776ZM5.39966 9.04436L5.40751 9.24598L5.40781 9.24597L5.39966 9.04436ZM11.9877 6.22522L12.1313 6.08347L11.9849 5.93516L11.8414 6.08627L11.9877 6.22522ZM17.9454 8.99717L18.1457 9.02142L18.171 8.81262L17.9613 8.79602L17.9454 8.99717ZM17.5814 11.0919L17.6156 11.2908L17.7482 11.268L17.7782 11.1368L17.5814 11.0919ZM13.1651 16.3297L12.9634 16.3296V16.3297H13.1651ZM13.3185 17.6097L13.1225 17.6577L13.1226 17.6582L13.3185 17.6097ZM13.725 18.6952L13.9057 18.6055L13.9044 18.6028L13.725 18.6952ZM16.0801 21.0663L16.1838 21.2394L16.4981 21.0511L16.171 20.8861L16.0801 21.0663ZM11.9877 22.6124L11.9488 22.8104L11.9866 22.8178L12.0244 22.8108L11.9877 22.6124ZM1.39009 3.79452L1.18853 3.7829L1.18837 3.79011L1.39009 3.79452ZM1.48713 3.65472L1.56782 3.8397L1.57144 3.83803L1.48713 3.65472ZM1.65526 3.67654L1.52861 3.83362L1.53579 3.83941L1.54346 3.84452L1.65526 3.67654ZM4.93423 4.63189V4.43007L4.93004 4.43016L4.93423 4.63189ZM9.51511 2.01862L9.70452 2.08894L9.70763 2.07905L9.51511 2.01862ZM10.3401 1.38153V1.17952L10.3304 1.17999L10.3401 1.38153ZM13.6432 1.38153L13.6542 1.17976H13.6432V1.38153ZM14.4614 2.01862L14.2688 2.07866L14.2709 2.08552L14.2736 2.09222L14.4614 2.01862ZM16.1515 3.9187L16.2483 3.74167L16.2466 3.74076L16.1515 3.9187ZM19.0411 4.63189L19.0453 4.43003L19.038 4.43014L19.0411 4.63189ZM22.3213 3.67654L22.4331 3.84452L22.442 3.83862L22.4501 3.83182L22.3213 3.67654ZM22.4216 3.64085V3.8427L22.427 3.84255L22.4216 3.64085ZM22.5862 3.79452L22.7878 3.78705L22.7877 3.78438L22.5862 3.79452ZM18.4639 20.459L18.4658 20.2572L18.4628 20.2572L18.4639 20.459ZM17.2219 20.2643L17.2847 20.0725L17.2823 20.0718L17.2219 20.2643ZM14.7493 18.0994L14.9322 18.014L14.9299 18.0094L14.7493 18.0994ZM14.3957 16.9437L14.5959 16.9173L14.5944 16.9087L14.3957 16.9437ZM14.3426 16.3297L14.5444 16.3308L14.5444 16.3298L14.3426 16.3297ZM17.2322 12.3894V12.1876H17.2011L17.1715 12.197L17.2322 12.3894ZM17.2393 12.3894V12.5912H17.2706L17.3005 12.5817L17.2393 12.3894ZM18.517 12.2003L18.5197 11.9986H18.517V12.2003ZM21.4836 13.5276L21.3351 13.6642L21.3366 13.6658L21.4836 13.5276ZM22.3018 14.8434L22.1129 14.9143L22.1143 14.9177L22.3018 14.8434ZM22.4204 2.46105L22.4213 2.66282L22.4222 2.66282L22.4204 2.46105ZM21.6382 2.71471L21.7482 2.88412L21.7559 2.87861L21.6382 2.71471ZM19.0423 3.45209L19.0469 3.25033L19.0433 3.25031L19.0423 3.45209ZM15.5687 1.61189L15.3775 1.67651L15.3794 1.68168L15.5687 1.61189ZM13.6432 0.201724L13.6471 -4.92641e-05H13.6432V0.201724ZM10.3401 0.201724V-8.50734e-05L10.3363 -1.34548e-05L10.3401 0.201724ZM8.40905 1.61189L8.59838 1.68185L8.60009 1.67681L8.40905 1.61189ZM4.93541 3.45209V3.25027L4.93114 3.25036L4.93541 3.45209ZM2.33954 2.71471L2.22173 2.8788L2.22985 2.88406L2.33954 2.71471ZM1.55733 2.46105L1.55554 2.66282L1.55648 2.66282L1.55733 2.46105ZM0.213829 3.76414L0.415554 3.76858L0.415559 3.76831L0.213829 3.76414ZM11.8842 23.7922L11.8467 23.9908L11.8585 23.9923L11.8842 23.7922ZM11.99 23.7978L11.9965 23.5957L11.9834 23.5962L11.99 23.7978ZM12.1018 23.7922L12.1259 23.9928L12.1363 23.991L12.1018 23.7922ZM17.5121 21.55L17.5498 21.3518L17.4658 21.3358L17.3959 21.3851L17.5121 21.55ZM18.4663 21.6388V21.8405H18.4668L18.4663 21.6388ZM23.7651 16.3297L23.5633 16.3293V16.3296L23.7651 16.3297ZM22.7938 13.2743L22.5991 13.2213L22.5741 13.3133L22.6293 13.391L22.7938 13.2743ZM17.8006 18.4264C17.6978 18.4257 17.5984 18.3844 17.5251 18.3119L17.2413 18.5988C17.3893 18.7452 17.5895 18.8284 17.7976 18.83L17.8006 18.4264ZM17.5261 18.3129L15.8369 16.6193L15.5512 16.9042L17.2404 18.5979L17.5261 18.3129ZM15.8429 16.6255C15.7029 16.4725 15.7079 16.2368 15.8545 16.0894L15.5684 15.8048C15.2702 16.1046 15.2593 16.5855 15.5452 16.898L15.8429 16.6255ZM15.8545 16.0894C16.0004 15.9427 16.237 15.9372 16.3902 16.0768L16.662 15.7785C16.3498 15.494 15.8673 15.5044 15.5684 15.8048L15.8545 16.0894ZM16.3832 16.0701L17.6562 17.3467L17.942 17.0617L16.669 15.7852L16.3832 16.0701ZM17.9419 17.3467L20.5469 14.737L20.2613 14.4519L17.6563 17.0616L17.9419 17.3467ZM20.5536 14.73C20.6496 14.6241 20.7952 14.5805 20.9337 14.6159L21.0337 14.225C20.7505 14.1525 20.4513 14.2421 20.2546 14.4589L20.5536 14.73ZM20.9344 14.6161C21.0727 14.6509 21.1804 14.7592 21.2155 14.8976L21.6067 14.7986C21.5356 14.5176 21.3164 14.2961 21.033 14.2248L20.9344 14.6161ZM21.2154 14.8974C21.2504 15.0363 21.206 15.1829 21.1009 15.2774L21.3708 15.5774C21.5884 15.3817 21.6779 15.0811 21.6067 14.7988L21.2154 14.8974ZM21.093 15.2849L18.0733 18.3129L18.359 18.5978L21.3788 15.5699L21.093 15.2849ZM18.0735 18.3127C18.0007 18.3855 17.9021 18.4264 17.7991 18.4264V18.83C18.0094 18.83 18.2105 18.7464 18.3588 18.598L18.0735 18.3127ZM13.6375 18.5133C13.1402 18.7525 12.6194 18.9376 12.0825 19.0655L12.176 19.458C12.7411 19.3234 13.2892 19.1286 13.8124 18.877L13.6375 18.5133ZM12.0803 19.066C12.019 19.0813 11.9561 19.0812 11.8968 19.0662L11.7978 19.4574C11.9225 19.4889 12.0531 19.4888 12.1782 19.4575L12.0803 19.066ZM11.895 19.0657C10.2157 18.6569 8.85403 17.8197 7.78628 16.5351C6.71614 15.2476 5.93364 13.5014 5.43196 11.2654L5.0382 11.3538C5.54909 13.6308 6.35298 15.442 7.47594 16.793C8.6013 18.1469 10.0395 19.0293 11.7996 19.4578L11.895 19.0657ZM5.43203 11.2658C5.38576 11.0578 5.51762 10.8516 5.7248 10.8062L5.63847 10.412C5.21268 10.5052 4.94341 10.9278 5.03812 11.3534L5.43203 11.2658ZM5.72525 10.8061C5.93379 10.7599 6.14004 10.892 6.18495 11.0993L6.57934 11.0138C6.4868 10.5868 6.06362 10.3178 5.63802 10.4121L5.72525 10.8061ZM6.18527 11.1007C6.83735 14.0061 7.95467 15.7265 9.07942 16.7597C10.204 17.7928 11.3197 18.1237 11.9374 18.2777L12.0351 17.8862C11.4478 17.7397 10.4063 17.4307 9.35242 16.4626C8.29874 15.4946 7.21647 13.8526 6.57902 11.0123L6.18527 11.1007ZM12.0329 18.2783C12.507 18.1655 12.9663 18.0029 13.4059 17.7916L13.2311 17.4279C12.8177 17.6266 12.3857 17.7796 11.9395 17.8857L12.0329 18.2783ZM13.1225 17.6576C13.2184 18.05 13.3612 18.4292 13.5455 18.7875L13.9044 18.6028C13.7342 18.2721 13.6027 17.9227 13.5145 17.5619L13.1225 17.6576ZM21.9604 12.0806C21.0681 11.3418 19.9639 10.9035 18.8072 10.831L18.7819 11.2337C19.8533 11.3009 20.8763 11.7069 21.703 12.3914L21.9604 12.0806ZM18.9919 11.0745C19.1711 10.2358 19.3023 9.38751 19.3836 8.53284L18.9819 8.49464C18.9021 9.33359 18.7732 10.1665 18.5973 10.9902L18.9919 11.0745ZM19.383 8.53823C19.4099 8.31801 19.3392 8.09794 19.1899 7.93502L18.8924 8.20761C18.962 8.28361 18.995 8.38621 18.9824 8.48926L19.383 8.53823ZM19.1962 7.94225C19.0558 7.77349 18.8506 7.67251 18.6317 7.66297L18.6141 8.06614C18.7202 8.07076 18.8188 8.11961 18.8861 8.20038L19.1962 7.94225ZM18.6313 7.66296C16.1445 7.55912 13.9526 6.52388 12.6049 4.8366L12.2896 5.08846C13.7209 6.88043 16.0293 7.95821 18.6145 8.06615L18.6313 7.66296ZM12.6007 4.83155C12.4474 4.65191 12.2241 4.54869 11.9877 4.54869V4.95223C12.1058 4.95223 12.217 5.00357 12.2937 5.09351L12.6007 4.83155ZM11.9877 4.54869C11.7525 4.54869 11.5278 4.65172 11.3751 4.83214L11.683 5.09292C11.7585 5.00376 11.8702 4.95223 11.9877 4.95223V4.54869ZM11.3714 4.83662C10.024 6.52387 7.83293 7.55912 5.34406 7.66296L5.36088 8.06615C7.94811 7.95821 10.2557 6.88043 11.6867 5.08844L11.3714 4.83662ZM5.34462 7.66293C4.90737 7.67995 4.56654 8.04819 4.58516 8.48633L4.98834 8.46919C4.97924 8.25489 5.14573 8.07453 5.36031 8.06618L5.34462 7.66293ZM4.58513 8.4856C4.60215 8.92306 4.97041 9.26299 5.40751 9.24598L5.39181 8.84274C5.17706 8.8511 4.99671 8.6843 4.98837 8.46991L4.58513 8.4856ZM5.40781 9.24597C8.07423 9.13821 10.4867 8.09886 12.134 6.36416L11.8414 6.08627C10.2743 7.73644 7.9652 8.73874 5.39151 8.84275L5.40781 9.24597ZM11.8441 6.36697C13.467 8.011 15.6274 9.01604 17.9295 9.19831L17.9613 8.79602C15.7559 8.6214 13.6861 7.65854 12.1313 6.08347L11.8441 6.36697ZM17.7451 8.97292C17.6607 9.67019 17.5409 10.3626 17.3847 11.047L17.7782 11.1368C17.9375 10.4385 18.0597 9.73224 18.1457 9.02142L17.7451 8.97292ZM17.5473 10.893C14.8994 11.3474 12.9646 13.6438 12.9634 16.3296L13.3669 16.3297C13.368 13.8403 15.1614 11.7119 17.6156 11.2908L17.5473 10.893ZM12.9634 16.3297C12.9634 16.7764 13.016 17.2223 13.1225 17.6577L13.5145 17.5618C13.4158 17.1584 13.3669 16.7447 13.3669 16.3297H12.9634ZM13.1226 17.6582C13.2196 18.0498 13.361 18.4288 13.5455 18.7875L13.9044 18.6028C13.7344 18.2725 13.6039 17.9229 13.5144 17.5613L13.1226 17.6582ZM13.5442 18.7849C14.0718 19.848 14.9295 20.7118 15.9893 21.2464L16.171 20.8861C15.1892 20.3908 14.3945 19.5905 13.9057 18.6055L13.5442 18.7849ZM15.9764 20.8932C14.7356 21.6365 13.372 22.1511 11.951 22.414L12.0244 22.8108C13.4927 22.5392 14.9016 22.0074 16.1838 21.2394L15.9764 20.8932ZM12.0266 22.4144C8.44734 21.7117 5.78831 19.8074 4.04732 16.7167C2.30134 13.6172 1.4713 9.31051 1.59182 3.79894L1.18837 3.79011C1.06703 9.33891 1.90022 13.7274 3.69572 16.9148C5.49621 20.1111 8.2569 22.0856 11.9488 22.8104L12.0266 22.4144ZM1.59153 3.80615C1.5907 3.82056 1.5822 3.83339 1.5678 3.83966L1.40647 3.46977C1.28117 3.52442 1.19657 3.64579 1.18866 3.7829L1.59153 3.80615ZM1.57144 3.83803C1.55474 3.84571 1.5391 3.84208 1.52861 3.83362L1.7819 3.51947C1.67703 3.43491 1.52984 3.41299 1.40283 3.4714L1.57144 3.83803ZM1.54346 3.84452C2.54777 4.51294 3.73234 4.85866 4.93842 4.83362L4.93004 4.43016C3.80659 4.45349 2.70293 4.13145 1.76705 3.50857L1.54346 3.84452ZM4.93423 4.83366C7.18472 4.83366 9.07642 3.78 9.70427 2.08885L9.32596 1.9484C8.77577 3.43033 7.07792 4.43012 4.93423 4.43012V4.83366ZM9.70763 2.07905C9.79652 1.79584 10.0529 1.5973 10.3497 1.58307L10.3304 1.17999C9.86399 1.20234 9.462 1.51406 9.3226 1.9582L9.70763 2.07905ZM10.3401 1.5833H13.6432V1.17976H10.3401V1.5833ZM13.6323 1.583C13.9271 1.59907 14.1809 1.79662 14.2688 2.07866L14.6541 1.95859C14.516 1.51564 14.1174 1.20528 13.6542 1.18005L13.6323 1.583ZM14.2736 2.09222C14.6103 2.95172 15.2423 3.66143 16.0564 4.09664L16.2466 3.74076C15.517 3.35069 14.9509 2.71484 14.6493 1.94503L14.2736 2.09222ZM16.0547 4.09572C16.9703 4.59657 18.0014 4.85011 19.0443 4.83364L19.038 4.43014C18.0646 4.44552 17.1024 4.20885 16.2483 3.74168L16.0547 4.09572ZM19.037 4.83362C20.2442 4.85866 21.4288 4.51295 22.4331 3.84452L22.2095 3.50857C21.2736 4.13144 20.17 4.45349 19.0453 4.43016L19.037 4.83362ZM22.4501 3.83182C22.4407 3.83969 22.4305 3.84263 22.4216 3.84263V3.43908C22.339 3.43908 22.2574 3.46739 22.1925 3.52127L22.4501 3.83182ZM22.427 3.84255C22.4031 3.8432 22.3856 3.82428 22.3847 3.80467L22.7877 3.78438C22.7779 3.58898 22.6153 3.43379 22.4162 3.43915L22.427 3.84255ZM22.3845 3.80199C22.4889 6.61891 22.2371 9.43846 21.6346 12.1929L22.0288 12.2791C22.6386 9.49146 22.8934 6.63792 22.7878 3.78705L22.3845 3.80199ZM18.8159 20.2359C18.6989 20.251 18.5829 20.2583 18.4658 20.2572L18.4621 20.6607C18.5987 20.662 18.7333 20.6534 18.8676 20.6361L18.8159 20.2359ZM18.4628 20.2572C18.0627 20.2594 17.6649 20.1971 17.2847 20.0725L17.1591 20.4561C17.5806 20.5941 18.0216 20.6632 18.4651 20.6607L18.4628 20.2572ZM17.2823 20.0718C16.2453 19.7466 15.3922 18.9998 14.9322 18.014L14.5665 18.1847C15.0744 19.273 16.0164 20.0977 17.1615 20.4568L17.2823 20.0718ZM14.9299 18.0094C14.759 17.6665 14.6459 17.2972 14.5957 16.9173L14.1956 16.9702C14.2517 17.3944 14.378 17.8067 14.5687 18.1894L14.9299 18.0094ZM14.5944 16.9087C14.5607 16.7173 14.5432 16.5241 14.5443 16.3308L14.1408 16.3285C14.1396 16.5476 14.1593 16.765 14.197 16.9787L14.5944 16.9087ZM14.5444 16.3298C14.5455 14.6147 15.6579 13.0977 17.2929 12.5818L17.1715 12.197C15.3686 12.7659 14.142 14.4385 14.1408 16.3295L14.5444 16.3298ZM17.2322 12.5912H17.2393V12.1876H17.2322V12.5912ZM17.3005 12.5817C17.6754 12.4624 18.0685 12.4021 18.4628 12.4021V11.9986C18.0276 11.9986 17.5931 12.0651 17.1781 12.1971L17.3005 12.5817ZM18.4628 12.4021H18.517V11.9986H18.4628V12.4021ZM18.5143 12.4021C19.5877 12.4164 20.6075 12.8732 21.3351 13.6642L21.6321 13.391C20.8296 12.5185 19.7045 12.0144 18.5197 11.9986L18.5143 12.4021ZM21.3366 13.6658C21.6755 14.0265 21.9391 14.4507 22.1129 14.9142L22.4908 14.7725C22.2983 14.2592 22.0062 13.7892 21.6307 13.3895L21.3366 13.6658ZM22.1143 14.9177C22.2924 15.3674 22.3835 15.8456 22.3835 16.3297H22.7871C22.7871 15.7949 22.6864 15.2662 22.4894 14.7691L22.1143 14.9177ZM22.3835 16.3297C22.3835 18.3559 20.8406 20.0488 18.8232 20.235L18.8603 20.6369C21.0855 20.4314 22.7871 18.5643 22.7871 16.3297H22.3835ZM23.9656 3.75998C23.9483 2.9211 23.2584 2.25181 22.4186 2.25928L22.4222 2.66282C23.0413 2.65731 23.5494 3.15072 23.5622 3.76831L23.9656 3.75998ZM22.4196 2.25928C22.0977 2.26063 21.7826 2.36265 21.5205 2.55081L21.7559 2.87861C21.9498 2.73937 22.1833 2.66382 22.4213 2.66282L22.4196 2.25928ZM21.5283 2.54548C20.7901 3.02481 19.9257 3.2701 19.0469 3.25036L19.0378 3.65381C19.9977 3.67536 20.9419 3.40744 21.7481 2.88393L21.5283 2.54548ZM19.0433 3.25031C18.4201 3.24746 17.7058 3.13006 17.0922 2.8543C16.4795 2.57892 15.9835 2.15387 15.758 1.5421L15.3794 1.68168C15.6538 2.42608 16.25 2.91818 16.9268 3.22238C17.6028 3.52621 18.3753 3.65081 19.0414 3.65386L19.0433 3.25031ZM15.7598 1.54728C15.4524 0.637666 14.6081 0.0181125 13.6471 -1.33796e-05L13.6394 0.403462C14.4299 0.41837 15.1245 0.927889 15.3775 1.67649L15.7598 1.54728ZM13.6432 -4.92641e-05H10.3401V0.403498H13.6432V-4.92641e-05ZM10.3363 -1.34548e-05C9.37485 0.0181026 8.52768 0.635733 8.218 1.54696L8.60009 1.67681C8.85495 0.926873 9.55215 0.41838 10.3439 0.403462L10.3363 -1.34548e-05ZM8.21978 1.54195C7.99361 2.15404 7.49732 2.58057 6.88486 2.8566C6.27158 3.13301 5.55785 3.25031 4.93541 3.25031V3.65386C5.6022 3.65386 6.37473 3.52916 7.05068 3.22451C7.72744 2.91949 8.32336 2.42591 8.59831 1.68182L8.21978 1.54195ZM4.93114 3.25036C4.05213 3.26897 3.18722 3.02334 2.44923 2.54535L2.22985 2.88406C3.03564 3.40596 3.97996 3.67414 4.93968 3.65381L4.93114 3.25036ZM2.45722 2.55081C2.19516 2.36265 1.88002 2.26063 1.55818 2.25928L1.55648 2.66282C1.79446 2.66382 2.02793 2.73937 2.22186 2.87861L2.45722 2.55081ZM1.55913 2.25928C0.71936 2.25181 0.0294266 2.9211 0.0120986 3.75998L0.415559 3.76831C0.428316 3.15072 0.936475 2.65731 1.55554 2.66282L1.55913 2.25928ZM0.0121044 3.7597C-0.117954 9.66959 0.800995 14.341 2.77679 17.7312C4.7576 21.1301 7.79153 23.225 11.8467 23.9905L11.9216 23.5939C7.97507 22.849 5.04419 20.8204 3.12545 17.528C1.2017 14.2271 0.28635 9.63964 0.415554 3.76858L0.0121044 3.7597ZM11.8585 23.9923C11.9012 23.9978 11.9479 24.0011 11.9967 23.9995L11.9834 23.5962C11.9608 23.5969 11.9361 23.5955 11.9098 23.5921L11.8585 23.9923ZM11.9836 23.9995C12.033 24.0011 12.0816 23.9979 12.1259 23.9925L12.0778 23.5919C12.0484 23.5954 12.0208 23.5969 11.9965 23.5961L11.9836 23.9995ZM12.1363 23.991C14.1127 23.6482 15.9888 22.8706 17.6284 21.7149L17.3959 21.3851C15.8051 22.5064 13.9849 23.2608 12.0674 23.5934L12.1363 23.991ZM17.4744 21.7482C17.802 21.8105 18.1338 21.8405 18.4663 21.8405V21.437C18.1581 21.437 17.8516 21.4092 17.5498 21.3518L17.4744 21.7482ZM18.4668 21.8405C21.5057 21.8335 23.9656 19.3686 23.9669 16.3297L23.5633 16.3296C23.5622 19.146 21.2823 21.4305 18.4658 21.437L18.4668 21.8405ZM23.9669 16.33C23.969 15.1934 23.6162 14.0845 22.9584 13.1575L22.6293 13.391C23.2386 14.2497 23.5653 15.2767 23.5633 16.3293L23.9669 16.33ZM22.9885 13.3272C23.7241 10.6246 24.0476 7.43502 23.9656 3.75964L23.5622 3.76864C23.6436 7.4169 23.3218 10.5659 22.5991 13.2213L22.9885 13.3272Z" fill="#202244"/>
</svg>
