<svg width="22" height="20" viewBox="0 0 22 20" fill="none" xmlns="http://www.w3.org/2000/svg">
<path d="M17.6299 0.759193V0.759193C17.9433 0.759193 18.0999 0.759193 18.232 0.770748C19.7001 0.899189 20.8641 2.06316 20.9925 3.53126C21.0041 3.66334 21.0041 3.82001 21.0041 4.13334L21.0041 5.96502C21.0041 6.30324 21.0041 6.47234 20.9265 6.59581C20.8861 6.66019 20.8316 6.71463 20.7672 6.75508C20.6438 6.83266 20.4747 6.83266 20.1365 6.83266L14.2558 6.83266M17.6299 0.759193V0.759193C17.3166 0.759193 17.1599 0.759193 17.0279 0.770748C15.5598 0.89919 14.3958 2.06316 14.2673 3.53126C14.2558 3.66334 14.2558 3.82001 14.2558 4.13334L14.2558 6.83266M17.6299 0.759193L4.80817 0.759192C2.89946 0.759192 1.9451 0.759192 1.35214 1.35215C0.759183 1.94511 0.759183 2.89947 0.759183 4.80817L0.759184 18.9796L4.13334 17.9674L7.50749 18.9796L10.8816 17.9674L14.2558 18.9796L14.2558 6.83266" stroke="#0961F5" stroke-width="1.5"/>
</svg>
