<svg width="22" height="22" viewBox="0 0 22 22" fill="none" xmlns="http://www.w3.org/2000/svg">
<path fill-rule="evenodd" clip-rule="evenodd" d="M8.9375 6.47204L9.48269 7.01723C9.61709 7.15163 9.79275 7.21866 9.96875 7.21866C10.1447 7.21866 10.3204 7.15163 10.4548 7.01723C10.7233 6.74876 10.7233 6.31357 10.4548 6.0451L9.90963 5.49991L13.75 1.65954L14.663 2.57254C14.2897 3.13388 14.0924 3.79457 14.0938 4.46866C14.0938 6.36479 15.6351 7.90616 17.5312 7.90616C18.2053 7.90754 18.866 7.71023 19.4274 7.33691L20.3404 8.24991L16.5 12.0903L15.9548 11.5451C15.7816 11.3664 15.5265 11.2952 15.2862 11.3571C15.0459 11.4203 14.8579 11.608 14.7947 11.8486C14.7328 12.0889 14.8039 12.344 14.9827 12.5172L15.5279 13.0624L8.25 20.3403L7.337 19.4273C7.71031 18.8659 7.90763 18.2053 7.90625 17.5312C7.90625 15.635 6.36487 14.0937 4.46875 14.0937C3.79466 14.0923 3.13397 14.2896 2.57263 14.6629L1.65963 13.7499L8.9375 6.47204ZM0.201438 14.236L2.03844 16.073C2.30691 16.3414 2.74209 16.3414 3.01056 16.073C3.39591 15.6849 3.92081 15.4673 4.46875 15.4687C5.60622 15.4687 6.53125 16.3937 6.53125 17.5312C6.53263 18.0791 6.31503 18.604 5.92694 18.9894C5.65847 19.2578 5.65847 19.693 5.92694 19.9615L7.76394 21.7985C7.89834 21.9329 8.074 21.9999 8.25 21.9999C8.426 21.9999 8.60166 21.9329 8.73606 21.7985L21.7986 8.73598C21.9275 8.60707 22 8.43245 22 8.24991C22 8.06738 21.9275 7.89276 21.7986 7.76385L19.9616 5.92685C19.6931 5.65838 19.2579 5.65838 18.9894 5.92685C18.6041 6.31495 18.0792 6.53254 17.5312 6.53116C16.3938 6.53116 15.4688 5.60613 15.4688 4.46866C15.4688 3.91798 15.6836 3.39995 16.0731 3.01048C16.3415 2.74201 16.3415 2.30682 16.0731 2.03835L14.2361 0.201352C13.9676 -0.0671172 13.5324 -0.0671172 13.2639 0.201352L0.201438 13.2639C0.0725313 13.3928 0 13.5674 0 13.7499C0 13.9324 0.0725313 14.1071 0.201438 14.236Z" fill="#202244"/>
<path fill-rule="evenodd" clip-rule="evenodd" d="M12.9202 10.4545L13.6077 11.142C13.7421 11.2764 13.9177 11.3435 14.0937 11.3435C14.2697 11.3435 14.4454 11.2764 14.5798 11.142C14.8482 10.8736 14.8482 10.4384 14.5798 10.1699L13.8923 9.48241C13.719 9.30366 13.464 9.2325 13.2237 9.29438C12.9834 9.35763 12.7954 9.54566 12.7321 9.78594C12.6702 10.0262 12.7414 10.2813 12.9202 10.4545ZM11.5452 9.07953C11.6796 9.21394 11.8552 9.28097 12.0312 9.28097C12.2072 9.28097 12.3832 9.21394 12.5173 9.07953C12.7857 8.81106 12.7857 8.37588 12.5173 8.10741L11.8298 7.41991C11.6565 7.24116 11.4015 7.17 11.1612 7.23188C10.9209 7.29513 10.7329 7.48316 10.6696 7.72344C10.6077 7.96372 10.6789 8.21878 10.8577 8.39203L11.5452 9.07953Z" fill="#202244"/>
</svg>
