<svg width="22" height="18" viewBox="0 0 22 18" fill="none" xmlns="http://www.w3.org/2000/svg">
<path fill-rule="evenodd" clip-rule="evenodd" d="M1.29013 10.1895H17.5955L12.057 15.6664C11.5681 16.1653 11.5784 16.9627 12.0725 17.4551C12.5705 17.9437 13.3768 17.9539 13.8813 17.4704L21.622 9.81568C21.8646 9.5771 22 9.25305 22 8.91879V8.91369C22 8.74911 21.9652 8.57943 21.8994 8.42506C21.8336 8.27069 21.7381 8.13163 21.622 8.01171L13.8813 0.356965C13.3717 -0.126559 12.5705 -0.116353 12.0725 0.372275C11.5732 0.86473 11.5681 1.6621 12.057 2.16093L17.5955 7.6379H1.29013C0.579266 7.6379 0 8.21073 0 8.91369C0 9.61665 0.579266 10.1895 1.29013 10.1895Z" fill="#0961F5"/>
</svg>
