<svg width="24" height="22" viewBox="0 0 24 22" fill="none" xmlns="http://www.w3.org/2000/svg">
<path fill-rule="evenodd" clip-rule="evenodd" d="M5.15159 6.46439C5.37599 6.44039 5.60159 6.50639 5.77439 6.65159L10.7628 10.6308C11.3856 11.1228 12.2628 11.1228 12.8856 10.6308L17.8224 6.65159H17.8308L17.9388 6.58079C18.2952 6.37079 18.7596 6.44519 19.0308 6.77759C19.1772 6.95639 19.2372 7.18559 19.2144 7.41119C19.1856 7.64039 19.074 7.84679 18.8952 7.98719L13.9596 11.976C12.7032 12.9936 10.9128 12.9936 9.66119 11.976L4.71119 7.98719L4.62239 7.89839C4.34039 7.58879 4.32239 7.11599 4.58399 6.77759C4.72559 6.59999 4.93079 6.48719 5.15159 6.46439ZM17.034 0C20.8776 0.0144 23.9904 3.1452 24 7.01279V8.77079L23.9904 8.88239C23.934 9.29999 23.5824 9.62399 23.1516 9.62399L23.142 9.60479L23.0064 9.59039C22.8324 9.56279 22.6692 9.47759 22.5372 9.35159C22.3824 9.19199 22.2888 8.97239 22.2888 8.74679V7.01279C22.2612 4.10159 19.9272 1.7484 17.034 1.7208H6.96599C4.07399 1.7484 1.7388 4.10159 1.7112 7.01279V14.5872C1.7388 17.4984 4.07399 19.8516 6.96599 19.8792H17.034C19.9272 19.8516 22.2612 17.4984 22.2888 14.5872C22.3404 14.1468 22.7064 13.8144 23.1468 13.8144C23.5824 13.8144 23.9532 14.1468 24 14.5872C23.9904 18.4548 20.8776 21.5856 17.034 21.6H6.96599C3.1224 21.5952 0.00479999 18.4548 0 14.5872V7.01279C0 3.1404 3.1176 0 6.96599 0H17.034Z" fill="#200E32"/>
</svg>
