<svg width="22" height="19" viewBox="0 0 22 19" fill="none" xmlns="http://www.w3.org/2000/svg">
<path d="M17.6667 8.80822e-06V8.80822e-06C17.9762 8.61757e-06 18.131 8.52224e-06 18.2615 0.0114242C19.7118 0.138311 20.8617 1.2882 20.9886 2.73854C21 2.86903 21 3.0238 21 3.33334L21 5.14286C21 5.47698 21 5.64405 20.9234 5.76602C20.8834 5.82962 20.8296 5.8834 20.766 5.92336C20.644 6 20.477 6 20.1429 6L14.3333 6M17.6667 8.80822e-06V8.80822e-06C17.3571 8.64463e-06 17.2024 8.56283e-06 17.0719 0.0114244C15.6215 0.138312 14.4716 1.2882 14.3447 2.73854C14.3333 2.86903 14.3333 3.0238 14.3333 3.33334L14.3333 6M17.6667 8.80822e-06L5 7.91231e-06C3.11438 7.77894e-06 2.17157 7.71226e-06 1.58579 0.585794C0.999999 1.17158 0.999999 2.11439 0.999999 4.00001L1 18L4.33333 17L7.66667 18L11 17L14.3333 18L14.3333 6" stroke="#0961F5" stroke-width="1.5"/>
</svg>
