<svg width="24" height="22" viewBox="0 0 24 22" fill="none" xmlns="http://www.w3.org/2000/svg">
<path fill-rule="evenodd" clip-rule="evenodd" d="M16.2316 16.3636L18 11.6422L19.7684 16.3636H16.2316ZM19.0909 8.72727H16.9091L12 21.8182H14.1818L15.4047 18.5455H20.5865L21.8182 21.8182H24L19.0909 8.72727ZM12.9502 14.2582L10.176 11.5189L10.2098 11.4884C12.1113 9.37091 13.4618 6.93709 14.2582 4.36364H17.4545V2.18182H9.81818V0H7.63637V2.18182H0V4.35055H12.1876C11.4545 6.46036 10.2993 8.45455 8.72727 10.2022C7.71273 9.07636 6.87382 7.84473 6.20837 6.54545H4.02655C4.824 8.32255 5.91491 10.0058 7.27855 11.5189L1.72145 16.9942L3.27273 18.5455L8.72727 13.0909L12.1189 16.4825L12.9502 14.2582Z" fill="#1D1D1B"/>
</svg>
