<svg width="23" height="22" viewBox="0 0 23 22" fill="none" xmlns="http://www.w3.org/2000/svg">
<path d="M17.7379 0.904082C17.2724 0.601185 16.6496 0.732936 16.3467 1.19836C16.0438 1.66378 16.1756 2.28662 16.641 2.58952L17.7379 0.904082ZM21.5164 13.5022L22.4803 13.7882L22.4803 13.7882L21.5164 13.5022ZM1.43901 13.5022L0.475085 13.7882L0.475087 13.7882L1.43901 13.5022ZM6.31444 2.58952C6.77986 2.28662 6.91161 1.66378 6.60871 1.19836C6.30581 0.732936 5.68297 0.601185 5.21755 0.904082L6.31444 2.58952ZM12.4822 1.00547C12.4822 0.450163 12.0321 0 11.4768 0C10.9214 0 10.4713 0.450163 10.4713 1.00547H12.4822ZM10.4713 10.049C10.4713 10.6043 10.9214 11.0545 11.4768 11.0545C12.0321 11.0545 12.4822 10.6043 12.4822 10.049H10.4713ZM16.641 2.58952C20.1533 4.87533 21.7446 9.19872 20.5525 13.2162L22.4803 13.7882C23.9256 8.91734 21.9964 3.67552 17.7379 0.904082L16.641 2.58952ZM20.5525 13.2162C19.3604 17.2335 15.6682 19.9891 11.4777 19.9891V22C16.5585 22 21.035 18.6591 22.4803 13.7882L20.5525 13.2162ZM11.4777 19.9891C7.28717 19.9891 3.59499 17.2335 2.40294 13.2162L0.475087 13.7882C1.92042 18.6591 6.39694 22 11.4777 22V19.9891ZM2.40294 13.2162C1.21086 9.19872 2.80214 4.87533 6.31444 2.58952L5.21755 0.904082C0.959055 3.67552 -0.970221 8.91734 0.475085 13.7882L2.40294 13.2162ZM10.4713 1.00547V10.049H12.4822V1.00547H10.4713Z" fill="#202244"/>
</svg>
