<svg width="17" height="15" viewBox="0 0 17 15" fill="none" xmlns="http://www.w3.org/2000/svg">
<path fill-rule="evenodd" clip-rule="evenodd" d="M10.7863 5.73766C10.2296 5.73766 9.77729 5.20488 9.77729 4.54914C9.77729 3.89341 10.2296 3.36063 10.7863 3.36063C11.343 3.36063 11.7954 3.89341 11.7954 4.54914C11.7954 5.20488 11.343 5.73766 10.7863 5.73766ZM10.7863 2.33606C9.74246 2.33606 8.8726 3.36064 8.8726 4.59014C8.8726 5.81964 9.70767 6.84423 10.7863 6.84423C11.8301 6.84423 12.7 5.81964 12.7 4.59014C12.7 3.36064 11.8301 2.33606 10.7863 2.33606ZM15.6575 10.2541L13.2219 7.90985L10.6958 10.3361L5.35835 4.42626L0.939449 9.25001V1.68038C0.939449 1.35251 1.14822 1.10661 1.42657 1.10661H15.1704C15.4488 1.10661 15.6575 1.35251 15.6575 1.68038V10.2541ZM15.6576 13.2376C15.6576 13.5654 15.4488 13.8113 15.1704 13.8113H13.8378L11.3848 11.0942L13.2219 9.30318L15.6576 11.6146V13.2376ZM1.42657 13.8115C1.14822 13.8115 0.939449 13.5656 0.939449 13.2377V10.7132L5.35835 5.90171L12.5086 13.8115H1.42657ZM15.2052 0H1.46137C0.661096 0 0 0.778684 0 1.7213V13.2786C0 14.2212 0.661096 14.9999 1.46137 14.9999H15.2052C16.0055 14.9999 16.6666 14.2212 16.6666 13.2786V1.7213C16.6666 0.778684 16.0055 0 15.2052 0Z" fill="#167F71"/>
</svg>
