<svg width="19" height="20" viewBox="0 0 19 20" fill="none" xmlns="http://www.w3.org/2000/svg">
<path fill-rule="evenodd" clip-rule="evenodd" d="M8.633 5.043C9 5.082 9.277 5.398 9.277 5.77C9.277 6.145 9 6.457 8.633 6.5H5.891C5.523 6.457 5.246 6.145 5.246 5.77C5.246 5.398 5.523 5.082 5.891 5.043H8.633ZM13.094 9.273C13.367 9.242 13.637 9.371 13.785 9.609C13.93 9.848 13.93 10.152 13.785 10.391C13.637 10.629 13.367 10.758 13.094 10.727H5.883C5.516 10.688 5.238 10.375 5.238 10C5.238 9.625 5.516 9.312 5.883 9.273H13.094ZM13.094 13.512C13.488 13.512 13.805 13.836 13.805 14.234C13.805 14.633 13.488 14.957 13.094 14.957H5.883C5.488 14.957 5.168 14.633 5.168 14.234C5.168 13.836 5.488 13.512 5.883 13.512H13.094ZM13.352 0C16.567 0 18.492 1.953 18.5 5.211V14.789C18.5 18.047 16.586 20 13.363 20H10.504C10.141 19.961 9.863 19.645 9.863 19.273C9.863 18.898 10.141 18.586 10.504 18.543H13.352C15.809 18.543 17.047 17.281 17.047 14.789V5.211C17.047 2.719 15.809 1.457 13.352 1.457H5.637C3.184 1.457 1.938 2.719 1.938 5.211V14.789C1.938 17.281 3.184 18.543 5.637 18.543C6.004 18.586 6.281 18.898 6.281 19.273C6.281 19.645 6.004 19.961 5.637 20C2.426 20 0.5 18.047 0.5 14.789V5.211C0.5 1.941 2.426 0 5.637 0H13.352Z" fill="#0961F5"/>
</svg>
