<svg width="19" height="24" viewBox="0 0 19 24" fill="none" xmlns="http://www.w3.org/2000/svg">
<path fill-rule="evenodd" clip-rule="evenodd" d="M13.5532 0.3065H5.62609C2.3578 0.3065 0.3065 2.58649 0.3065 6.2501V21.3642C0.3065 22.4284 1.15 23.2903 2.18772 23.2903C2.50145 23.2903 2.81173 23.2098 3.08983 23.057L9.54022 19.4749L17.0502 23.0788C17.2524 23.165 17.4811 23.165 17.688 23.0788C17.8891 22.9938 18.0511 22.8283 18.1361 22.6214C18.2626 22.2353 18.1097 21.8135 17.773 21.6067L10.3125 18.0385C9.82177 17.7604 9.23569 17.7604 8.74613 18.0385L2.28655 21.6067C2.21415 21.6469 2.12451 21.6469 2.04867 21.6067C1.98087 21.5619 1.94064 21.4814 1.94064 21.3918V6.2501C1.94984 3.54261 3.2783 1.99925 5.65597 1.99925H13.5796C16.633 1.99925 17.0766 4.53551 17.0766 6.05703V6.7477H8.49906C8.28301 6.75689 8.07731 6.85112 7.92446 7.01316C7.77622 7.17864 7.70037 7.39469 7.70842 7.61878C7.71646 8.06352 8.06811 8.41861 8.49906 8.43126H17.0502V17.3064C17.0502 17.7684 17.4179 18.1453 17.8718 18.1453C18.32 18.1453 18.6889 17.7776 18.6935 17.3156V6.05703C18.6935 2.50604 16.7318 0.3065 13.5532 0.3065Z" fill="#0961F5" stroke="#0961F5" stroke-width="0.6" stroke-linecap="round" stroke-linejoin="round"/>
</svg>
