<svg width="33" height="33" viewBox="0 0 33 33" fill="none" xmlns="http://www.w3.org/2000/svg">
<path fill-rule="evenodd" clip-rule="evenodd" d="M33 16.5C33 25.6126 25.6126 33 16.5 33C7.38737 33 0 25.6126 0 16.5C0 7.38737 7.38737 0 16.5 0C25.6126 0 33 7.38737 33 16.5Z" fill="#ECB13A"/>
<path fill-rule="evenodd" clip-rule="evenodd" d="M31.7585 15.7283C31.7585 24.3615 24.7601 31.3598 16.1269 31.3598C7.494 31.3598 0.495361 24.3615 0.495361 15.7283C0.495361 7.09506 7.494 0.0966797 16.1269 0.0966797C24.7601 0.0966797 31.7585 7.09506 31.7585 15.7283Z" fill="#FFDE4F"/>
<path fill-rule="evenodd" clip-rule="evenodd" d="M25.4028 15.7859C26.2006 15.7797 26.8374 16.4551 26.7667 17.2527C26.2134 23.306 21.91 28.0341 16.6351 28.0918C11.3604 28.1499 6.96016 23.5118 6.27848 17.4716C6.18817 16.6803 6.81214 15.9855 7.60993 15.9789L25.4028 15.7859Z" fill="#645033"/>
<path fill-rule="evenodd" clip-rule="evenodd" d="M11.6688 10.5621C11.6688 11.7878 10.6753 12.7814 9.44952 12.7814C8.22408 12.7814 7.23022 11.7878 7.23022 10.5621C7.23022 9.33638 8.22408 8.34277 9.44952 8.34277C10.6753 8.34277 11.6688 9.33638 11.6688 10.5621Z" fill="#645033"/>
<path fill-rule="evenodd" clip-rule="evenodd" d="M25.9691 10.5884C25.9691 11.8139 24.9756 12.8077 23.7498 12.8077C22.5241 12.8077 21.5305 11.8139 21.5305 10.5884C21.5305 9.36268 22.5241 8.36914 23.7498 8.36914C24.9756 8.36914 25.9691 9.36268 25.9691 10.5884Z" fill="#645033"/>
<path fill-rule="evenodd" clip-rule="evenodd" d="M16.5127 17.3042L7.4104 17.4007C7.51969 18.5008 7.81573 19.5622 8.27882 20.5272L8.37531 20.7264L16.5515 20.6365L24.7273 20.5462L24.8175 20.347C25.255 19.3755 25.5314 18.3013 25.6151 17.2012L16.5127 17.3042Z" fill="white"/>
<path fill-rule="evenodd" clip-rule="evenodd" d="M20.9837 24.1551C18.2497 22.2961 14.8919 22.3345 12.1967 24.2515L11.4954 24.7534L12.2095 25.2358C14.9434 27.0948 18.3013 27.0564 20.9965 25.1393L21.6978 24.6375L20.9837 24.1551Z" fill="#EF4F43"/>
</svg>
