<svg width="24" height="22" viewBox="0 0 24 22" fill="none" xmlns="http://www.w3.org/2000/svg">
<path fill-rule="evenodd" clip-rule="evenodd" d="M18.3318 9.98684C18.7567 9.98684 19.1006 10.34 19.1006 10.7788C19.1006 11.2131 18.7567 11.5651 18.3318 11.5651H17.9786C17.5537 11.5651 17.2052 11.2131 17.2052 10.7788C17.2052 10.34 17.5537 9.98684 17.9786 9.98684H18.3318ZM16.4595 0C20.1543 0 23.1579 3.07537 23.1579 6.85242V15.1476C23.1579 18.9246 20.1543 22 16.4595 22C16.0345 22 15.686 21.6468 15.686 21.208C15.686 20.7738 16.0345 20.4218 16.4595 20.4218C19.2998 20.4218 21.6156 18.0562 21.6156 15.1476V8.52558H17.8119C16.5637 8.53021 15.5459 9.57116 15.5459 10.846C15.5459 12.1266 16.5637 13.1664 17.8119 13.1664H19.3901C19.8197 13.1664 20.1636 13.5242 20.1636 13.9584C20.1636 14.3926 19.8197 14.7493 19.3901 14.7493H17.8119C15.7126 14.7446 14.0036 12.9997 13.9989 10.846C14.0036 8.6981 15.7126 6.94737 17.8119 6.94737H21.6156V6.85242C21.6156 3.94379 19.2998 1.57821 16.4595 1.57821H6.69842C4.40579 1.57821 2.48368 3.12516 1.81326 5.24179H11.99C12.4161 5.24179 12.76 5.59495 12.76 6.03379C12.76 6.468 12.4161 6.82116 11.99 6.82116H1.54695L1.54232 6.85242V15.1476C1.54232 18.0562 3.85347 20.4218 6.69842 20.4218H11.6102C12.0363 20.4218 12.3791 20.7738 12.3791 21.208C12.3791 21.6468 12.0363 22 11.6102 22H6.69842C3.00358 22 0 18.9246 0 15.1476V6.85242C0 3.07537 3.00358 0 6.69842 0H16.4595Z" fill="#202244"/>
</svg>
