<svg width="19" height="21" viewBox="0 0 19 21" fill="none" xmlns="http://www.w3.org/2000/svg">
<path fill-rule="evenodd" clip-rule="evenodd" d="M8.02552 18.7581H4.02552C2.72852 18.7541 1.67752 17.7071 1.66952 16.4101V8.45305C1.66952 8.01905 1.86552 7.60905 2.19752 7.33205L2.90452 6.80805C3.16252 6.53505 3.18552 6.11705 2.96652 5.81205C2.74452 5.50805 2.33752 5.40605 1.99852 5.56605L1.27952 6.10505C0.548516 6.66805 0.119516 7.53105 0.103516 8.45305V16.4181C0.107516 18.5821 1.86152 20.3361 4.02552 20.3401H8.02552C8.45852 20.3401 8.80652 19.9881 8.80652 19.5591C8.80652 19.1251 8.45852 18.7741 8.02552 18.7741V18.7581Z" fill="#202244"/>
<path fill-rule="evenodd" clip-rule="evenodd" d="M18.8967 8.43425C18.8847 7.52325 18.4667 6.66025 17.7557 6.08625L11.7487 1.29725C10.4277 0.23425 8.54469 0.23425 7.22469 1.29725L5.32269 2.68025C4.96269 2.93725 4.88069 3.43425 5.13869 3.79325C5.39669 4.14825 5.89269 4.23025 6.25169 3.97325L8.18169 2.53125C8.93969 1.90625 10.0337 1.90625 10.7917 2.53125L16.7987 7.32025C17.1467 7.59825 17.3497 8.01225 17.3577 8.45325V16.4183C17.3577 17.7153 16.3027 18.7663 15.0097 18.7663H13.2247C13.0417 18.7663 12.8967 18.6173 12.8967 18.4342V14.8442C12.8967 13.6992 11.9707 12.7692 10.8267 12.7662H8.21669C7.66569 12.7662 7.13869 12.9843 6.74869 13.3752C6.35769 13.7662 6.13869 14.2933 6.13869 14.8442V16.2192C6.13869 16.6483 6.49069 17.0002 6.91969 17.0002C7.35369 17.0002 7.70569 16.6483 7.70569 16.2192V14.8442C7.70169 14.7072 7.75169 14.5782 7.84969 14.4803C7.94369 14.3872 8.07269 14.3322 8.20869 14.3322H10.8187C11.0957 14.3322 11.3227 14.5592 11.3227 14.8363V18.4342C11.3267 19.4842 12.1777 20.3323 13.2247 20.3323H14.9627C17.1307 20.3323 18.8847 18.5742 18.8847 16.4102L18.8967 8.43425Z" fill="#202244"/>
</svg>
