<svg width="38" height="38" viewBox="0 0 38 38" fill="none" xmlns="http://www.w3.org/2000/svg">
<rect width="38" height="38" rx="10" fill="#0961F5"/>
<path fill-rule="evenodd" clip-rule="evenodd" d="M28.7549 27.6058L25.3169 24.2468L25.239 24.1258C25.087 23.9728 24.884 23.8908 24.669 23.8908C24.4579 23.8908 24.2509 23.9728 24.103 24.1258C21.181 26.8048 16.681 26.9498 13.583 24.4648C10.485 21.9768 9.75495 17.6328 11.8759 14.3098C13.997 10.9878 18.3099 9.71977 21.9539 11.3448C25.5989 12.9698 27.446 16.9838 26.267 20.7268C26.1849 21.0008 26.2509 21.2938 26.4499 21.5008C26.6459 21.7078 26.9429 21.7938 27.2239 21.7308C27.5049 21.6688 27.7319 21.4608 27.8179 21.1918C29.2239 16.7508 27.0989 11.9698 22.818 9.94077C18.5359 7.91477 13.38 9.25077 10.6889 13.0858C7.99695 16.9218 8.57495 22.1018 12.0519 25.2818C15.5239 28.4578 20.853 28.6758 24.587 25.7938L27.6299 28.7698C27.9429 29.0788 28.45 29.0788 28.767 28.7698C29.079 28.4608 29.079 27.9608 28.767 27.6488L28.7549 27.6058Z" fill="white"/>
</svg>
