<svg width="17" height="14" viewBox="0 0 17 14" fill="none" xmlns="http://www.w3.org/2000/svg">
<path fill-rule="evenodd" clip-rule="evenodd" d="M17 1.65931C16.3625 1.93471 15.6851 2.11746 14.9949 2.20331C15.725 1.76556 16.2699 1.08131 16.5317 0.27466C15.8483 0.67926 15.0977 0.96826 14.314 1.12466C13.2379 -0.04409 11.5082 -0.33649 10.1108 0.41066C8.7091 1.16121 7.9917 2.75836 8.364 4.30196C5.56155 4.15916 2.95205 2.83486 1.18235 0.65631C0.87295 1.19096 0.714 1.79871 0.714 2.41581C0.7106 3.57861 1.292 4.66746 2.261 5.31516C1.7068 5.29816 1.16535 5.14856 0.68085 4.87996V4.92331C0.68765 6.57996 1.8598 8.00116 3.4867 8.32331C3.1807 8.41596 2.86535 8.46271 2.55 8.46611C2.3307 8.46611 2.1114 8.44571 1.8955 8.40576C2.3545 9.82271 3.66265 10.7934 5.15015 10.8198C3.92445 11.7862 2.4106 12.3141 0.85 12.3175C0.5644 12.3175 0.2822 12.3005 0 12.2665C1.59375 13.2967 3.45015 13.8415 5.34565 13.8381C7.9883 13.8679 10.5358 12.8283 12.4049 10.9626C14.2775 9.09681 15.3196 6.55361 15.3 3.91011V3.46216C15.9673 2.96406 16.5419 2.35291 17 1.65931Z" fill="#1DA1F2"/>
</svg>
