<svg width="19" height="20" viewBox="0 0 19 20" fill="none" xmlns="http://www.w3.org/2000/svg">
<path fill-rule="evenodd" clip-rule="evenodd" d="M7.98585 18.4052H3.95361C2.64616 18.4012 1.58669 17.3457 1.57862 16.0383V8.01716C1.57862 7.57966 1.7762 7.16635 2.11088 6.88712L2.82358 6.3589C3.08366 6.0837 3.10684 5.66233 2.88608 5.35487C2.66229 5.04842 2.25201 4.9456 1.91027 5.10689L1.18548 5.65023C0.448587 6.21777 0.016129 7.08772 0 8.01716V16.0464C0.00403224 18.2278 1.77217 19.9959 3.95361 20H7.98585C8.42234 20 8.77315 19.6451 8.77315 19.2127C8.77315 18.7752 8.42234 18.4213 7.98585 18.4213V18.4052Z" fill="#202244"/>
<path fill-rule="evenodd" clip-rule="evenodd" d="M18.9446 7.9982C18.9325 7.07986 18.5112 6.2099 17.7945 5.63128L11.739 0.803676C10.4074 -0.267892 8.50921 -0.267892 7.17857 0.803676L5.26124 2.19782C4.89834 2.45689 4.81568 2.9579 5.07576 3.31979C5.33584 3.67766 5.83583 3.76032 6.19773 3.50124L8.14328 2.04762C8.90739 1.41758 10.0102 1.41758 10.7743 2.04762L16.8297 6.87522C17.1805 7.15546 17.3852 7.5728 17.3932 8.01735V16.0466C17.3932 17.354 16.3297 18.4135 15.0263 18.4135H13.2269C13.0425 18.4135 12.8963 18.2633 12.8963 18.0788V14.4599C12.8963 13.3056 11.9628 12.3681 10.8096 12.3651H8.17857C7.62312 12.3651 7.09188 12.5849 6.69873 12.979C6.30458 13.3732 6.08382 13.9044 6.08382 14.4599V15.8459C6.08382 16.2784 6.43865 16.6332 6.87111 16.6332C7.30861 16.6332 7.66345 16.2784 7.66345 15.8459V14.4599C7.65942 14.3218 7.70982 14.1917 7.80861 14.0929C7.90337 13.9992 8.03341 13.9437 8.1705 13.9437H10.8015C11.0808 13.9437 11.3096 14.1726 11.3096 14.4518V18.0788C11.3136 19.1373 12.1715 19.9921 13.2269 19.9921H14.9789C17.1644 19.9921 18.9325 18.2199 18.9325 16.0385L18.9446 7.9982Z" fill="#202244"/>
</svg>
