<svg width="26" height="17" viewBox="0 0 26 17" fill="none" xmlns="http://www.w3.org/2000/svg">
<path fill-rule="evenodd" clip-rule="evenodd" d="M1.546 8.4686C2.36018 9.88148 6.10706 15.4174 12.9999 15.4174C19.8928 15.4174 23.6402 9.88148 24.4544 8.4686C23.6402 7.05626 19.8928 1.52035 12.9999 1.52035C6.10706 1.52035 2.36018 7.05626 1.546 8.4686ZM12.9999 16.8265C4.20729 16.8265 0.244391 9.06729 0.0810113 8.73999C-0.0270038 8.5245 -0.0270038 8.30522 0.0810113 8.08973C0.244391 7.76243 4.20729 0 12.9999 0C21.7926 0 25.7555 7.76243 25.9194 8.08973C26.0269 8.30522 26.0269 8.5245 25.9194 8.73999C25.7555 9.1194 21.7926 16.8265 12.9999 16.8265Z" fill="#202244"/>
<path fill-rule="evenodd" clip-rule="evenodd" d="M13 3.04103C10.0147 3.04103 7.57211 5.48359 7.57211 8.46893C7.57211 11.4543 10.0147 13.8968 13 13.8968C15.9853 13.8968 18.4279 11.4543 18.4279 8.46893C18.4279 5.48359 15.9853 3.04103 13 3.04103ZM13 15.3092C9.20048 15.3092 6.15977 12.2131 6.15977 8.46893C6.15977 4.72477 9.25584 1.6287 13 1.6287C16.7442 1.6287 19.8408 4.72477 19.8408 8.46893C19.8408 12.2131 16.7995 15.3092 13 15.3092Z" fill="#202244"/>
<path fill-rule="evenodd" clip-rule="evenodd" d="M13 12.2681C10.9369 12.2681 9.20047 10.5844 9.20047 8.46862C9.20047 8.08975 9.52723 7.76245 9.90664 7.76245C10.286 7.76245 10.6128 8.08975 10.6128 8.46862C10.6128 9.77023 11.643 10.8037 12.9446 10.8037C14.2495 10.8037 15.2792 9.77023 15.2792 8.46862C15.2792 7.16755 14.2495 6.13408 12.9446 6.13408C12.5652 6.13408 12.2412 5.81058 12.2412 5.42792C12.2412 5.04851 12.5652 4.725 12.9446 4.725C15.0078 4.725 16.7442 6.40548 16.7442 8.52453C16.7442 10.6398 15.0637 12.2681 13 12.2681Z" fill="#202244"/>
</svg>
