<svg width="20" height="21" viewBox="0 0 20 21" fill="none" xmlns="http://www.w3.org/2000/svg">
<path fill-rule="evenodd" clip-rule="evenodd" d="M5.594 9.309C6.25 9.309 6.781 9.844 6.781 10.5C6.781 11.156 6.25 11.687 5.594 11.687C4.938 11.687 4.402 11.156 4.402 10.5C4.402 9.844 4.938 9.309 5.594 9.309ZM14.398 9.309C15.054 9.309 15.586 9.844 15.586 10.5C15.586 11.152 15.054 11.687 14.398 11.687C13.742 11.687 13.211 11.152 13.211 10.5C13.211 9.844 13.742 9.309 14.398 9.309ZM9.996 9.309C10.652 9.309 11.183 9.844 11.183 10.5C11.183 11.152 10.652 11.687 9.996 11.687C9.34 11.687 8.809 11.152 8.809 10.5C8.809 9.844 9.34 9.309 9.996 9.309ZM10.008 0.5C11.625 0.5 13.234 0.898 14.668 1.652C19.543 4.227 21.418 10.285 18.847 15.164C17.094 18.488 13.64 20.5 9.996 20.5C9.281 20.5 8.562 20.422 7.848 20.266C7.445 20.176 7.191 19.773 7.277 19.371C7.367 18.969 7.766 18.715 8.172 18.801C11.898 19.629 15.742 17.844 17.523 14.465C19.707 10.316 18.113 5.164 13.969 2.98C12.754 2.336 11.383 1.996 10.008 1.996C5.309 1.996 1.496 5.812 1.496 10.5C1.496 11.863 1.828 13.223 2.461 14.43L2.652 14.805C2.887 15.246 2.938 15.793 2.785 16.289C2.573 16.844 2.402 17.383 2.258 17.922C2.816 17.754 3.504 17.504 4 17.324L4.203 17.25C4.59 17.105 5.02 17.309 5.16 17.699C5.301 18.086 5.102 18.516 4.711 18.656L4.512 18.73C3.77 19 2.754 19.367 2.07 19.519C2.012 19.535 1.948 19.543 1.891 19.539C1.434 19.539 1.152 19.355 1 19.195C0.762 18.957 0.648 18.621 0.664 18.195C0.664 18.144 0.672 18.098 0.68 18.047C0.859 17.289 1.09 16.535 1.371 15.801C1.391 15.73 1.379 15.601 1.32 15.492L1.129 15.117C0.391 13.703 0 12.101 0 10.496C0 4.984 4.484 0.5 9.996 0.5H10.008Z" fill="#0961F5"/>
</svg>
