<svg width="48" height="48" viewBox="0 0 48 48" fill="none" xmlns="http://www.w3.org/2000/svg">
<mask id="mask0_941_1337" style="mask-type:luminance" maskUnits="userSpaceOnUse" x="0" y="0" width="48" height="40">
<path d="M48 0H0V39.84H48V0Z" fill="white"/>
</mask>
<g mask="url(#mask0_941_1337)">
<path d="M24.0001 46.3996C36.3713 46.3996 46.4001 36.3708 46.4001 23.9996C46.4001 11.6284 36.3713 1.59961 24.0001 1.59961C11.6289 1.59961 1.6001 11.6284 1.6001 23.9996C1.6001 36.3708 11.6289 46.3996 24.0001 46.3996Z" fill="#8ECEF2"/>
</g>
<path d="M23.9998 27.6002C29.0808 27.6002 33.1998 23.4812 33.1998 18.4002C33.1998 13.3192 29.0808 9.2002 23.9998 9.2002C18.9188 9.2002 14.7998 13.3192 14.7998 18.4002C14.7998 23.4812 18.9188 27.6002 23.9998 27.6002Z" fill="white"/>
<mask id="mask1_941_1337" style="mask-type:luminance" maskUnits="userSpaceOnUse" x="1" y="1" width="46" height="46">
<path d="M24.0001 46.3996C36.3713 46.3996 46.4001 36.3708 46.4001 23.9996C46.4001 11.6284 36.3713 1.59961 24.0001 1.59961C11.6289 1.59961 1.6001 11.6284 1.6001 23.9996C1.6001 36.3708 11.6289 46.3996 24.0001 46.3996Z" fill="white"/>
</mask>
<g mask="url(#mask1_941_1337)">
<path d="M24.0001 60.3996C33.0576 60.3996 40.4001 53.0571 40.4001 43.9996C40.4001 34.9421 33.0576 27.5996 24.0001 27.5996C14.9426 27.5996 7.6001 34.9421 7.6001 43.9996C7.6001 53.0571 14.9426 60.3996 24.0001 60.3996Z" fill="white"/>
</g>
</svg>
