<svg width="24" height="24" viewBox="0 0 24 24" fill="none" xmlns="http://www.w3.org/2000/svg">
<path d="M17 19.5C17 17.8431 14.7614 16.5 12 16.5C9.23858 16.5 7 17.8431 7 19.5M21 16.5004C21 15.2702 19.7659 14.2129 18 13.75M3 16.5004C3 15.2702 4.2341 14.2129 6 13.75M18 9.73611C18.6137 9.18679 19 8.3885 19 7.5C19 5.84315 17.6569 4.5 16 4.5C15.2316 4.5 14.5308 4.78885 14 5.26389M6 9.73611C5.38625 9.18679 5 8.3885 5 7.5C5 5.84315 6.34315 4.5 8 4.5C8.76835 4.5 9.46924 4.78885 10 5.26389M12 13.5C10.3431 13.5 9 12.1569 9 10.5C9 8.84315 10.3431 7.5 12 7.5C13.6569 7.5 15 8.84315 15 10.5C15 12.1569 13.6569 13.5 12 13.5Z" stroke="#0961F5" stroke-width="1.5" stroke-linecap="round" stroke-linejoin="round"/>
</svg>
