<svg width="24" height="23" viewBox="0 0 24 23" fill="none" xmlns="http://www.w3.org/2000/svg">
<path fill-rule="evenodd" clip-rule="evenodd" d="M18.6841 10.5747C19.1132 10.5747 19.4606 10.9314 19.4606 11.3746C19.4606 11.8132 19.1132 12.1687 18.6841 12.1687H18.3274C17.8982 12.1687 17.5462 11.8132 17.5462 11.3746C17.5462 10.9314 17.8982 10.5747 18.3274 10.5747H18.6841ZM16.7931 0.488358C20.5247 0.488358 23.5583 3.59438 23.5583 7.40907V15.7869C23.5583 19.6016 20.5247 22.7076 16.7931 22.7076C16.3639 22.7076 16.0119 22.3509 16.0119 21.9077C16.0119 21.4692 16.3639 21.1137 16.7931 21.1137C19.6617 21.1137 22.0006 18.7245 22.0006 15.7869V9.09891H18.159C16.8983 9.10359 15.8704 10.1549 15.8704 11.4425C15.8704 12.7359 16.8983 13.786 18.159 13.786H19.7529C20.1868 13.786 20.5341 14.1474 20.5341 14.5859C20.5341 15.0244 20.1868 15.3846 19.7529 15.3846H18.159C16.0388 15.3799 14.3127 13.6176 14.308 11.4425C14.3127 9.27315 16.0388 7.50497 18.159 7.50497H22.0006V7.40907C22.0006 4.47145 19.6617 2.0823 16.7931 2.0823H6.93474C4.61926 2.0823 2.67799 3.64466 2.00089 5.78239H12.2791C12.7094 5.78239 13.0567 6.13907 13.0567 6.58228C13.0567 7.02082 12.7094 7.3775 12.2791 7.3775H1.73192L1.72724 7.40907V15.7869C1.72724 18.7245 4.06144 21.1137 6.93474 21.1137H11.8955C12.3258 21.1137 12.672 21.4692 12.672 21.9077C12.672 22.3509 12.3258 22.7076 11.8955 22.7076H6.93474C3.20307 22.7076 0.169556 19.6016 0.169556 15.7869V7.40907C0.169556 3.59438 3.20307 0.488358 6.93474 0.488358H16.7931Z" fill="#202244"/>
</svg>
