<svg width="19" height="17" viewBox="0 0 19 17" fill="none" xmlns="http://www.w3.org/2000/svg">
<path fill-rule="evenodd" clip-rule="evenodd" d="M12.0914 6.92766C11.5409 6.86181 11.1566 6.28145 11.2342 5.633C11.3118 4.98456 11.8221 4.5112 12.3726 4.57705C12.9231 4.6429 13.3074 5.22327 13.2298 5.87171C13.1523 6.52016 12.642 6.99352 12.0914 6.92766ZM12.4938 3.56369C11.4615 3.44021 10.4802 4.35052 10.3347 5.56635C10.1893 6.78219 10.8939 7.89416 11.9605 8.02175C12.9928 8.14522 13.9741 7.23492 14.1196 6.01908C14.265 4.80325 13.526 3.68716 12.4938 3.56369ZM16.3743 11.97L14.2431 9.36367L11.4581 11.4641L6.879 4.98865L1.93863 9.23607L2.83401 1.75058C2.8728 1.42636 3.10833 1.20789 3.38359 1.24081L16.9747 2.86653C17.2499 2.89945 17.4273 3.16731 17.3885 3.49154L16.3743 11.97ZM16.0214 14.9204C15.9826 15.2447 15.7471 15.4631 15.4718 15.4302L14.154 15.2726L12.0497 12.2954L14.0782 10.7417L16.2134 13.3155L16.0214 14.9204ZM1.88071 13.8045C1.60545 13.7716 1.42809 13.5037 1.46687 13.1795L1.7655 10.683L6.70441 6.44771L12.8396 15.1154L1.88071 13.8045ZM17.14 1.77636L3.54889 0.150644C2.75751 0.0559821 2.01165 0.747812 1.90015 1.67995L0.533075 13.1088C0.421576 14.0409 0.983215 14.8892 1.77459 14.9838L15.3657 16.6095C16.157 16.7042 16.9029 16.0124 17.0144 15.0802L18.3815 3.65139C18.493 2.71925 17.9313 1.87102 17.14 1.77636Z" fill="#0961F5"/>
</svg>
