<svg width="19" height="15" viewBox="0 0 19 15" fill="none" xmlns="http://www.w3.org/2000/svg">
<path fill-rule="evenodd" clip-rule="evenodd" d="M18.8016 1.98342L18.0487 1.22856L11.0665 8.21071C10.1943 9.08259 8.72698 9.08259 7.85233 8.21071L0.872557 1.26902L0.117301 2.02189L5.31484 7.21904L0.117301 12.4162L0.872557 13.1691L6.06732 7.97192L7.09985 9.00405C7.73531 9.63951 8.56673 9.99572 9.439 9.99572C10.3137 9.99572 11.1451 9.63951 11.7809 9.00405L12.8107 7.97192L18.0082 13.1691L18.7607 12.4162L13.5659 7.21904L18.8016 1.98342Z" fill="#167F71"/>
<path fill-rule="evenodd" clip-rule="evenodd" d="M1.62515 1.07061C1.30742 1.07061 1.071 1.3094 1.071 1.62515V12.8128C1.071 13.1285 1.30742 13.3673 1.62515 13.3673H17.2935C17.6117 13.3673 17.8501 13.1285 17.8501 12.8128V1.62515C17.8501 1.3094 17.6117 1.07061 17.2935 1.07061H1.62515ZM17.3344 14.5169H1.66601C0.752876 14.5169 0 13.764 0 12.8513V1.66561C0 0.752876 0.752876 0 1.66601 0H17.3344C18.2467 0 19 0.752876 19 1.66561V12.8513C19 13.764 18.2467 14.5169 17.3344 14.5169Z" fill="#167F71"/>
</svg>
