<svg width="14" height="14" viewBox="0 0 14 14" fill="none" xmlns="http://www.w3.org/2000/svg">
<path fill-rule="evenodd" clip-rule="evenodd" d="M2.046 13.9829H10.8146C11.9469 13.9805 12.8605 13.0604 12.8605 11.9299V7.5228C12.8605 7.2007 12.5981 6.93823 12.276 6.93823C11.9539 6.93823 11.6914 7.2007 11.6914 7.5228V11.9299C11.6937 12.4162 11.3009 12.8114 10.8146 12.8137H2.046C1.55963 12.8114 1.1668 12.4162 1.16914 11.9299V3.17535C1.1668 2.68899 1.55963 2.29382 2.046 2.29148H6.43027C6.75237 2.29148 7.01484 2.02901 7.01484 1.70691C7.01484 1.38481 6.75237 1.12234 6.43027 1.12234H2.046C0.913099 1.12468 0 2.04479 0 3.17535V11.9299C0 13.0604 0.913099 13.9805 2.046 13.9829Z" fill="white"/>
<path fill-rule="evenodd" clip-rule="evenodd" d="M6.63149 6.53418L10.5908 2.56553L11.408 3.38744L7.44638 7.35843L6.39825 7.58933L6.63149 6.53418ZM11.833 1.32332C12.0633 1.10177 12.4287 1.10177 12.6596 1.32332C12.8858 1.55364 12.8858 1.919 12.6596 2.1499L12.2463 2.56319L11.4197 1.73661L11.833 1.32332ZM5.52607 6.11621L5.06484 8.22827C5.02392 8.42468 5.08297 8.62811 5.22502 8.76724C5.36648 8.90461 5.56699 8.96365 5.76107 8.92507L7.87137 8.46385C7.97834 8.43871 8.07889 8.38376 8.15897 8.30368L13.4862 2.97649C14.1713 2.29137 14.1713 1.18186 13.4862 0.496739C12.7923 -0.16558 11.7003 -0.16558 11.0064 0.496739L5.688 5.8286C5.60849 5.90869 5.55121 6.00631 5.52607 6.11621Z" fill="white"/>
</svg>
