<svg width="70" height="70" viewBox="0 0 70 70" fill="none" xmlns="http://www.w3.org/2000/svg">
<path fill-rule="evenodd" clip-rule="evenodd" d="M66.5 53.6667H3.5C1.568 53.6667 0 52.0987 0 50.1667V3.5C0 1.568 1.568 0 3.5 0H66.5C68.432 0 70 1.568 70 3.5V50.1667C70 52.0987 68.432 53.6667 66.5 53.6667Z" fill="#0455BF"/>
<path fill-rule="evenodd" clip-rule="evenodd" d="M59.5 49H6.99996C5.71196 49 4.66663 47.9547 4.66663 46.6667V6.99999C4.66663 5.71199 5.71196 4.66666 6.99996 4.66666H58.3333C59.6213 4.66666 60.6666 5.71199 60.6666 6.99999V47.8333C60.6666 48.4773 60.144 49 59.5 49Z" fill="#FDFEFF"/>
<path fill-rule="evenodd" clip-rule="evenodd" d="M6.99996 46.6667V6.99999C6.99996 5.71199 8.04529 4.66666 9.33329 4.66666H6.99996C5.71196 4.66666 4.66663 5.71199 4.66663 6.99999V46.6667C4.66663 47.9547 5.71196 49 6.99996 49H9.33329C8.04529 49 6.99996 47.9547 6.99996 46.6667Z" fill="#DFEAEF"/>
<path fill-rule="evenodd" clip-rule="evenodd" d="M45.5 26.8333C45.5 32.6309 40.7976 37.3333 35 37.3333C29.2024 37.3333 24.5 32.6309 24.5 26.8333C24.5 21.0358 29.2024 16.3333 35 16.3333C40.7976 16.3333 45.5 21.0358 45.5 26.8333Z" fill="#0455BF"/>
<path fill-rule="evenodd" clip-rule="evenodd" d="M39.6666 31.5C39.6666 30.6678 40.1162 29.9025 40.8333 29.4887C39.284 28.5709 37.3209 29.6956 37.3333 31.5V35C38.1173 35 38.9013 34.9082 39.6666 34.7325V31.5Z" fill="#004787"/>
<path fill-rule="evenodd" clip-rule="evenodd" d="M37.3333 35C33.3838 35.0062 29.7687 32.7942 27.9751 29.2756C26.1831 25.7584 26.5176 21.5351 28.8385 18.3384C26.348 20.1429 24.7738 22.9444 24.5311 26.0073C24.2869 29.0702 25.3991 32.0833 27.5753 34.258C29.7438 36.428 32.7585 37.5402 35.8198 37.2976C38.8827 37.0533 41.6905 35.4807 43.4887 32.9887C41.7029 34.2953 39.5453 35 37.3333 35Z" fill="#004787"/>
<path fill-rule="evenodd" clip-rule="evenodd" d="M32.6667 31.5C32.0227 31.5 31.5 30.9773 31.5 30.3333V23.3333C31.5 22.4638 32.4116 21.8991 33.1893 22.288L40.1893 25.788C40.9002 26.1473 41.0527 27.0947 40.4927 27.6531C40.3107 27.8367 40.3107 27.8367 33.1893 31.3724C33.0244 31.458 32.8487 31.5 32.6667 31.5Z" fill="#FEBC00"/>
<path fill-rule="evenodd" clip-rule="evenodd" d="M40.1891 25.7881L39.9605 25.673L35.5225 27.8788C34.7447 28.2677 33.8331 27.703 33.8331 26.8335V22.6101L33.1891 22.2881C32.4113 21.8993 31.4998 22.4639 31.4998 23.3335V30.3335C31.4936 31.203 32.4051 31.7677 33.1829 31.385C40.298 27.8477 40.298 27.8477 40.4862 27.6657C41.0462 27.101 40.8938 26.1521 40.1829 25.8006L40.1891 25.7881Z" fill="#EDAA03"/>
<path fill-rule="evenodd" clip-rule="evenodd" d="M22.1666 39.6667H11.6666V42H44.3333V39.6667H22.1666Z" fill="#0455BF"/>
<path fill-rule="evenodd" clip-rule="evenodd" d="M65.3333 24.5C66.6213 24.5 67.6667 25.788 67.6667 26.8333C67.6667 28.1213 66.6213 29.1667 65.3333 29.1667C64.0453 29.1667 63 27.8787 63 26.8333C63 25.5453 64.0453 24.5 65.3333 24.5Z" fill="#FEBC00"/>
<path fill-rule="evenodd" clip-rule="evenodd" d="M66.5 28C64.8044 28.0062 63.6751 26.25 64.3797 24.7131C62.8848 25.3742 62.5193 27.3373 63.6751 28.4915C64.8355 29.652 66.7924 29.288 67.4597 27.7931C67.1564 27.9269 66.8282 28 66.5 28Z" fill="#EDAA03"/>
<path fill-rule="evenodd" clip-rule="evenodd" d="M56 46.6667C54.712 46.6667 53.6666 47.712 53.6666 49V45.5C53.6666 42.3889 49 42.3889 49 45.5V40.8333C49 37.7222 44.3333 37.7222 44.3333 40.8333V31.5C44.3333 28.3889 39.6666 28.3889 39.6666 31.5V55.034C39.6666 56.3282 38.1049 56.9722 37.1933 56.0607L32.6666 51.534C31.7613 50.5975 30.2602 50.5867 29.3424 51.5091C28.42 52.4269 28.4309 53.928 29.3673 54.8333L34.314 59.7862L36.3969 61.8644C38.5544 64.0204 39.7693 66.9495 39.7693 70H55.314V69.5629C55.314 67.886 55.8413 66.2511 56.8198 64.8838C57.8044 63.5227 58.3333 61.8878 58.3333 60.2109V49C58.3333 47.712 57.288 46.6667 56 46.6667Z" fill="#ECC19C"/>
<path fill-rule="evenodd" clip-rule="evenodd" d="M18.6667 43.1667C16.5884 43.1667 15.5493 40.6513 17.0147 39.1813C18.4847 37.716 21 38.7551 21 40.8333C21 42.1213 19.9547 43.1667 18.6667 43.1667Z" fill="#FEBC00"/>
<path fill-rule="evenodd" clip-rule="evenodd" d="M19.8333 42C18.1378 42.0062 17.0084 40.25 17.7131 38.7131C16.2182 39.3742 15.8527 41.3373 17.0084 42.4915C18.1689 43.652 20.1258 43.288 20.7931 41.7931C20.4898 41.9269 20.1616 42 19.8333 42Z" fill="#EDAA03"/>
<path fill-rule="evenodd" clip-rule="evenodd" d="M29.3672 51.5338C29.5134 51.3938 29.6767 51.2725 29.8478 51.1698C28.1025 50.1478 25.976 51.6925 26.4023 53.6665H28.7356C28.5707 52.895 28.8087 52.0923 29.3672 51.5338ZM37.3332 53.6665H39.6665V48.9998H37.3332V53.6665Z" fill="#004787"/>
<mask id="mask0_1_115" style="mask-type:luminance" maskUnits="userSpaceOnUse" x="0" y="0" width="70" height="70">
<path fill-rule="evenodd" clip-rule="evenodd" d="M0 70H70V0H0V70Z" fill="white"/>
</mask>
<g mask="url(#mask0_1_115)">
<path fill-rule="evenodd" clip-rule="evenodd" d="M37.3334 49H39.6667V42H37.3334V49ZM39.6667 36.2273C39.3929 36.3611 39.1145 36.4887 38.8345 36.5975C38.7365 36.6349 38.64 36.6707 38.5358 36.708C38.2745 36.8044 38.0085 36.8838 37.7347 36.9569C37.6196 36.9864 37.492 37.0238 37.3691 37.0533L37.3271 37.0658V39.6667H39.6605L39.6667 36.2273Z" fill="#DFEAEF"/>
<path fill-rule="evenodd" clip-rule="evenodd" d="M39.6667 34.7326C38.9014 34.9084 38.1174 35.0002 37.3334 35.0002V37.0597L37.3754 37.0535C37.8747 36.9322 38.36 36.7797 38.8345 36.5977C39.1192 36.4826 39.3992 36.3675 39.6667 36.2213V34.7326ZM37.3334 42.0002H39.6667V39.6668H37.3334V42.0002Z" fill="#004787"/>
</g>
</svg>
